{
.appVersion = "1342";
copyright = "©2010 by Robert E. Leuschke. All rights reserved.";
customParameters = (
{
name = trademark;
value = "Please refer to the Copyright section for the font trademark attribution notices.";
},
{
name = licenseURL;
value = "http://www.typesetit.com/license.html";
},
{
name = license;

glyphs = (
{
color = 4;
glyphname = A;
lastChange = "2021-04-21 04:58:42 +0000";
layers = (
{
hints = (
{
horizontal = 1;
place = "{-61, 33}";
type = Stem;
},
{
horizontal = 1;
place = "{168, 314}";
type = Stem;
},
{
horizontal = 1;
place = "{587, -20}";
target = down;
type = TopGhost;
},
{
place = "{9, 42}";
type = Stem;
},
{
place = "{654, 43}";
type = Stem;
}
);
layerId = "A9A9B55F-A222-44B0-A0B6-968BE501F3F8";
paths = (
{
closed = 1;
nodes = (
"751 192 OFFCURVE",
"768 182 OFFCURVE",
"779 182 CURVE SMOOTH",
"788 182 OFFCURVE",
"795 179 OFFCURVE",
"795 191 CURVE SMOOTH",
"796 207 OFFCURVE",
"757 212 OFFCURVE",
"745 215 CURVE",
"786 338 OFFCURVE",
"840 452 OFFCURVE",
"912 558 CURVE",
"914 562 OFFCURVE",
"918 567 OFFCURVE",
"918 572 CURVE SMOOTH",
"919 582 OFFCURVE",
"912 587 OFFCURVE",
"903 587 CURVE SMOOTH",
"888 587 OFFCURVE",
"841 562 OFFCURVE",
"833 549 CURVE SMOOTH",
"817 527 OFFCURVE",
"804 501 OFFCURVE",
"792 477 CURVE",
"787 481 OFFCURVE",
"781 482 OFFCURVE",
"776 482 CURVE SMOOTH",
"770 482 OFFCURVE",
"765 479 OFFCURVE",
"761 475 CURVE SMOOTH",
"687 395 OFFCURVE",
"605 290 OFFCURVE",
"552 238 CURVE",
"418 239 OFFCURVE",
"180 248 OFFCURVE",
"71 153 CURVE SMOOTH",
"39 125 OFFCURVE",
"12 87 OFFCURVE",
"10 41 CURVE SMOOTH",
"7 -43 OFFCURVE",
"91 -67 OFFCURVE",
"153 -67 CURVE SMOOTH",
"309 -67 OFFCURVE",
"460 83 OFFCURVE",
"570 202 CURVE",
"595 204 OFFCURVE",
"652 208 OFFCURVE",
"692 203 CURVE",
"675 143 OFFCURVE",
"656 70 OFFCURVE",
"654 8 CURVE SMOOTH",
"653 -28 OFFCURVE",
"662 -61 OFFCURVE",
"700 -61 CURVE SMOOTH",
"715 -61 OFFCURVE",
"751 -47 OFFCURVE",
"773 -24 CURVE SMOOTH",
"780 -16 OFFCURVE",
"774 -2 OFFCURVE",
"767 -9 CURVE SMOOTH",
"754 -21 OFFCURVE",
"737 -32 OFFCURVE",
"723 -34 CURVE SMOOTH",
"700 -37 OFFCURVE",
"696 -28 OFFCURVE",
"696 -1 CURVE SMOOTH",
"699 61 OFFCURVE",
"721 135 OFFCURVE",
"739 194 CURVE"
);
},
{
closed = 1;
nodes = (
"410 102 OFFCURVE",
"258 -27 OFFCURVE",
"118 -29 CURVE SMOOTH",
"85 -30 OFFCURVE",
"30 -19 OFFCURVE",
"34 28 CURVE SMOOTH",
"53 191 OFFCURVE",
"407 202 OFFCURVE",
"519 204 CURVE"
);
},
{
closed = 1;
nodes = (
"738 360 OFFCURVE",
"716 290 OFFCURVE",
"696 223 CURVE",
"666 229 OFFCURVE",
"630 232 OFFCURVE",
"599 234 CURVE",
"653 295 OFFCURVE",
"713 362 OFFCURVE",
"766 424 CURVE"
);
}
);
width = 791;
}
);
note = A;
unicode = 0041;
},
{
color = 4;
glyphname = Aacute;
lastChange = "2021-04-21 04:42:14 +0000";
layers = (
{
hints = (
{
horizontal = 1;
place = "{-61, 33}";
type = Stem;
},
{
horizontal = 1;
place = "{168, 314}";
type = Stem;
},
{
place = "{9, 42}";
type = Stem;
},
{
place = "{654, 43}";
type = Stem;
}
);
layerId = "A9A9B55F-A222-44B0-A0B6-968BE501F3F8";
paths = (
{
closed = 1;
nodes = (
"738 360 OFFCURVE",
"716 290 OFFCURVE",
"696 223 CURVE",
"666 229 OFFCURVE",
"630 232 OFFCURVE",
"599 234 CURVE",
"653 295 OFFCURVE",
"713 362 OFFCURVE",
"766 424 CURVE"
);
},
{
closed = 1;
nodes = (
"751 192 OFFCURVE",
"768 182 OFFCURVE",
"779 182 CURVE SMOOTH",
"788 182 OFFCURVE",
"795 179 OFFCURVE",
"795 191 CURVE SMOOTH",
"796 207 OFFCURVE",
"757 212 OFFCURVE",
"745 215 CURVE",
"786 338 OFFCURVE",
"840 452 OFFCURVE",
"912 558 CURVE",
"914 562 OFFCURVE",
"918 567 OFFCURVE",
"918 572 CURVE SMOOTH",
"919 582 OFFCURVE",
"912 587 OFFCURVE",
"903 587 CURVE SMOOTH",
"888 587 OFFCURVE",
"841 562 OFFCURVE",
"833 549 CURVE SMOOTH",
"817 527 OFFCURVE",
"804 501 OFFCURVE",
"792 477 CURVE",
"787 481 OFFCURVE",
"781 482 OFFCURVE",
"776 482 CURVE SMOOTH",
"770 482 OFFCURVE",
"765 479 OFFCURVE",
"761 475 CURVE SMOOTH",
"687 395 OFFCURVE",
"605 290 OFFCURVE",
"552 238 CURVE",
"418 239 OFFCURVE",
"180 248 OFFCURVE",
"71 153 CURVE SMOOTH",
"39 125 OFFCURVE",
"12 87 OFFCURVE",
"10 41 CURVE SMOOTH",
"7 -43 OFFCURVE",
"91 -67 OFFCURVE",
"153 -67 CURVE SMOOTH",
"309 -67 OFFCURVE",
"460 83 OFFCURVE",
"570 202 CURVE",
"595 204 OFFCURVE",
"652 208 OFFCURVE",
"692 203 CURVE",
"675 143 OFFCURVE",
"656 70 OFFCURVE",
"654 8 CURVE SMOOTH",
"653 -28 OFFCURVE",
"662 -61 OFFCURVE",
"700 -61 CURVE SMOOTH",
"715 -61 OFFCURVE",
"751 -47 OFFCURVE",
"773 -24 CURVE SMOOTH",
"780 -16 OFFCURVE",
"774 -2 OFFCURVE",
"767 -9 CURVE SMOOTH",
"754 -21 OFFCURVE",
"737 -32 OFFCURVE",
"723 -34 CURVE SMOOTH",
"700 -37 OFFCURVE",
"696 -28 OFFCURVE",
"696 -1 CURVE SMOOTH",
"699 61 OFFCURVE",
"721 135 OFFCURVE",
"739 194 CURVE"
);
},
{
closed = 1;
nodes = (
"410 102 OFFCURVE",
"258 -27 OFFCURVE",
"118 -29 CURVE SMOOTH",
"85 -30 OFFCURVE",
"30 -19 OFFCURVE",
"34 28 CURVE SMOOTH",
"53 191 OFFCURVE",
"407 202 OFFCURVE",
"519 204 CURVE"
);
},
{
closed = 1;
nodes = (
"920 620 OFFCURVE",
"1012 670 OFFCURVE",
"1027 679 CURVE SMOOTH",
"1034 683 OFFCURVE",
"1038 692 OFFCURVE",
"1038 701 CURVE SMOOTH",
"1039 710 OFFCURVE",
"1034 717 OFFCURVE",
"1025 717 CURVE SMOOTH",
"1009 717 OFFCURVE",
"910 645 OFFCURVE",
"905 641 CURVE SMOOTH",
"902 639 OFFCURVE",
"899 635 OFFCURVE",
"899 631 CURVE SMOOTH",
"899 624 OFFCURVE",
"905 620 OFFCURVE",
"910 620 CURVE SMOOTH"
);
}
);
width = 791;
}
);
note = Aacute;
unicode = 00C1;
},
{
color = 4;
glyphname = Abreve;
lastChange = "2021-04-21 04:42:14 +0000";
layers = (
{
hints = (
{
horizontal = 1;
place = "{-61, 33}";
type = Stem;
},
{
horizontal = 1;
place = "{168, 314}";
type = Stem;
},
{
horizontal = 1;
place = "{626, 31}";
type = Stem;
},
{
place = "{9, 42}";
type = Stem;
},
{
place = "{654, 43}";
type = Stem;
},
{
horizontal = 1;
place = "{587, -20}";
target = down;
type = TopGhost;
}
);
layerId = "A9A9B55F-A222-44B0-A0B6-968BE501F3F8";
paths = (
{
closed = 1;
nodes = (
"738 360 OFFCURVE",
"716 290 OFFCURVE",
"696 223 CURVE",
"666 229 OFFCURVE",
"630 232 OFFCURVE",
"599 234 CURVE",
"653 295 OFFCURVE",
"713 362 OFFCURVE",
"766 424 CURVE"
);
},
{
closed = 1;
nodes = (
"751 192 OFFCURVE",
"768 182 OFFCURVE",
"779 182 CURVE SMOOTH",
"788 182 OFFCURVE",
"795 179 OFFCURVE",
"795 191 CURVE SMOOTH",
"796 207 OFFCURVE",
"757 212 OFFCURVE",
"745 215 CURVE",
"786 338 OFFCURVE",
"840 452 OFFCURVE",
"912 558 CURVE",
"914 562 OFFCURVE",
"918 567 OFFCURVE",
"918 572 CURVE SMOOTH",
"919 582 OFFCURVE",
"912 587 OFFCURVE",
"903 587 CURVE SMOOTH",
"888 587 OFFCURVE",
"841 562 OFFCURVE",
"833 549 CURVE SMOOTH",
"817 527 OFFCURVE",
"804 501 OFFCURVE",
"792 477 CURVE",
"787 481 OFFCURVE",
"781 482 OFFCURVE",
"776 482 CURVE SMOOTH",
"770 482 OFFCURVE",
"765 479 OFFCURVE",
"761 475 CURVE SMOOTH",
"687 395 OFFCURVE",
"605 290 OFFCURVE",
"552 238 CURVE",
"418 239 OFFCURVE",
"180 248 OFFCURVE",
"71 153 CURVE SMOOTH",
"39 125 OFFCURVE",
"12 87 OFFCURVE",
"10 41 CURVE SMOOTH",
"7 -43 OFFCURVE",
"91 -67 OFFCURVE",
"153 -67 CURVE SMOOTH",
"309 -67 OFFCURVE",
"460 83 OFFCURVE",
"570 202 CURVE",
"595 204 OFFCURVE",
"652 208 OFFCURVE",
"692 203 CURVE",
"675 143 OFFCURVE",
"656 70 OFFCURVE",
"654 8 CURVE SMOOTH",
"653 -28 OFFCURVE",
"662 -61 OFFCURVE",
"700 -61 CURVE SMOOTH",
"715 -61 OFFCURVE",
"751 -47 OFFCURVE",
"773 -24 CURVE SMOOTH",
"780 -16 OFFCURVE",
"774 -2 OFFCURVE",
"767 -9 CURVE SMOOTH",
"754 -21 OFFCURVE",
"737 -32 OFFCURVE",
"723 -34 CURVE SMOOTH",
"700 -37 OFFCURVE",
"696 -28 OFFCURVE",
"696 -1 CURVE SMOOTH",
"699 61 OFFCURVE",
"721 135 OFFCURVE",
"739 194 CURVE"
);
},
{
closed = 1;
nodes = (
"410 102 OFFCURVE",
"258 -27 OFFCURVE",
"118 -29 CURVE SMOOTH",
"85 -30 OFFCURVE",
"30 -19 OFFCURVE",
"34 28 CURVE SMOOTH",
"53 191 OFFCURVE",
"407 202 OFFCURVE",
"519 204 CURVE"
);
},
{
closed = 1;
nodes = (
"961 630 OFFCURVE",
"1023 675 OFFCURVE",
"1031 707 CURVE",
"1032 720 OFFCURVE",
"1022 718 OFFCURVE",
"1016 711 CURVE SMOOTH",
"992 685 OFFCURVE",
"945 657 OFFCURVE",
"914 657 CURVE SMOOTH",
"899 657 OFFCURVE",
"881 658 OFFCURVE",
"870 669 CURVE SMOOTH",
"863 675 OFFCURVE",
"855 684 OFFCURVE",
"854 701 CURVE SMOOTH",
"853 709 OFFCURVE",
"844 715 OFFCURVE",
"841 715 CURVE SMOOTH",
"828 715 OFFCURVE",
"822 705 OFFCURVE",
"822 694 CURVE SMOOTH",
"820 647 OFFCURVE",
"870 630 OFFCURVE",
"906 630 CURVE SMOOTH"
);
}
);
width = 835;
}
);
note = Abreve;
unicode = 0102;
},
{
color = 4;
glyphname = Acircumflex;
lastChange = "2021-04-21 04:42:14 +0000";
layers = (
{
hints = (
{
horizontal = 1;
place = "{-61, 33}";
type = Stem;
},
{
horizontal = 1;
place = "{168, 314}";
type = Stem;
},
{
place = "{9, 42}";
type = Stem;
},
{
place = "{654, 43}";
type = Stem;
}
);
layerId = "A9A9B55F-A222-44B0-A0B6-968BE501F3F8";
paths = (
{
closed = 1;
nodes = (
"738 360 OFFCURVE",
"716 290 OFFCURVE",
"696 223 CURVE",
"666 229 OFFCURVE",
"630 232 OFFCURVE",
"599 234 CURVE",
"653 295 OFFCURVE",
"713 362 OFFCURVE",
"766 424 CURVE"
);
},
{
closed = 1;
nodes = (
"751 192 OFFCURVE",
"768 182 OFFCURVE",
"779 182 CURVE SMOOTH",
"788 182 OFFCURVE",
"795 179 OFFCURVE",
"795 191 CURVE SMOOTH",
"796 207 OFFCURVE",
"757 212 OFFCURVE",
"745 215 CURVE",
"786 338 OFFCURVE",
"840 452 OFFCURVE",
"912 558 CURVE",
"914 562 OFFCURVE",
"918 567 OFFCURVE",
"918 572 CURVE SMOOTH",
"919 582 OFFCURVE",
"912 587 OFFCURVE",
"903 587 CURVE SMOOTH",
"888 587 OFFCURVE",
"841 562 OFFCURVE",
"833 549 CURVE SMOOTH",
"817 527 OFFCURVE",
"804 501 OFFCURVE",
"792 477 CURVE",
"787 481 OFFCURVE",
"781 482 OFFCURVE",
"776 482 CURVE SMOOTH",
"770 482 OFFCURVE",
"765 479 OFFCURVE",
"761 475 CURVE SMOOTH",
"687 395 OFFCURVE",
"605 290 OFFCURVE",
"552 238 CURVE",
"418 239 OFFCURVE",
"180 248 OFFCURVE",
"71 153 CURVE SMOOTH",
"39 125 OFFCURVE",
"12 87 OFFCURVE",
"10 41 CURVE SMOOTH",
"7 -43 OFFCURVE",
"91 -67 OFFCURVE",
"153 -67 CURVE SMOOTH",
"309 -67 OFFCURVE",
"460 83 OFFCURVE",
"570 202 CURVE",
"595 204 OFFCURVE",
"652 208 OFFCURVE",
"692 203 CURVE",
"675 143 OFFCURVE",
"656 70 OFFCURVE",
"654 8 CURVE SMOOTH",
"653 -28 OFFCURVE",
"662 -61 OFFCURVE",
"700 -61 CURVE SMOOTH",
"715 -61 OFFCURVE",
"751 -47 OFFCURVE",
"773 -24 CURVE SMOOTH",
"780 -16 OFFCURVE",
"774 -2 OFFCURVE",
"767 -9 CURVE SMOOTH",
"754 -21 OFFCURVE",
"737 -32 OFFCURVE",
"723 -34 CURVE SMOOTH",
"700 -37 OFFCURVE",
"696 -28 OFFCURVE",
"696 -1 CURVE SMOOTH",
"699 61 OFFCURVE",
"721 135 OFFCURVE",
"739 194 CURVE"
);
},
{
closed = 1;
nodes = (
"410 102 OFFCURVE",
"258 -27 OFFCURVE",
"118 -29 CURVE SMOOTH",
"85 -30 OFFCURVE",
"30 -19 OFFCURVE",
"34 28 CURVE SMOOTH",
"53 191 OFFCURVE",
"407 202 OFFCURVE",
"519 204 CURVE"
);
},
{
closed = 1;
nodes = (
"972 650 OFFCURVE",
"944 679 OFFCURVE",
"936 694 CURVE SMOOTH",
"925 713 OFFCURVE",
"903 694 OFFCURVE",
"849 662 CURVE SMOOTH",
"806 635 OFFCURVE",
"777 613 OFFCURVE",
"776 608 CURVE SMOOTH",
"774 603 OFFCURVE",
"776 601 OFFCURVE",
"781 601 CURVE SMOOTH",
"787 601 OFFCURVE",
"824 620 OFFCURVE",
"896 664 CURVE",
"902 654 OFFCURVE",
"916 640 OFFCURVE",
"939 623 CURVE SMOOTH",
"941 622 OFFCURVE",
"962 604 OFFCURVE",
"978 598 CURVE",
"992 589 OFFCURVE",
"1015 604 OFFCURVE",
"1005 617 CURVE"
);
}
);
width = 791;
}
);
note = Acircumflex;
unicode = 00C2;
},
{
color = 4;
glyphname = Adieresis;
lastChange = "2021-04-21 04:58:35 +0000";
layers = (
{
components = (
{
name = A;
}
);
hints = (
{
horizontal = 1;
place = "{-61, 33}";
type = Stem;
},
{
horizontal = 1;
place = "{168, 314}";
type = Stem;
},
{
horizontal = 1;
place = "{609, 74}";
type = Stem;
},
{
place = "{9, 42}";
type = Stem;
},
{
place = "{654, 43}";
type = Stem;
},
{
place = "{774, 74}";
type = Stem;
},
{
place = "{910, 74}";
type = Stem;
},
{
horizontal = 1;
place = "{587, -20}";
target = down;
type = TopGhost;
}
);
layerId = "A9A9B55F-A222-44B0-A0B6-968BE501F3F8";
paths = (
{
closed = 1;
nodes = (
"797 627 OFFCURVE",
"808 613 OFFCURVE",
"825 613 CURVE SMOOTH",
"842 613 OFFCURVE",
"858 627 OFFCURVE",
"861 645 CURVE SMOOTH",
"864 663 OFFCURVE",
"853 677 OFFCURVE",
"836 677 CURVE SMOOTH",
"818 677 OFFCURVE",
"802 663 OFFCURVE",
"800 645 CURVE SMOOTH"
);
},
{
closed = 1;
nodes = (
"934 627 OFFCURVE",
"945 613 OFFCURVE",
"962 613 CURVE SMOOTH",
"979 613 OFFCURVE",
"995 627 OFFCURVE",
"998 645 CURVE SMOOTH",
"1001 663 OFFCURVE",
"990 677 OFFCURVE",
"973 677 CURVE SMOOTH",
"955 677 OFFCURVE",
"939 663 OFFCURVE",
"937 645 CURVE SMOOTH"
);
}
);
width = 791;
}
);
note = Adieresis;
unicode = 00C4;
},
{
color = 4;
glyphname = Agrave;
lastChange = "2021-04-21 04:42:14 +0000";
layers = (
{
hints = (
{
horizontal = 1;
place = "{-61, 33}";
type = Stem;
},
{
horizontal = 1;
place = "{169, 314}";
type = Stem;
},
{
place = "{9, 42}";
type = Stem;
},
{
place = "{654, 43}";
type = Stem;
}
);
layerId = "A9A9B55F-A222-44B0-A0B6-968BE501F3F8";
paths = (
{
closed = 1;
nodes = (
"738 360 OFFCURVE",
"716 290 OFFCURVE",
"696 223 CURVE",
"666 229 OFFCURVE",
"630 232 OFFCURVE",
"599 234 CURVE",
"653 295 OFFCURVE",
"713 362 OFFCURVE",
"766 424 CURVE"
);
},
{
closed = 1;
nodes = (
"751 192 OFFCURVE",
"768 182 OFFCURVE",
"779 182 CURVE SMOOTH",
"788 182 OFFCURVE",
"795 179 OFFCURVE",
"795 191 CURVE SMOOTH",
"796 207 OFFCURVE",
"757 212 OFFCURVE",
"745 215 CURVE",
"786 338 OFFCURVE",
"840 452 OFFCURVE",
"912 558 CURVE",
"914 562 OFFCURVE",
"918 567 OFFCURVE",
"918 572 CURVE SMOOTH",
"919 582 OFFCURVE",
"912 587 OFFCURVE",
"903 587 CURVE SMOOTH",
"888 587 OFFCURVE",
"841 562 OFFCURVE",
"833 549 CURVE SMOOTH",
"817 527 OFFCURVE",
"804 501 OFFCURVE",
"792 477 CURVE",
"787 481 OFFCURVE",
"781 482 OFFCURVE",
"776 482 CURVE SMOOTH",
"770 482 OFFCURVE",
"765 479 OFFCURVE",
"761 475 CURVE SMOOTH",
"687 395 OFFCURVE",
"605 290 OFFCURVE",
"552 238 CURVE",
"418 239 OFFCURVE",
"180 248 OFFCURVE",
"71 153 CURVE SMOOTH",
"39 125 OFFCURVE",
"12 87 OFFCURVE",
"10 41 CURVE SMOOTH",
"7 -43 OFFCURVE",
"91 -67 OFFCURVE",
"153 -67 CURVE SMOOTH",
"309 -67 OFFCURVE",
"460 83 OFFCURVE",
"570 202 CURVE",
"595 204 OFFCURVE",
"652 208 OFFCURVE",
"692 203 CURVE",
"675 143 OFFCURVE",
"656 70 OFFCURVE",
"654 8 CURVE SMOOTH",
"653 -28 OFFCURVE",
"662 -61 OFFCURVE",
"700 -61 CURVE SMOOTH",
"715 -61 OFFCURVE",
"751 -47 OFFCURVE",
"773 -24 CURVE SMOOTH",
"780 -16 OFFCURVE",
"774 -2 OFFCURVE",
"767 -9 CURVE SMOOTH",
"754 -21 OFFCURVE",
"737 -32 OFFCURVE",
"723 -34 CURVE SMOOTH",
"700 -37 OFFCURVE",
"696 -28 OFFCURVE",
"696 -1 CURVE SMOOTH",
"699 61 OFFCURVE",
"721 135 OFFCURVE",
"739 194 CURVE"
);
},
{
closed = 1;
nodes = (
"410 102 OFFCURVE",
"258 -27 OFFCURVE",
"118 -29 CURVE SMOOTH",
"85 -30 OFFCURVE",
"30 -19 OFFCURVE",
"34 28 CURVE SMOOTH",
"53 191 OFFCURVE",
"407 202 OFFCURVE",
"519 204 CURVE"
);
},
{
closed = 1;
nodes = (
"918 617 OFFCURVE",
"926 620 OFFCURVE",
"926 628 CURVE SMOOTH",
"927 640 OFFCURVE",
"800 731 OFFCURVE",
"783 731 CURVE SMOOTH",
"772 731 OFFCURVE",
"766 724 OFFCURVE",
"765 712 CURVE SMOOTH",
"764 683 OFFCURVE",
"901 617 OFFCURVE",
"911 617 CURVE SMOOTH"
);
}
);
width = 791;
}
);
note = Agrave;
unicode = 00C0;
},
{
color = 4;
glyphname = Amacron;
lastChange = "2021-04-21 04:42:14 +0000";
layers = (
{
hints = (
{
horizontal = 1;
place = "{-61, 33}";
type = Stem;
},
{
horizontal = 1;
place = "{168, 314}";
type = Stem;
},
{
place = "{9, 42}";
type = Stem;
},
{
place = "{654, 43}";
type = Stem;
},
{
place = "{760, 234}";
type = Stem;
},
{
horizontal = 1;
place = "{587, -20}";
target = down;
type = TopGhost;
}
);
layerId = "A9A9B55F-A222-44B0-A0B6-968BE501F3F8";
paths = (
{
closed = 1;
nodes = (
"738 360 OFFCURVE",
"716 290 OFFCURVE",
"696 223 CURVE",
"666 229 OFFCURVE",
"630 232 OFFCURVE",
"599 234 CURVE",
"653 295 OFFCURVE",
"713 362 OFFCURVE",
"766 424 CURVE"
);
},
{
closed = 1;
nodes = (
"751 192 OFFCURVE",
"768 182 OFFCURVE",
"779 182 CURVE SMOOTH",
"788 182 OFFCURVE",
"795 179 OFFCURVE",
"795 191 CURVE SMOOTH",
"796 207 OFFCURVE",
"757 212 OFFCURVE",
"745 215 CURVE",
"786 338 OFFCURVE",
"840 452 OFFCURVE",
"912 558 CURVE",
"914 562 OFFCURVE",
"918 567 OFFCURVE",
"918 572 CURVE SMOOTH",
"919 582 OFFCURVE",
"912 587 OFFCURVE",
"903 587 CURVE SMOOTH",
"888 587 OFFCURVE",
"841 562 OFFCURVE",
"833 549 CURVE SMOOTH",
"817 527 OFFCURVE",
"804 501 OFFCURVE",
"792 477 CURVE",
"787 481 OFFCURVE",
"781 482 OFFCURVE",
"776 482 CURVE SMOOTH",
"770 482 OFFCURVE",
"765 479 OFFCURVE",
"761 475 CURVE SMOOTH",
"687 395 OFFCURVE",
"605 290 OFFCURVE",
"552 238 CURVE",
"418 239 OFFCURVE",
"180 248 OFFCURVE",
"71 153 CURVE SMOOTH",
"39 125 OFFCURVE",
"12 87 OFFCURVE",
"10 41 CURVE SMOOTH",
"7 -43 OFFCURVE",
"91 -67 OFFCURVE",
"153 -67 CURVE SMOOTH",
"309 -67 OFFCURVE",
"460 83 OFFCURVE",
"570 202 CURVE",
"595 204 OFFCURVE",
"652 208 OFFCURVE",
"692 203 CURVE",
"675 143 OFFCURVE",
"656 70 OFFCURVE",
"654 8 CURVE SMOOTH",
"653 -28 OFFCURVE",
"662 -61 OFFCURVE",
"700 -61 CURVE SMOOTH",
"715 -61 OFFCURVE",
"751 -47 OFFCURVE",
"773 -24 CURVE SMOOTH",
"780 -16 OFFCURVE",
"774 -2 OFFCURVE",
"767 -9 CURVE SMOOTH",
"754 -21 OFFCURVE",
"737 -32 OFFCURVE",
"723 -34 CURVE SMOOTH",
"700 -37 OFFCURVE",
"696 -28 OFFCURVE",
"696 -1 CURVE SMOOTH",
"699 61 OFFCURVE",
"721 135 OFFCURVE",
"739 194 CURVE"
);
},
{
closed = 1;
nodes = (
"410 102 OFFCURVE",
"258 -27 OFFCURVE",
"118 -29 CURVE SMOOTH",
"85 -30 OFFCURVE",
"30 -19 OFFCURVE",
"34 28 CURVE SMOOTH",
"53 191 OFFCURVE",
"407 202 OFFCURVE",
"519 204 CURVE"
);
},
{
closed = 1;
nodes = (
"881 627 OFFCURVE",
"931 638 OFFCURVE",
"983 638 CURVE SMOOTH",
"991 638 OFFCURVE",
"1030 638 OFFCURVE",
"1031 653 CURVE SMOOTH",
"1031 674 OFFCURVE",
"911 677 OFFCURVE",
"893 677 CURVE SMOOTH",
"874 677 OFFCURVE",
"797 670 OFFCURVE",
"796 640 CURVE SMOOTH",
"796 626 OFFCURVE",
"821 627 OFFCURVE",
"830 627 CURVE SMOOTH"
);
}
);
width = 791;
}
);
note = Amacron;
unicode = 0100;
},
{
color = 4;
glyphname = Aogonek;
lastChange = "2021-04-21 04:42:14 +0000";
layers = (
{
hints = (
{
horizontal = 1;
place = "{-276, 45}";
type = Stem;
},
{
horizontal = 1;
place = "{-67, 52}";
type = Stem;
},
{
horizontal = 1;
place = "{168, 314}";
type = Stem;
},
{
horizontal = 1;
place = "{587, -20}";
target = down;
type = TopGhost;
},
{
place = "{9, 42}";
type = Stem;
},
{
place = "{585, 56}";
type = Stem;
},
{
place = "{654, 43}";
type = Stem;
},
{
horizontal = 1;
place = "{-61, 33}";
type = Stem;
}
);
layerId = "A9A9B55F-A222-44B0-A0B6-968BE501F3F8";
paths = (
{
closed = 1;
nodes = (
"738 360 OFFCURVE",
"716 290 OFFCURVE",
"696 223 CURVE",
"666 229 OFFCURVE",
"630 232 OFFCURVE",
"599 234 CURVE",
"653 295 OFFCURVE",
"713 362 OFFCURVE",
"766 424 CURVE"
);
},
{
closed = 1;
nodes = (
"751 192 OFFCURVE",
"768 182 OFFCURVE",
"779 182 CURVE SMOOTH",
"788 182 OFFCURVE",
"795 179 OFFCURVE",
"795 191 CURVE SMOOTH",
"796 207 OFFCURVE",
"757 212 OFFCURVE",
"745 215 CURVE",
"786 338 OFFCURVE",
"840 452 OFFCURVE",
"912 558 CURVE",
"914 562 OFFCURVE",
"918 567 OFFCURVE",
"918 572 CURVE SMOOTH",
"919 582 OFFCURVE",
"912 587 OFFCURVE",
"903 587 CURVE SMOOTH",
"888 587 OFFCURVE",
"841 562 OFFCURVE",
"833 549 CURVE SMOOTH",
"817 527 OFFCURVE",
"804 501 OFFCURVE",
"792 477 CURVE",
"787 481 OFFCURVE",
"781 482 OFFCURVE",
"776 482 CURVE SMOOTH",
"770 482 OFFCURVE",
"765 479 OFFCURVE",
"761 475 CURVE SMOOTH",
"687 395 OFFCURVE",
"605 290 OFFCURVE",
"552 238 CURVE",
"418 239 OFFCURVE",
"180 248 OFFCURVE",
"71 153 CURVE SMOOTH",
"39 125 OFFCURVE",
"12 87 OFFCURVE",
"10 41 CURVE SMOOTH",
"7 -43 OFFCURVE",
"91 -67 OFFCURVE",
"153 -67 CURVE SMOOTH",
"309 -67 OFFCURVE",
"460 83 OFFCURVE",
"570 202 CURVE",
"595 204 OFFCURVE",
"652 208 OFFCURVE",
"692 203 CURVE",
"675 143 OFFCURVE",
"656 70 OFFCURVE",
"654 8 CURVE SMOOTH",
"653 -28 OFFCURVE",
"662 -61 OFFCURVE",
"700 -61 CURVE SMOOTH",
"715 -61 OFFCURVE",
"751 -47 OFFCURVE",
"773 -24 CURVE SMOOTH",
"780 -16 OFFCURVE",
"774 -2 OFFCURVE",
"767 -9 CURVE SMOOTH",
"754 -21 OFFCURVE",
"737 -32 OFFCURVE",
"723 -34 CURVE SMOOTH",
"700 -37 OFFCURVE",
"696 -28 OFFCURVE",
"696 -1 CURVE SMOOTH",
"699 61 OFFCURVE",
"721 135 OFFCURVE",
"739 194 CURVE"
);
},
{
closed = 1;
nodes = (
"410 102 OFFCURVE",
"258 -27 OFFCURVE",
"118 -29 CURVE SMOOTH",
"85 -30 OFFCURVE",
"30 -19 OFFCURVE",
"34 28 CURVE SMOOTH",
"53 191 OFFCURVE",
"407 202 OFFCURVE",
"519 204 CURVE"
);
},
{
closed = 1;
nodes = (
"766 -18 OFFCURVE",
"762 -21 OFFCURVE",
"758 -21 CURVE",
"709 -42 OFFCURVE",
"597 -150 OFFCURVE",
"595 -212 CURVE SMOOTH",
"594 -242 OFFCURVE",
"615 -257 OFFCURVE",
"640 -257 CURVE SMOOTH",
"691 -257 OFFCURVE",
"731 -221 OFFCURVE",
"735 -201 CURVE SMOOTH",
"737 -192 OFFCURVE",
"728 -195 OFFCURVE",
"725 -197 CURVE",
"712 -210 OFFCURVE",
"692 -227 OFFCURVE",
"674 -227 CURVE SMOOTH",
"651 -227 OFFCURVE",
"645 -212 OFFCURVE",
"645 -194 CURVE SMOOTH",
"647 -148 OFFCURVE",
"711 -73 OFFCURVE",
"764 -31 CURVE"
);
}
);
width = 791;
}
);
note = Aogonek;
unicode = 0104;
},
{
color = 4;
glyphname = Aring;
lastChange = "2021-04-21 04:42:14 +0000";
layers = (
{
hints = (
{
horizontal = 1;
place = "{-61, 33}";
type = Stem;
},
{
horizontal = 1;
place = "{168, 314}";
type = Stem;
},
{
horizontal = 1;
place = "{511, 32}";
type = Stem;
},
{
horizontal = 1;
place = "{587, -20}";
target = down;
type = TopGhost;
},
{
horizontal = 1;
place = "{589, 31}";
type = Stem;
},
{
horizontal = 1;
place = "{638, 31}";
type = Stem;
},
{
place = "{9, 42}";
type = Stem;
},
{
place = "{654, 43}";
type = Stem;
},
{
place = "{743, 54}";
type = Stem;
},
{
place = "{866, 38}";
type = Stem;
},
{
place = "{776, 54}";
type = Stem;
}
);
layerId = "A9A9B55F-A222-44B0-A0B6-968BE501F3F8";
paths = (
{
closed = 1;
nodes = (
"751 192 OFFCURVE",
"768 182 OFFCURVE",
"779 182 CURVE SMOOTH",
"788 182 OFFCURVE",
"795 179 OFFCURVE",
"795 191 CURVE SMOOTH",
"796 207 OFFCURVE",
"757 212 OFFCURVE",
"745 215 CURVE",
"775 305 OFFCURVE",
"821 407 OFFCURVE",
"868 489 CURVE",
"907 502 OFFCURVE",
"945 538 OFFCURVE",
"947 583 CURVE SMOOTH",
"948 617 OFFCURVE",
"925 641 OFFCURVE",
"895 641 CURVE SMOOTH",
"871 641 OFFCURVE",
"848 631 OFFCURVE",
"833 608 CURVE",
"804 599 OFFCURVE",
"785 558 OFFCURVE",
"784 527 CURVE SMOOTH",
"783 511 OFFCURVE",
"788 500 OFFCURVE",
"797 493 CURVE",
"795 489 OFFCURVE",
"794 482 OFFCURVE",
"792 477 CURVE",
"787 481 OFFCURVE",
"781 482 OFFCURVE",
"776 482 CURVE SMOOTH",
"770 482 OFFCURVE",
"765 479 OFFCURVE",
"761 475 CURVE SMOOTH",
"687 395 OFFCURVE",
"605 290 OFFCURVE",
"552 238 CURVE",
"418 239 OFFCURVE",
"180 248 OFFCURVE",
"71 153 CURVE SMOOTH",
"39 125 OFFCURVE",
"12 87 OFFCURVE",
"10 41 CURVE SMOOTH",
"7 -43 OFFCURVE",
"91 -67 OFFCURVE",
"153 -67 CURVE SMOOTH",
"309 -67 OFFCURVE",
"460 83 OFFCURVE",
"570 202 CURVE",
"595 204 OFFCURVE",
"652 208 OFFCURVE",
"692 203 CURVE",
"675 143 OFFCURVE",
"656 70 OFFCURVE",
"654 8 CURVE SMOOTH",
"653 -28 OFFCURVE",
"662 -61 OFFCURVE",
"700 -61 CURVE SMOOTH",
"715 -61 OFFCURVE",
"751 -47 OFFCURVE",
"773 -24 CURVE SMOOTH",
"780 -16 OFFCURVE",
"774 -2 OFFCURVE",
"767 -9 CURVE SMOOTH",
"754 -21 OFFCURVE",
"737 -32 OFFCURVE",
"723 -34 CURVE SMOOTH",
"700 -37 OFFCURVE",
"696 -28 OFFCURVE",
"696 -1 CURVE SMOOTH",
"699 61 OFFCURVE",
"721 135 OFFCURVE",
"739 194 CURVE"
);
},
{
closed = 1;
nodes = (
"410 102 OFFCURVE",
"258 -27 OFFCURVE",
"118 -29 CURVE SMOOTH",
"85 -30 OFFCURVE",
"30 -19 OFFCURVE",
"34 28 CURVE SMOOTH",
"53 191 OFFCURVE",
"407 202 OFFCURVE",
"519 204 CURVE"
);
},
{
closed = 1;
nodes = (
"738 360 OFFCURVE",
"716 290 OFFCURVE",
"696 223 CURVE",
"666 229 OFFCURVE",
"630 232 OFFCURVE",
"599 234 CURVE",
"653 295 OFFCURVE",
"713 362 OFFCURVE",
"766 424 CURVE"
);
},
{
closed = 1;
nodes = (
"906 611 OFFCURVE",
"907 595 OFFCURVE",
"907 581 CURVE SMOOTH",
"906 549 OFFCURVE",
"877 514 OFFCURVE",
"848 514 CURVE SMOOTH",
"839 514 OFFCURVE",
"838 520 OFFCURVE",
"838 528 CURVE SMOOTH",
"839 554 OFFCURVE",
"866 579 OFFCURVE",
"878 601 CURVE",
"871 605 LINE",
"877 608 OFFCURVE",
"883 611 OFFCURVE",
"890 611 CURVE SMOOTH"
);
}
);
width = 791;
}
);
note = Aring;
unicode = 00C5;
},
{
color = 4;
glyphname = Atilde;
lastChange = "2021-04-21 04:58:09 +0000";
layers = (
{
hints = (
{
horizontal = 1;
place = "{-61, 33}";
type = Stem;
},
{
horizontal = 1;
place = "{168, 314}";
type = Stem;
},
{
horizontal = 1;
place = "{648, 46}";
type = Stem;
},
{
place = "{9, 42}";
type = Stem;
},
{
place = "{654, 43}";
type = Stem;
},
{
horizontal = 1;
place = "{587, -20}";
target = down;
type = TopGhost;
}
);
layerId = "A9A9B55F-A222-44B0-A0B6-968BE501F3F8";
paths = (
{
closed = 1;
nodes = (
"1029 686 OFFCURVE",
"1027 688 OFFCURVE",
"1019 688 CURVE",
"1006 673 OFFCURVE",
"991 666 OFFCURVE",
"974 666 CURVE SMOOTH",
"963 666 OFFCURVE",
"947 670 OFFCURVE",
"924 677 CURVE SMOOTH",
"901 683 OFFCURVE",
"884 687 OFFCURVE",
"871 687 CURVE SMOOTH",
"856 687 OFFCURVE",
"841 684 OFFCURVE",
"828 677 CURVE SMOOTH",
"796 659 OFFCURVE",
"779 645 OFFCURVE",
"779 634 CURVE SMOOTH",
"779 632 OFFCURVE",
"779 631 OFFCURVE",
"782 628 CURVE",
"785 628 OFFCURVE",
"795 632 OFFCURVE",
"808 642 CURVE SMOOTH",
"820 650 OFFCURVE",
"832 654 OFFCURVE",
"843 654 CURVE SMOOTH",
"855 654 OFFCURVE",
"872 649 OFFCURVE",
"896 640 CURVE SMOOTH",
"920 631 OFFCURVE",
"938 627 OFFCURVE",
"950 627 CURVE SMOOTH",
"963 627 OFFCURVE",
"974 630 OFFCURVE",
"983 636 CURVE SMOOTH",
"1015 654 OFFCURVE",
"1028 669 OFFCURVE",
"1029 681 CURVE SMOOTH"
);
},
{
closed = 1;
nodes = (
"751 192 OFFCURVE",
"768 182 OFFCURVE",
"779 182 CURVE SMOOTH",
"788 182 OFFCURVE",
"795 179 OFFCURVE",
"795 191 CURVE SMOOTH",
"796 207 OFFCURVE",
"757 212 OFFCURVE",
"745 215 CURVE",
"786 338 OFFCURVE",
"840 452 OFFCURVE",
"912 558 CURVE",
"914 562 OFFCURVE",
"918 567 OFFCURVE",
"918 572 CURVE SMOOTH",
"919 582 OFFCURVE",
"912 587 OFFCURVE",
"903 587 CURVE SMOOTH",
"888 587 OFFCURVE",
"841 562 OFFCURVE",
"833 549 CURVE SMOOTH",
"817 527 OFFCURVE",
"804 501 OFFCURVE",
"792 477 CURVE",
"787 481 OFFCURVE",
"781 482 OFFCURVE",
"776 482 CURVE SMOOTH",
"770 482 OFFCURVE",
"765 479 OFFCURVE",
"761 475 CURVE SMOOTH",
"687 395 OFFCURVE",
"605 290 OFFCURVE",
"552 238 CURVE",
"418 239 OFFCURVE",
"180 248 OFFCURVE",
"71 153 CURVE SMOOTH",
"39 125 OFFCURVE",
"12 87 OFFCURVE",
"10 41 CURVE SMOOTH",
"7 -43 OFFCURVE",
"91 -67 OFFCURVE",
"153 -67 CURVE SMOOTH",
"309 -67 OFFCURVE",
"460 83 OFFCURVE",
"570 202 CURVE",
"595 204 OFFCURVE",
"652 208 OFFCURVE",
"692 203 CURVE",
"675 143 OFFCURVE",
"656 70 OFFCURVE",
"654 8 CURVE SMOOTH",
"653 -28 OFFCURVE",
"662 -61 OFFCURVE",
"700 -61 CURVE SMOOTH",
"715 -61 OFFCURVE",
"751 -47 OFFCURVE",
"773 -24 CURVE SMOOTH",
"780 -16 OFFCURVE",
"774 -2 OFFCURVE",
"767 -9 CURVE SMOOTH",
"754 -21 OFFCURVE",
"737 -32 OFFCURVE",
"723 -34 CURVE SMOOTH",
"700 -37 OFFCURVE",
"696 -28 OFFCURVE",
"696 -1 CURVE SMOOTH",
"699 61 OFFCURVE",
"721 135 OFFCURVE",
"739 194 CURVE"
);
},
{
closed = 1;
nodes = (
"412 102 OFFCURVE",
"258 -27 OFFCURVE",
"118 -29 CURVE SMOOTH",
"85 -30 OFFCURVE",
"30 -19 OFFCURVE",
"34 28 CURVE SMOOTH",
"53 191 OFFCURVE",
"407 202 OFFCURVE",
"519 204 CURVE"
);
},
{
closed = 1;
nodes = (
"738 360 OFFCURVE",
"716 290 OFFCURVE",
"696 223 CURVE",
"666 229 OFFCURVE",
"630 232 OFFCURVE",
"599 234 CURVE",
"653 295 OFFCURVE",
"713 362 OFFCURVE",
"766 424 CURVE"
);
}
);
width = 791;
}
);
note = Atilde;
unicode = 00C3;
},
{
color = 4;
glyphname = AE;
lastChange = "2021-04-21 04:42:14 +0000";
layers = (
{
hints = (
{
horizontal = 1;
place = "{-67, 59}";
type = Stem;
},
{
horizontal = 1;
place = "{479, 39}";
type = Stem;
},
{
place = "{7, 46}";
type = Stem;
},
{
place = "{608, 63}";
type = Stem;
}
);
layerId = "A9A9B55F-A222-44B0-A0B6-968BE501F3F8";
paths = (
{
closed = 1;
nodes = (
"989 449 OFFCURVE",
"970 489 OFFCURVE",
"1175 489 CURVE SMOOTH",
"1198 489 OFFCURVE",
"1245 480 OFFCURVE",
"1266 471 CURVE",
"1276 471 OFFCURVE",
"1301 474 OFFCURVE",
"1302 489 CURVE SMOOTH",
"1303 522 OFFCURVE",
"1180 518 OFFCURVE",
"1159 518 CURVE SMOOTH",
"906 518 OFFCURVE",
"789 483 OFFCURVE",
"595 288 CURVE",
"465 277 OFFCURVE",
"15 239 OFFCURVE",
"8 39 CURVE SMOOTH",
"5 -45 OFFCURVE",
"89 -67 OFFCURVE",
"150 -67 CURVE SMOOTH",
"331 -67 OFFCURVE",
"476 111 OFFCURVE",
"600 242 CURVE",
"639 247 OFFCURVE",
"678 249 OFFCURVE",
"717 251 CURVE",
"670 200 OFFCURVE",
"604 121 OFFCURVE",
"601 46 CURVE SMOOTH",
"599 -27 OFFCURVE",
"679 -35 OFFCURVE",
"731 -35 CURVE SMOOTH",
"824 -35 OFFCURVE",
"1055 21 OFFCURVE",
"1118 96 CURVE",
"1119 103 OFFCURVE",
"1114 114 OFFCURVE",
"1106 114 CURVE SMOOTH",
"1105 114 OFFCURVE",
"1015 61 OFFCURVE",
"1004 57 CURVE SMOOTH",
"924 25 OFFCURVE",
"850 8 OFFCURVE",
"765 8 CURVE SMOOTH",
"735 8 OFFCURVE",
"671 15 OFFCURVE",
"673 61 CURVE SMOOTH",
"674 91 OFFCURVE",
"698 135 OFFCURVE",
"713 161 CURVE SMOOTH",
"730 190 OFFCURVE",
"765 239 OFFCURVE",
"792 252 CURVE SMOOTH",
"832 271 OFFCURVE",
"1004 270 OFFCURVE",
"1061 280 CURVE SMOOTH",
"1071 281 OFFCURVE",
"1097 286 OFFCURVE",
"1100 298 CURVE",
"1092 307 LINE",
"1073 313 OFFCURVE",
"1049 311 OFFCURVE",
"1029 311 CURVE SMOOTH",
"965 311 OFFCURVE",
"902 303 OFFCURVE",
"839 303 CURVE"
);
},
{
closed = 1;
nodes = (
"891 423 OFFCURVE",
"810 353 OFFCURVE",
"755 295 CURVE",
"719 294 OFFCURVE",
"683 292 OFFCURVE",
"646 289 CURVE",
"712 358 OFFCURVE",
"857 466 OFFCURVE",
"946 481 CURVE"
);
},
{
closed = 1;
nodes = (
"31 182 OFFCURVE",
"447 227 OFFCURVE",
"543 239 CURVE",
"427 114 OFFCURVE",
"298 -37 OFFCURVE",
"131 -37 CURVE SMOOTH",
"99 -37 OFFCURVE",
"24 -21 OFFCURVE",
"26 30 CURVE SMOOTH"
);
}
);
width = 1089;
}
);
note = AE;
unicode = 00C6;
},
{
color = 4;
glyphname = AEacute;
lastChange = "2021-04-21 04:42:14 +0000";
layers = (
{
hints = (
{
horizontal = 1;
place = "{-63, 45}";
type = Stem;
},
{
horizontal = 1;
place = "{258, 38}";
type = Stem;
},
{
horizontal = 1;
place = "{479, 39}";
type = Stem;
},
{
place = "{13, 35}";
type = Stem;
},
{
place = "{615, 46}";
type = Stem;
}
);
layerId = "A9A9B55F-A222-44B0-A0B6-968BE501F3F8";
paths = (
{
closed = 1;
nodes = (
"989 449 OFFCURVE",
"970 489 OFFCURVE",
"1175 489 CURVE SMOOTH",
"1198 489 OFFCURVE",
"1245 480 OFFCURVE",
"1266 471 CURVE",
"1276 471 OFFCURVE",
"1301 474 OFFCURVE",
"1302 489 CURVE SMOOTH",
"1303 522 OFFCURVE",
"1180 518 OFFCURVE",
"1159 518 CURVE SMOOTH",
"906 518 OFFCURVE",
"789 483 OFFCURVE",
"595 288 CURVE",
"465 277 OFFCURVE",
"15 239 OFFCURVE",
"8 39 CURVE SMOOTH",
"5 -45 OFFCURVE",
"89 -67 OFFCURVE",
"150 -67 CURVE SMOOTH",
"331 -67 OFFCURVE",
"476 111 OFFCURVE",
"600 242 CURVE",
"639 247 OFFCURVE",
"678 249 OFFCURVE",
"717 251 CURVE",
"670 200 OFFCURVE",
"604 121 OFFCURVE",
"601 46 CURVE SMOOTH",
"599 -27 OFFCURVE",
"679 -35 OFFCURVE",
"731 -35 CURVE SMOOTH",
"824 -35 OFFCURVE",
"1055 21 OFFCURVE",
"1118 96 CURVE",
"1119 103 OFFCURVE",
"1114 114 OFFCURVE",
"1106 114 CURVE SMOOTH",
"1105 114 OFFCURVE",
"1015 61 OFFCURVE",
"1004 57 CURVE SMOOTH",
"924 25 OFFCURVE",
"850 8 OFFCURVE",
"765 8 CURVE SMOOTH",
"735 8 OFFCURVE",
"671 15 OFFCURVE",
"673 61 CURVE SMOOTH",
"674 91 OFFCURVE",
"698 135 OFFCURVE",
"713 161 CURVE SMOOTH",
"730 190 OFFCURVE",
"765 239 OFFCURVE",
"792 252 CURVE SMOOTH",
"832 271 OFFCURVE",
"1004 270 OFFCURVE",
"1061 280 CURVE SMOOTH",
"1071 281 OFFCURVE",
"1097 286 OFFCURVE",
"1100 298 CURVE",
"1092 307 LINE",
"1073 313 OFFCURVE",
"1049 311 OFFCURVE",
"1029 311 CURVE SMOOTH",
"965 311 OFFCURVE",
"902 303 OFFCURVE",
"839 303 CURVE"
);
},
{
closed = 1;
nodes = (
"891 423 OFFCURVE",
"810 353 OFFCURVE",
"755 295 CURVE",
"719 294 OFFCURVE",
"683 292 OFFCURVE",
"646 289 CURVE",
"712 358 OFFCURVE",
"857 466 OFFCURVE",
"946 481 CURVE"
);
},
{
closed = 1;
nodes = (
"31 182 OFFCURVE",
"447 227 OFFCURVE",
"543 239 CURVE",
"427 114 OFFCURVE",
"298 -37 OFFCURVE",
"131 -37 CURVE SMOOTH",
"99 -37 OFFCURVE",
"24 -21 OFFCURVE",
"26 30 CURVE SMOOTH"
);
},
{
closed = 1;
nodes = (
"1034 554 OFFCURVE",
"1126 604 OFFCURVE",
"1141 613 CURVE SMOOTH",
"1148 617 OFFCURVE",
"1152 626 OFFCURVE",
"1152 635 CURVE SMOOTH",
"1153 644 OFFCURVE",
"1148 651 OFFCURVE",
"1139 651 CURVE SMOOTH",
"1123 651 OFFCURVE",
"1024 579 OFFCURVE",
"1019 575 CURVE SMOOTH",
"1016 573 OFFCURVE",
"1013 569 OFFCURVE",
"1013 565 CURVE SMOOTH",
"1013 558 OFFCURVE",
"1019 554 OFFCURVE",
"1024 554 CURVE SMOOTH"
);
}
);
width = 1089;
}
);
note = AEacute;
unicode = 01FC;
},
{
color = 4;
glyphname = B;
lastChange = "2021-04-21 04:42:14 +0000";
layers = (
{
hints = (
{
horizontal = 1;
place = "{-68, 35}";
type = Stem;
},
{
horizontal = 1;
place = "{302, 211}";
type = Stem;
},
{
horizontal = 1;
place = "{522, 42}";
type = Stem;
},
{
place = "{-5, 61}";
type = Stem;
},
{
place = "{135, 42}";
type = Stem;
},
{
place = "{670, 51}";
type = Stem;
}
);
layerId = "A9A9B55F-A222-44B0-A0B6-968BE501F3F8";
paths = (
{
closed = 1;
nodes = (
"562 331 OFFCURVE",
"734 378 OFFCURVE",
"736 454 CURVE SMOOTH",
"740 550 OFFCURVE",
"456 564 OFFCURVE",
"393 564 CURVE SMOOTH",
"338 564 OFFCURVE",
"49 555 OFFCURVE",
"46 470 CURVE SMOOTH",
"46 460 OFFCURVE",
"52 456 OFFCURVE",
"60 456 CURVE SMOOTH",
"71 456 OFFCURVE",
"124 476 OFFCURVE",
"140 481 CURVE SMOOTH",
"240 509 OFFCURVE",
"324 526 OFFCURVE",
"426 526 CURVE SMOOTH",
"464 526 OFFCURVE",
"688 520 OFFCURVE",
"686 463 CURVE SMOOTH",
"685 450 OFFCURVE",
"670 437 OFFCURVE",
"661 430 CURVE SMOOTH",
"588 367 OFFCURVE",
"495 364 OFFCURVE",
"411 347 CURVE SMOOTH",
"396 344 OFFCURVE",
"373 339 OFFCURVE",
"373 318 CURVE SMOOTH",
"372 298 OFFCURVE",
"406 303 OFFCURVE",
"418 303 CURVE SMOOTH",
"481 303 OFFCURVE",
"661 280 OFFCURVE",
"658 183 CURVE SMOOTH",
"657 156 OFFCURVE",
"641 132 OFFCURVE",
"625 113 CURVE",
"527 189 OFFCURVE",
"387 208 OFFCURVE",
"267 211 CURVE",
"320 300 OFFCURVE",
"378 386 OFFCURVE",
"443 464 CURVE",
"452 473 OFFCURVE",
"466 487 OFFCURVE",
"469 499 CURVE",
"467 511 OFFCURVE",
"455 513 OFFCURVE",
"447 513 CURVE SMOOTH",
"423 513 OFFCURVE",
"402 509 OFFCURVE",
"385 489 CURVE SMOOTH",
"324 420 OFFCURVE",
"259 296 OFFCURVE",
"215 211 CURVE",
"136 205 OFFCURVE",
"0 165 OFFCURVE",
"-3 55 CURVE SMOOTH",
"-6 -42 OFFCURVE",
"162 -68 OFFCURVE",
"226 -68 CURVE SMOOTH",
"358 -68 OFFCURVE",
"529 -33 OFFCURVE",
"641 56 CURVE",
"652 44 OFFCURVE",
"665 23 OFFCURVE",
"675 6 CURVE SMOOTH",
"680 -5 OFFCURVE",
"689 5 OFFCURVE",
"689 18 CURVE SMOOTH",
"690 34 OFFCURVE",
"673 65 OFFCURVE",
"663 76 CURVE",
"690 102 OFFCURVE",
"718 138 OFFCURVE",
"720 179 CURVE SMOOTH",
"723 268 OFFCURVE",
"585 318 OFFCURVE",
"503 325 CURVE"
);
},
{
closed = 1;
nodes = (
"169 -36 OFFCURVE",
"176 -18 OFFCURVE",
"176 -7 CURVE SMOOTH",
"178 40 OFFCURVE",
"214 115 OFFCURVE",
"246 174 CURVE",
"258 175 LINE SMOOTH",
"372 181 OFFCURVE",
"513 161 OFFCURVE",
"610 88 CURVE",
"506 -8 OFFCURVE",
"353 -44 OFFCURVE",
"227 -44 CURVE SMOOTH",
"205 -44 OFFCURVE",
"182 -41 OFFCURVE",
"160 -36 CURVE"
);
},
{
closed = 1;
nodes = (
"113 -22 OFFCURVE",
"57 1 OFFCURVE",
"58 47 CURVE SMOOTH",
"61 129 OFFCURVE",
"135 158 OFFCURVE",
"193 168 CURVE",
"174 128 OFFCURVE",
"136 50 OFFCURVE",
"135 7 CURVE SMOOTH",
"134 -4 OFFCURVE",
"137 -24 OFFCURVE",
"144 -31 CURVE"
);
}
);
width = 702;
}
);
note = B;
unicode = 0042;
},
{
color = 4;
glyphname = C;
lastChange = "2021-04-21 04:42:14 +0000";
layers = (
{
hints = (
{
horizontal = 1;
place = "{-53, 47}";
type = Stem;
},
{
horizontal = 1;
place = "{275, 43}";
type = Stem;
},
{
horizontal = 1;
place = "{507, 38}";
type = Stem;
},
{
place = "{49, 71}";
type = Stem;
},
{
place = "{452, 38}";
type = Stem;
},
{
place = "{742, 44}";
type = Stem;
}
);
layerId = "A9A9B55F-A222-44B0-A0B6-968BE501F3F8";
paths = (
{
closed = 1;
nodes = (
"632 276 OFFCURVE",
"797 340 OFFCURVE",
"802 462 CURVE SMOOTH",
"804 537 OFFCURVE",
"724 546 OFFCURVE",
"672 546 CURVE SMOOTH",
"569 546 OFFCURVE",
"464 514 OFFCURVE",
"371 462 CURVE SMOOTH",
"251 398 OFFCURVE",
"57 248 OFFCURVE",
"52 87 CURVE SMOOTH",
"48 -26 OFFCURVE",
"162 -53 OFFCURVE",
"243 -53 CURVE SMOOTH",
"365 -53 OFFCURVE",
"597 18 OFFCURVE",
"680 132 CURVE SMOOTH",
"685 139 OFFCURVE",
"681 148 OFFCURVE",
"664 141 CURVE",
"642 116 OFFCURVE",
"596 82 OFFCURVE",
"580 72 CURVE SMOOTH",
"478 9 OFFCURVE",
"372 -20 OFFCURVE",
"256 -20 CURVE SMOOTH",
"190 -20 OFFCURVE",
"120 18 OFFCURVE",
"123 106 CURVE SMOOTH",
"129 265 OFFCURVE",
"424 507 OFFCURVE",
"673 507 CURVE SMOOTH",
"747 507 OFFCURVE",
"794 466 OFFCURVE",
"741 392 CURVE SMOOTH",
"701 336 OFFCURVE",
"617 300 OFFCURVE",
"557 300 CURVE SMOOTH",
"507 300 OFFCURVE",
"492 318 OFFCURVE",
"493 348 CURVE SMOOTH",
"493 360 OFFCURVE",
"503 381 OFFCURVE",
"482 381 CURVE SMOOTH",
"473 381 OFFCURVE",
"464 356 OFFCURVE",
"463 338 CURVE SMOOTH",
"461 285 OFFCURVE",
"510 276 OFFCURVE",
"548 276 CURVE SMOOTH"
);
}
);
width = 707;
}
);
note = C;
unicode = 0043;
},
{
color = 4;
glyphname = Cacute;
lastChange = "2021-04-21 04:42:14 +0000";
layers = (
{
hints = (
{
horizontal = 1;
place = "{-53, 47}";
type = Stem;
},
{
horizontal = 1;
place = "{276, 43}";
type = Stem;
},
{
horizontal = 1;
place = "{507, 38}";
type = Stem;
},
{
place = "{49, 71}";
type = Stem;
},
{
place = "{452, 38}";
type = Stem;
},
{
place = "{742, 44}";
type = Stem;
}
);
layerId = "A9A9B55F-A222-44B0-A0B6-968BE501F3F8";
paths = (
{
closed = 1;
nodes = (
"632 276 OFFCURVE",
"797 340 OFFCURVE",
"802 462 CURVE SMOOTH",
"804 537 OFFCURVE",
"724 546 OFFCURVE",
"672 546 CURVE SMOOTH",
"569 546 OFFCURVE",
"464 514 OFFCURVE",
"371 462 CURVE SMOOTH",
"251 398 OFFCURVE",
"57 248 OFFCURVE",
"52 87 CURVE SMOOTH",
"48 -26 OFFCURVE",
"162 -53 OFFCURVE",
"243 -53 CURVE SMOOTH",
"365 -53 OFFCURVE",
"597 18 OFFCURVE",
"680 132 CURVE SMOOTH",
"685 139 OFFCURVE",
"681 148 OFFCURVE",
"664 141 CURVE",
"642 116 OFFCURVE",
"596 82 OFFCURVE",
"580 72 CURVE SMOOTH",
"478 9 OFFCURVE",
"372 -20 OFFCURVE",
"256 -20 CURVE SMOOTH",
"190 -20 OFFCURVE",
"120 18 OFFCURVE",
"123 106 CURVE SMOOTH",
"129 265 OFFCURVE",
"424 507 OFFCURVE",
"673 507 CURVE SMOOTH",
"747 507 OFFCURVE",
"794 466 OFFCURVE",
"741 392 CURVE SMOOTH",
"701 336 OFFCURVE",
"617 300 OFFCURVE",
"557 300 CURVE SMOOTH",
"507 300 OFFCURVE",
"492 318 OFFCURVE",
"493 348 CURVE SMOOTH",
"493 360 OFFCURVE",
"503 381 OFFCURVE",
"482 381 CURVE SMOOTH",
"473 381 OFFCURVE",
"464 356 OFFCURVE",
"463 338 CURVE SMOOTH",
"461 285 OFFCURVE",
"510 276 OFFCURVE",
"548 276 CURVE SMOOTH"
);
},
{
closed = 1;
nodes = (
"689 595 OFFCURVE",
"781 645 OFFCURVE",
"796 654 CURVE SMOOTH",
"803 658 OFFCURVE",
"807 667 OFFCURVE",
"807 676 CURVE SMOOTH",
"808 685 OFFCURVE",
"803 692 OFFCURVE",
"794 692 CURVE SMOOTH",
"778 692 OFFCURVE",
"679 620 OFFCURVE",
"674 616 CURVE SMOOTH",
"671 614 OFFCURVE",
"668 610 OFFCURVE",
"668 606 CURVE SMOOTH",
"668 599 OFFCURVE",
"674 595 OFFCURVE",
"679 595 CURVE SMOOTH"
);
}
);
width = 707;
}
);
note = Cacute;
unicode = 0106;
},
{
color = 4;
glyphname = Ccaron;
lastChange = "2021-04-21 04:42:14 +0000";
layers = (
{
hints = (
{
horizontal = 1;
place = "{-53, 47}";
type = Stem;
},
{
horizontal = 1;
place = "{276, 43}";
type = Stem;
},
{
horizontal = 1;
place = "{507, 38}";
type = Stem;
},
{
place = "{49, 71}";
type = Stem;
},
{
place = "{452, 38}";
type = Stem;
},
{
place = "{742, 44}";
type = Stem;
}
);
layerId = "A9A9B55F-A222-44B0-A0B6-968BE501F3F8";
paths = (
{
closed = 1;
nodes = (
"632 276 OFFCURVE",
"797 340 OFFCURVE",
"802 462 CURVE SMOOTH",
"804 537 OFFCURVE",
"724 546 OFFCURVE",
"672 546 CURVE SMOOTH",
"569 546 OFFCURVE",
"464 514 OFFCURVE",
"371 462 CURVE SMOOTH",
"251 398 OFFCURVE",
"57 248 OFFCURVE",
"52 87 CURVE SMOOTH",
"48 -26 OFFCURVE",
"162 -53 OFFCURVE",
"243 -53 CURVE SMOOTH",
"365 -53 OFFCURVE",
"597 18 OFFCURVE",
"680 132 CURVE SMOOTH",
"685 139 OFFCURVE",
"681 148 OFFCURVE",
"664 141 CURVE",
"642 116 OFFCURVE",
"596 82 OFFCURVE",
"580 72 CURVE SMOOTH",
"478 9 OFFCURVE",
"372 -20 OFFCURVE",
"256 -20 CURVE SMOOTH",
"190 -20 OFFCURVE",
"120 18 OFFCURVE",
"123 106 CURVE SMOOTH",
"129 265 OFFCURVE",
"424 507 OFFCURVE",
"673 507 CURVE SMOOTH",
"747 507 OFFCURVE",
"794 466 OFFCURVE",
"741 392 CURVE SMOOTH",
"701 336 OFFCURVE",
"617 300 OFFCURVE",
"557 300 CURVE SMOOTH",
"507 300 OFFCURVE",
"492 318 OFFCURVE",
"493 348 CURVE SMOOTH",
"493 360 OFFCURVE",
"503 381 OFFCURVE",
"482 381 CURVE SMOOTH",
"473 381 OFFCURVE",
"464 356 OFFCURVE",
"463 338 CURVE SMOOTH",
"461 285 OFFCURVE",
"510 276 OFFCURVE",
"548 276 CURVE SMOOTH"
);
},
{
closed = 1;
nodes = (
"838 644 LINE",
"840 652 LINE",
"840 656 OFFCURVE",
"833 660 OFFCURVE",
"830 660 CURVE SMOOTH",
"816 660 OFFCURVE",
"757 623 OFFCURVE",
"740 614 CURVE",
"728 628 OFFCURVE",
"689 662 OFFCURVE",
"670 662 CURVE SMOOTH",
"665 662 OFFCURVE",
"655 659 OFFCURVE",
"655 652 CURVE SMOOTH",
"655 645 OFFCURVE",
"718 579 OFFCURVE",
"724 579 CURVE SMOOTH",
"740 579 OFFCURVE",
"826 632 OFFCURVE",
"838 645 CURVE"
);
}
);
width = 707;
}
);
note = Ccaron;
unicode = 010C;
},
{
color = 4;
glyphname = Ccedilla;
lastChange = "2021-04-21 04:42:14 +0000";
layers = (
{
hints = (
{
horizontal = 1;
place = "{-53, 56}";
type = Stem;
},
{
horizontal = 1;
place = "{275, 43}";
type = Stem;
},
{
horizontal = 1;
place = "{506, 40}";
type = Stem;
},
{
place = "{-12, 65}";
type = Stem;
},
{
place = "{107, 52}";
type = Stem;
},
{
place = "{166, 59}";
type = Stem;
},
{
place = "{391, 38}";
type = Stem;
},
{
place = "{682, 43}";
type = Stem;
},
{
horizontal = 1;
place = "{-53, 47}";
type = Stem;
},
{
horizontal = 1;
place = "{507, 38}";
type = Stem;
},
{
place = "{49, 71}";
type = Stem;
},
{
place = "{452, 38}";
type = Stem;
},
{
place = "{742, 44}";
type = Stem;
}
);
layerId = "A9A9B55F-A222-44B0-A0B6-968BE501F3F8";
paths = (
{
closed = 1;
nodes = (
"632 276 OFFCURVE",
"797 340 OFFCURVE",
"802 462 CURVE SMOOTH",
"804 537 OFFCURVE",
"724 546 OFFCURVE",
"672 546 CURVE SMOOTH",
"569 546 OFFCURVE",
"464 514 OFFCURVE",
"371 462 CURVE SMOOTH",
"251 398 OFFCURVE",
"57 248 OFFCURVE",
"52 87 CURVE SMOOTH",
"48 -26 OFFCURVE",
"162 -53 OFFCURVE",
"243 -53 CURVE SMOOTH",
"365 -53 OFFCURVE",
"597 18 OFFCURVE",
"680 132 CURVE SMOOTH",
"685 139 OFFCURVE",
"681 148 OFFCURVE",
"664 141 CURVE",
"642 116 OFFCURVE",
"596 82 OFFCURVE",
"580 72 CURVE SMOOTH",
"478 9 OFFCURVE",
"372 -20 OFFCURVE",
"256 -20 CURVE SMOOTH",
"190 -20 OFFCURVE",
"120 18 OFFCURVE",
"123 106 CURVE SMOOTH",
"129 265 OFFCURVE",
"424 507 OFFCURVE",
"673 507 CURVE SMOOTH",
"747 507 OFFCURVE",
"794 466 OFFCURVE",
"741 392 CURVE SMOOTH",
"701 336 OFFCURVE",
"617 300 OFFCURVE",
"557 300 CURVE SMOOTH",
"507 300 OFFCURVE",
"492 318 OFFCURVE",
"493 348 CURVE SMOOTH",
"493 360 OFFCURVE",
"503 381 OFFCURVE",
"482 381 CURVE SMOOTH",
"473 381 OFFCURVE",
"464 356 OFFCURVE",
"463 338 CURVE SMOOTH",
"461 285 OFFCURVE",
"510 276 OFFCURVE",
"548 276 CURVE SMOOTH"
);
},
{
closed = 1;
nodes = (
"181 -161 OFFCURVE",
"173 -145 OFFCURVE",
"155 -126 CURVE SMOOTH",
"137 -108 OFFCURVE",
"133 -91 OFFCURVE",
"133 -85 CURVE SMOOTH",
"133 -74 OFFCURVE",
"133 -67 OFFCURVE",
"141 -58 CURVE SMOOTH",
"149 -49 OFFCURVE",
"159 -44 OFFCURVE",
"175 -41 CURVE",
"173 -37 OFFCURVE",
"170 -36 OFFCURVE",
"164 -36 CURVE SMOOTH",
"144 -36 OFFCURVE",
"126 -43 OFFCURVE",
"113 -57 CURVE SMOOTH",
"100 -70 OFFCURVE",
"94 -85 OFFCURVE",
"93 -102 CURVE SMOOTH",
"93 -112 OFFCURVE",
"95 -127 OFFCURVE",
"111 -146 CURVE SMOOTH",
"127 -164 OFFCURVE",
"133 -176 OFFCURVE",
"134 -183 CURVE SMOOTH",
"136 -196 OFFCURVE",
"128 -223 OFFCURVE",
"106 -228 CURVE",
"35 -237 LINE SMOOTH",
"30 -238 OFFCURVE",
"26 -241 OFFCURVE",
"26 -243 CURVE SMOOTH",
"26 -248 OFFCURVE",
"30 -251 OFFCURVE",
"35 -251 CURVE SMOOTH",
"69 -251 OFFCURVE",
"99 -245 OFFCURVE",
"129 -234 CURVE SMOOTH",
"162 -219 OFFCURVE",
"180 -200 OFFCURVE",
"181 -176 CURVE SMOOTH"
);
}
);
width = 707;
}
);
note = Ccedilla;
unicode = 00C7;
},
{
color = 4;
glyphname = Ccircumflex;
lastChange = "2021-04-21 04:42:14 +0000";
layers = (
{
hints = (
{
horizontal = 1;
place = "{-53, 47}";
type = Stem;
},
{
horizontal = 1;
place = "{276, 43}";
type = Stem;
},
{
horizontal = 1;
place = "{507, 38}";
type = Stem;
},
{
place = "{49, 71}";
type = Stem;
},
{
place = "{452, 38}";
type = Stem;
},
{
place = "{742, 44}";
type = Stem;
},
{
horizontal = 1;
place = "{275, 43}";
type = Stem;
}
);
layerId = "A9A9B55F-A222-44B0-A0B6-968BE501F3F8";
paths = (
{
closed = 1;
nodes = (
"753 642 OFFCURVE",
"725 671 OFFCURVE",
"717 686 CURVE SMOOTH",
"706 705 OFFCURVE",
"684 686 OFFCURVE",
"630 654 CURVE SMOOTH",
"587 627 OFFCURVE",
"558 605 OFFCURVE",
"557 600 CURVE SMOOTH",
"555 595 OFFCURVE",
"557 593 OFFCURVE",
"562 593 CURVE SMOOTH",
"568 593 OFFCURVE",
"605 612 OFFCURVE",
"677 656 CURVE",
"683 646 OFFCURVE",
"697 632 OFFCURVE",
"720 615 CURVE SMOOTH",
"722 614 OFFCURVE",
"743 596 OFFCURVE",
"759 590 CURVE",
"773 581 OFFCURVE",
"796 596 OFFCURVE",
"786 609 CURVE"
);
},
{
closed = 1;
nodes = (
"632 276 OFFCURVE",
"797 340 OFFCURVE",
"802 462 CURVE SMOOTH",
"804 537 OFFCURVE",
"724 546 OFFCURVE",
"672 546 CURVE SMOOTH",
"569 546 OFFCURVE",
"464 514 OFFCURVE",
"371 462 CURVE SMOOTH",
"251 398 OFFCURVE",
"57 248 OFFCURVE",
"52 87 CURVE SMOOTH",
"48 -26 OFFCURVE",
"162 -53 OFFCURVE",
"243 -53 CURVE SMOOTH",
"365 -53 OFFCURVE",
"597 18 OFFCURVE",
"680 132 CURVE SMOOTH",
"685 139 OFFCURVE",
"681 148 OFFCURVE",
"664 141 CURVE",
"642 116 OFFCURVE",
"596 82 OFFCURVE",
"580 72 CURVE SMOOTH",
"478 9 OFFCURVE",
"372 -20 OFFCURVE",
"256 -20 CURVE SMOOTH",
"190 -20 OFFCURVE",
"120 18 OFFCURVE",
"123 106 CURVE SMOOTH",
"129 265 OFFCURVE",
"424 507 OFFCURVE",
"673 507 CURVE SMOOTH",
"747 507 OFFCURVE",
"794 466 OFFCURVE",
"741 392 CURVE SMOOTH",
"701 336 OFFCURVE",
"617 300 OFFCURVE",
"557 300 CURVE SMOOTH",
"507 300 OFFCURVE",
"492 318 OFFCURVE",
"493 348 CURVE SMOOTH",
"493 360 OFFCURVE",
"503 381 OFFCURVE",
"482 381 CURVE SMOOTH",
"473 381 OFFCURVE",
"464 356 OFFCURVE",
"463 338 CURVE SMOOTH",
"461 285 OFFCURVE",
"510 276 OFFCURVE",
"548 276 CURVE SMOOTH"
);
}
);
width = 707;
}
);
note = Ccircumflex;
unicode = 0108;
},
{
color = 4;
glyphname = Cdotaccent;
lastChange = "2021-04-21 04:42:14 +0000";
layers = (
{
hints = (
{
horizontal = 1;
place = "{-53, 47}";
type = Stem;
},
{
horizontal = 1;
place = "{276, 43}";
type = Stem;
},
{
horizontal = 1;
place = "{507, 38}";
type = Stem;
},
{
horizontal = 1;
place = "{587, 67}";
type = Stem;
},
{
place = "{49, 71}";
type = Stem;
},
{
place = "{452, 38}";
type = Stem;
},
{
place = "{665, 74}";
type = Stem;
},
{
place = "{742, 44}";
type = Stem;
},
{
horizontal = 1;
place = "{275, 43}";
type = Stem;
}
);
layerId = "A9A9B55F-A222-44B0-A0B6-968BE501F3F8";
paths = (
{
closed = 1;
nodes = (
"632 276 OFFCURVE",
"797 340 OFFCURVE",
"802 462 CURVE SMOOTH",
"804 537 OFFCURVE",
"724 546 OFFCURVE",
"672 546 CURVE SMOOTH",
"569 546 OFFCURVE",
"464 514 OFFCURVE",
"371 462 CURVE SMOOTH",
"251 398 OFFCURVE",
"57 248 OFFCURVE",
"52 87 CURVE SMOOTH",
"48 -26 OFFCURVE",
"162 -53 OFFCURVE",
"243 -53 CURVE SMOOTH",
"365 -53 OFFCURVE",
"597 18 OFFCURVE",
"680 132 CURVE SMOOTH",
"685 139 OFFCURVE",
"681 148 OFFCURVE",
"664 141 CURVE",
"642 116 OFFCURVE",
"596 82 OFFCURVE",
"580 72 CURVE SMOOTH",
"478 9 OFFCURVE",
"372 -20 OFFCURVE",
"256 -20 CURVE SMOOTH",
"190 -20 OFFCURVE",
"120 18 OFFCURVE",
"123 106 CURVE SMOOTH",
"129 265 OFFCURVE",
"424 507 OFFCURVE",
"673 507 CURVE SMOOTH",
"747 507 OFFCURVE",
"794 466 OFFCURVE",
"741 392 CURVE SMOOTH",
"701 336 OFFCURVE",
"617 300 OFFCURVE",
"557 300 CURVE SMOOTH",
"507 300 OFFCURVE",
"492 318 OFFCURVE",
"493 348 CURVE SMOOTH",
"493 360 OFFCURVE",
"503 381 OFFCURVE",
"482 381 CURVE SMOOTH",
"473 381 OFFCURVE",
"464 356 OFFCURVE",
"463 338 CURVE SMOOTH",
"461 285 OFFCURVE",
"510 276 OFFCURVE",
"548 276 CURVE SMOOTH"
);
},
{
closed = 1;
nodes = (
"697 599 OFFCURVE",
"708 585 OFFCURVE",
"725 585 CURVE SMOOTH",
"742 585 OFFCURVE",
"758 599 OFFCURVE",
"761 617 CURVE SMOOTH",
"764 635 OFFCURVE",
"753 649 OFFCURVE",
"735 649 CURVE SMOOTH",
"717 649 OFFCURVE",
"702 635 OFFCURVE",
"699 617 CURVE SMOOTH"
);
}
);
width = 707;
}
);
note = Cdotaccent;
unicode = 010A;
},
{
color = 4;
glyphname = D;
lastChange = "2021-04-21 04:42:14 +0000";
layers = (
{
hints = (
{
horizontal = 1;
place = "{-69, 36}";
type = Stem;
},
{
horizontal = 1;
place = "{527, 40}";
type = Stem;
},
{
place = "{13, 61}";
type = Stem;
},
{
place = "{153, 42}";
type = Stem;
},
{
place = "{844, 56}";
type = Stem;
}
);
layerId = "A9A9B55F-A222-44B0-A0B6-968BE501F3F8";
paths = (
{
closed = 1;
nodes = (
"775 83 OFFCURVE",
"907 189 OFFCURVE",
"911 311 CURVE SMOOTH",
"919 524 OFFCURVE",
"603 567 OFFCURVE",
"461 567 CURVE SMOOTH",
"406 567 OFFCURVE",
"109 552 OFFCURVE",
"106 471 CURVE SMOOTH",
"105 457 OFFCURVE",
"113 450 OFFCURVE",
"125 450 CURVE SMOOTH",
"140 450 OFFCURVE",
"184 473 OFFCURVE",
"201 480 CURVE SMOOTH",
"290 514 OFFCURVE",
"378 535 OFFCURVE",
"471 535 CURVE SMOOTH",
"587 535 OFFCURVE",
"862 493 OFFCURVE",
"856 316 CURVE SMOOTH",
"852 212 OFFCURVE",
"739 115 OFFCURVE",
"671 71 CURVE",
"590 170 OFFCURVE",
"418 209 OFFCURVE",
"290 212 CURVE",
"342 301 OFFCURVE",
"407 384 OFFCURVE",
"473 462 CURVE SMOOTH",
"480 471 OFFCURVE",
"495 485 OFFCURVE",
"498 497 CURVE",
"497 509 OFFCURVE",
"473 513 OFFCURVE",
"464 513 CURVE SMOOTH",
"440 513 OFFCURVE",
"421 508 OFFCURVE",
"403 489 CURVE SMOOTH",
"361 446 OFFCURVE",
"264 272 OFFCURVE",
"232 211 CURVE",
"153 205 OFFCURVE",
"18 166 OFFCURVE",
"14 55 CURVE SMOOTH",
"11 -45 OFFCURVE",
"199 -69 OFFCURVE",
"265 -69 CURVE SMOOTH",
"407 -69 OFFCURVE",
"542 -50 OFFCURVE",
"673 19 CURVE",
"677 15 OFFCURVE",
"685 5 OFFCURVE",
"690 5 CURVE SMOOTH",
"709 5 OFFCURVE",
"701 24 OFFCURVE",
"696 33 CURVE"
);
},
{
closed = 1;
nodes = (
"190 -35 OFFCURVE",
"195 -27 OFFCURVE",
"195 -18 CURVE SMOOTH",
"197 50 OFFCURVE",
"241 123 OFFCURVE",
"273 181 CURVE",
"283 182 LINE SMOOTH",
"395 188 OFFCURVE",
"561 141 OFFCURVE",
"643 56 CURVE",
"527 -7 OFFCURVE",
"400 -45 OFFCURVE",
"274 -45 CURVE SMOOTH",
"243 -45 OFFCURVE",
"212 -44 OFFCURVE",
"182 -37 CURVE"
);
},
{
closed = 1;
nodes = (
"130 -22 OFFCURVE",
"74 8 OFFCURVE",
"75 53 CURVE SMOOTH",
"78 132 OFFCURVE",
"158 169 OFFCURVE",
"217 179 CURVE",
"197 139 OFFCURVE",
"155 39 OFFCURVE",
"153 -4 CURVE SMOOTH",
"153 -14 OFFCURVE",
"155 -24 OFFCURVE",
"160 -31 CURVE"
);
}
);
width = 900;
}
);
note = D;
unicode = 0044;
},
{
color = 4;
glyphname = Dcaron;
lastChange = "2021-04-21 04:42:14 +0000";
layers = (
{
hints = (
{
horizontal = 1;
place = "{-69, 36}";
type = Stem;
},
{
horizontal = 1;
place = "{527, 40}";
type = Stem;
},
{
place = "{-6, 61}";
type = Stem;
},
{
place = "{134, 42}";
type = Stem;
},
{
place = "{825, 56}";
type = Stem;
}
);
layerId = "A9A9B55F-A222-44B0-A0B6-968BE501F3F8";
paths = (
{
closed = 1;
nodes = (
"775 83 OFFCURVE",
"907 189 OFFCURVE",
"911 311 CURVE SMOOTH",
"919 524 OFFCURVE",
"603 567 OFFCURVE",
"461 567 CURVE SMOOTH",
"406 567 OFFCURVE",
"109 552 OFFCURVE",
"106 471 CURVE SMOOTH",
"105 457 OFFCURVE",
"113 450 OFFCURVE",
"125 450 CURVE SMOOTH",
"140 450 OFFCURVE",
"184 473 OFFCURVE",
"201 480 CURVE SMOOTH",
"290 514 OFFCURVE",
"378 535 OFFCURVE",
"471 535 CURVE SMOOTH",
"587 535 OFFCURVE",
"862 493 OFFCURVE",
"856 316 CURVE SMOOTH",
"852 212 OFFCURVE",
"739 115 OFFCURVE",
"671 71 CURVE",
"590 170 OFFCURVE",
"418 209 OFFCURVE",
"290 212 CURVE",
"342 301 OFFCURVE",
"407 384 OFFCURVE",
"473 462 CURVE SMOOTH",
"480 471 OFFCURVE",
"495 485 OFFCURVE",
"498 497 CURVE",
"497 509 OFFCURVE",
"473 513 OFFCURVE",
"464 513 CURVE SMOOTH",
"440 513 OFFCURVE",
"421 508 OFFCURVE",
"403 489 CURVE SMOOTH",
"361 446 OFFCURVE",
"264 272 OFFCURVE",
"232 211 CURVE",
"153 205 OFFCURVE",
"18 166 OFFCURVE",
"14 55 CURVE SMOOTH",
"11 -45 OFFCURVE",
"199 -69 OFFCURVE",
"265 -69 CURVE SMOOTH",
"407 -69 OFFCURVE",
"542 -50 OFFCURVE",
"673 19 CURVE",
"677 15 OFFCURVE",
"685 5 OFFCURVE",
"690 5 CURVE SMOOTH",
"709 5 OFFCURVE",
"701 24 OFFCURVE",
"696 33 CURVE"
);
},
{
closed = 1;
nodes = (
"190 -35 OFFCURVE",
"195 -27 OFFCURVE",
"195 -18 CURVE SMOOTH",
"197 50 OFFCURVE",
"241 123 OFFCURVE",
"273 181 CURVE",
"283 182 LINE SMOOTH",
"395 188 OFFCURVE",
"561 141 OFFCURVE",
"643 56 CURVE",
"527 -7 OFFCURVE",
"400 -45 OFFCURVE",
"274 -45 CURVE SMOOTH",
"243 -45 OFFCURVE",
"212 -44 OFFCURVE",
"182 -37 CURVE"
);
},
{
closed = 1;
nodes = (
"130 -22 OFFCURVE",
"74 8 OFFCURVE",
"75 53 CURVE SMOOTH",
"78 132 OFFCURVE",
"158 169 OFFCURVE",
"217 179 CURVE",
"197 139 OFFCURVE",
"155 39 OFFCURVE",
"153 -4 CURVE SMOOTH",
"153 -14 OFFCURVE",
"155 -24 OFFCURVE",
"160 -31 CURVE"
);
},
{
closed = 1;
nodes = (
"740 680 LINE",
"742 688 LINE",
"742 692 OFFCURVE",
"735 696 OFFCURVE",
"732 696 CURVE SMOOTH",
"718 696 OFFCURVE",
"659 659 OFFCURVE",
"642 650 CURVE",
"630 664 OFFCURVE",
"591 698 OFFCURVE",
"572 698 CURVE SMOOTH",
"567 698 OFFCURVE",
"557 695 OFFCURVE",
"557 688 CURVE SMOOTH",
"557 681 OFFCURVE",
"620 615 OFFCURVE",
"626 615 CURVE SMOOTH",
"642 615 OFFCURVE",
"728 668 OFFCURVE",
"740 681 CURVE"
);
}
);
width = 900;
}
);
note = Dcaron;
unicode = 010E;
},
{
color = 4;
glyphname = Dcroat;
lastChange = "2021-04-21 04:42:14 +0000";
layers = (
{
hints = (
{
horizontal = 1;
place = "{-69, 36}";
type = Stem;
},
{
horizontal = 1;
place = "{175, 36}";
type = Stem;
},
{
horizontal = 1;
place = "{527, 40}";
type = Stem;
},
{
place = "{-6, 61}";
type = Stem;
},
{
place = "{134, 42}";
type = Stem;
},
{
place = "{825, 56}";
type = Stem;
},
{
place = "{13, 61}";
type = Stem;
},
{
place = "{153, 42}";
type = Stem;
},
{
place = "{844, 56}";
type = Stem;
}
);
layerId = "A9A9B55F-A222-44B0-A0B6-968BE501F3F8";
paths = (
{
closed = 1;
nodes = (
"775 83 OFFCURVE",
"907 189 OFFCURVE",
"911 311 CURVE SMOOTH",
"919 524 OFFCURVE",
"603 567 OFFCURVE",
"461 567 CURVE SMOOTH",
"406 567 OFFCURVE",
"109 552 OFFCURVE",
"106 471 CURVE SMOOTH",
"105 457 OFFCURVE",
"113 450 OFFCURVE",
"125 450 CURVE SMOOTH",
"140 450 OFFCURVE",
"184 473 OFFCURVE",
"201 480 CURVE SMOOTH",
"290 514 OFFCURVE",
"378 535 OFFCURVE",
"471 535 CURVE SMOOTH",
"587 535 OFFCURVE",
"862 493 OFFCURVE",
"856 316 CURVE SMOOTH",
"852 212 OFFCURVE",
"739 115 OFFCURVE",
"671 71 CURVE",
"590 170 OFFCURVE",
"418 209 OFFCURVE",
"290 212 CURVE",
"342 301 OFFCURVE",
"407 384 OFFCURVE",
"473 462 CURVE SMOOTH",
"480 471 OFFCURVE",
"495 485 OFFCURVE",
"498 497 CURVE",
"497 509 OFFCURVE",
"473 513 OFFCURVE",
"464 513 CURVE SMOOTH",
"440 513 OFFCURVE",
"421 508 OFFCURVE",
"403 489 CURVE SMOOTH",
"361 446 OFFCURVE",
"264 272 OFFCURVE",
"232 211 CURVE",
"153 205 OFFCURVE",
"18 166 OFFCURVE",
"14 55 CURVE SMOOTH",
"11 -45 OFFCURVE",
"199 -69 OFFCURVE",
"265 -69 CURVE SMOOTH",
"407 -69 OFFCURVE",
"542 -50 OFFCURVE",
"673 19 CURVE",
"677 15 OFFCURVE",
"685 5 OFFCURVE",
"690 5 CURVE SMOOTH",
"709 5 OFFCURVE",
"701 24 OFFCURVE",
"696 33 CURVE"
);
},
{
closed = 1;
nodes = (
"190 -35 OFFCURVE",
"195 -27 OFFCURVE",
"195 -18 CURVE SMOOTH",
"197 50 OFFCURVE",
"241 123 OFFCURVE",
"273 181 CURVE",
"283 182 LINE SMOOTH",
"395 188 OFFCURVE",
"561 141 OFFCURVE",
"643 56 CURVE",
"527 -7 OFFCURVE",
"400 -45 OFFCURVE",
"274 -45 CURVE SMOOTH",
"243 -45 OFFCURVE",
"212 -44 OFFCURVE",
"182 -37 CURVE"
);
},
{
closed = 1;
nodes = (
"130 -22 OFFCURVE",
"74 8 OFFCURVE",
"75 53 CURVE SMOOTH",
"78 132 OFFCURVE",
"158 169 OFFCURVE",
"217 179 CURVE",
"197 139 OFFCURVE",
"155 39 OFFCURVE",
"153 -4 CURVE SMOOTH",
"153 -14 OFFCURVE",
"155 -24 OFFCURVE",
"160 -31 CURVE"
);
},
{
closed = 1;
nodes = (
"271 258 OFFCURVE",
"314 260 OFFCURVE",
"360 263 CURVE SMOOTH",
"368 264 OFFCURVE",
"420 268 OFFCURVE",
"421 278 CURVE SMOOTH",
"421 299 OFFCURVE",
"301 297 OFFCURVE",
"283 297 CURVE SMOOTH",
"263 297 OFFCURVE",
"191 294 OFFCURVE",
"190 271 CURVE SMOOTH",
"190 257 OFFCURVE",
"215 258 OFFCURVE",
"223 258 CURVE SMOOTH"
);
}
);
width = 900;
}
);
note = Dcroat;
unicode = 0110;
},
{
color = 4;
glyphname = E;
lastChange = "2021-04-21 04:42:14 +0000";
layers = (
{
hints = (
{
horizontal = 1;
place = "{-53, 41}";
type = Stem;
},
{
horizontal = 1;
place = "{257, 43}";
type = Stem;
},
{
horizontal = 1;
place = "{506, 40}";
type = Stem;
},
{
place = "{31, 63}";
type = Stem;
},
{
place = "{724, 43}";
type = Stem;
}
);
layerId = "A9A9B55F-A222-44B0-A0B6-968BE501F3F8";
paths = (
{
closed = 1;
nodes = (
"722 333 OFFCURVE",
"781 406 OFFCURVE",
"783 462 CURVE SMOOTH",
"785 537 OFFCURVE",
"706 546 OFFCURVE",
"655 546 CURVE SMOOTH",
"470 546 OFFCURVE",
"256 436 OFFCURVE",
"126 285 CURVE",
"97 281 OFFCURVE",
"36 283 OFFCURVE",
"35 237 CURVE SMOOTH",
"34 203 OFFCURVE",
"67 219 OFFCURVE",
"83 222 CURVE",
"56 179 OFFCURVE",
"35 139 OFFCURVE",
"34 87 CURVE SMOOTH",
"30 -27 OFFCURVE",
"142 -53 OFFCURVE",
"224 -53 CURVE SMOOTH",
"424 -53 OFFCURVE",
"627 81 OFFCURVE",
"656 128 CURVE SMOOTH",
"664 140 OFFCURVE",
"660 142 OFFCURVE",
"648 142 CURVE SMOOTH",
"639 142 OFFCURVE",
"502 -13 OFFCURVE",
"249 -13 CURVE SMOOTH",
"94 -13 OFFCURVE",
"46 87 OFFCURVE",
"176 252 CURVE",
"256 262 OFFCURVE",
"284 262 OFFCURVE",
"364 262 CURVE SMOOTH",
"403 262 OFFCURVE",
"489 263 OFFCURVE",
"529 260 CURVE SMOOTH",
"561 258 OFFCURVE",
"568 272 OFFCURVE",
"551 279 CURVE SMOOTH",
"535 285 OFFCURVE",
"446 294 OFFCURVE",
"361 294 CURVE SMOOTH",
"304 294 OFFCURVE",
"267 296 OFFCURVE",
"211 291 CURVE",
"324 406 OFFCURVE",
"502 507 OFFCURVE",
"654 507 CURVE SMOOTH",
"681 507 OFFCURVE",
"759 506 OFFCURVE",
"758 463 CURVE SMOOTH",
"756 402 OFFCURVE",
"655 353 OFFCURVE",
"627 329 CURVE SMOOTH",
"598 304 OFFCURVE",
"647 304 OFFCURVE",
"662 310 CURVE SMOOTH"
);
}
);
width = 672;
}
);
note = E;
unicode = 0045;
},
{
color = 4;
glyphname = Eacute;
lastChange = "2021-04-21 04:42:14 +0000";
layers = (
{
hints = (
{
horizontal = 1;
place = "{-53, 41}";
type = Stem;
},
{
horizontal = 1;
place = "{258, 43}";
type = Stem;
},
{
horizontal = 1;
place = "{506, 40}";
type = Stem;
},
{
place = "{31, 63}";
type = Stem;
},
{
place = "{724, 43}";
type = Stem;
},
{
horizontal = 1;
place = "{257, 43}";
type = Stem;
}
);
layerId = "A9A9B55F-A222-44B0-A0B6-968BE501F3F8";
paths = (
{
closed = 1;
nodes = (
"686 589 OFFCURVE",
"778 639 OFFCURVE",
"793 648 CURVE SMOOTH",
"800 652 OFFCURVE",
"804 661 OFFCURVE",
"804 670 CURVE SMOOTH",
"805 679 OFFCURVE",
"800 686 OFFCURVE",
"791 686 CURVE SMOOTH",
"775 686 OFFCURVE",
"676 614 OFFCURVE",
"671 610 CURVE SMOOTH",
"668 608 OFFCURVE",
"665 604 OFFCURVE",
"665 600 CURVE SMOOTH",
"665 593 OFFCURVE",
"671 589 OFFCURVE",
"676 589 CURVE SMOOTH"
);
},
{
closed = 1;
nodes = (
"722 333 OFFCURVE",
"781 406 OFFCURVE",
"783 462 CURVE SMOOTH",
"785 537 OFFCURVE",
"706 546 OFFCURVE",
"655 546 CURVE SMOOTH",
"470 546 OFFCURVE",
"256 436 OFFCURVE",
"126 285 CURVE",
"97 281 OFFCURVE",
"36 283 OFFCURVE",
"35 237 CURVE SMOOTH",
"34 203 OFFCURVE",
"67 219 OFFCURVE",
"83 222 CURVE",
"56 179 OFFCURVE",
"35 139 OFFCURVE",
"34 87 CURVE SMOOTH",
"30 -27 OFFCURVE",
"142 -53 OFFCURVE",
"224 -53 CURVE SMOOTH",
"424 -53 OFFCURVE",
"627 81 OFFCURVE",
"656 128 CURVE SMOOTH",
"664 140 OFFCURVE",
"660 142 OFFCURVE",
"648 142 CURVE SMOOTH",
"639 142 OFFCURVE",
"502 -13 OFFCURVE",
"249 -13 CURVE SMOOTH",
"94 -13 OFFCURVE",
"46 87 OFFCURVE",
"176 252 CURVE",
"256 262 OFFCURVE",
"284 262 OFFCURVE",
"364 262 CURVE SMOOTH",
"403 262 OFFCURVE",
"489 263 OFFCURVE",
"529 260 CURVE SMOOTH",
"561 258 OFFCURVE",
"568 272 OFFCURVE",
"551 279 CURVE SMOOTH",
"535 285 OFFCURVE",
"446 294 OFFCURVE",
"361 294 CURVE SMOOTH",
"304 294 OFFCURVE",
"267 296 OFFCURVE",
"211 291 CURVE",
"324 406 OFFCURVE",
"502 507 OFFCURVE",
"654 507 CURVE SMOOTH",
"681 507 OFFCURVE",
"759 506 OFFCURVE",
"758 463 CURVE SMOOTH",
"756 402 OFFCURVE",
"655 353 OFFCURVE",
"627 329 CURVE SMOOTH",
"598 304 OFFCURVE",
"647 304 OFFCURVE",
"662 310 CURVE SMOOTH"
);
}
);
width = 649;
}
);
note = Eacute;
unicode = 00C9;
},
{
color = 4;
glyphname = Ebreve;
lastChange = "2021-04-21 04:42:14 +0000";
layers = (
{
hints = (
{
horizontal = 1;
place = "{-53, 41}";
type = Stem;
},
{
horizontal = 1;
place = "{258, 43}";
type = Stem;
},
{
horizontal = 1;
place = "{506, 40}";
type = Stem;
},
{
horizontal = 1;
place = "{620, 31}";
type = Stem;
},
{
place = "{31, 63}";
type = Stem;
},
{
place = "{724, 43}";
type = Stem;
},
{
horizontal = 1;
place = "{257, 43}";
type = Stem;
}
);
layerId = "A9A9B55F-A222-44B0-A0B6-968BE501F3F8";
paths = (
{
closed = 1;
nodes = (
"722 333 OFFCURVE",
"781 406 OFFCURVE",
"783 462 CURVE SMOOTH",
"785 537 OFFCURVE",
"706 546 OFFCURVE",
"655 546 CURVE SMOOTH",
"470 546 OFFCURVE",
"256 436 OFFCURVE",
"126 285 CURVE",
"97 281 OFFCURVE",
"36 283 OFFCURVE",
"35 237 CURVE SMOOTH",
"34 203 OFFCURVE",
"67 219 OFFCURVE",
"83 222 CURVE",
"56 179 OFFCURVE",
"35 139 OFFCURVE",
"34 87 CURVE SMOOTH",
"30 -27 OFFCURVE",
"142 -53 OFFCURVE",
"224 -53 CURVE SMOOTH",
"424 -53 OFFCURVE",
"627 81 OFFCURVE",
"656 128 CURVE SMOOTH",
"664 140 OFFCURVE",
"660 142 OFFCURVE",
"648 142 CURVE SMOOTH",
"639 142 OFFCURVE",
"502 -13 OFFCURVE",
"249 -13 CURVE SMOOTH",
"94 -13 OFFCURVE",
"46 87 OFFCURVE",
"176 252 CURVE",
"256 262 OFFCURVE",
"284 262 OFFCURVE",
"364 262 CURVE SMOOTH",
"403 262 OFFCURVE",
"489 263 OFFCURVE",
"529 260 CURVE SMOOTH",
"561 258 OFFCURVE",
"568 272 OFFCURVE",
"551 279 CURVE SMOOTH",
"535 285 OFFCURVE",
"446 294 OFFCURVE",
"361 294 CURVE SMOOTH",
"304 294 OFFCURVE",
"267 296 OFFCURVE",
"211 291 CURVE",
"324 406 OFFCURVE",
"502 507 OFFCURVE",
"654 507 CURVE SMOOTH",
"681 507 OFFCURVE",
"759 506 OFFCURVE",
"758 463 CURVE SMOOTH",
"756 402 OFFCURVE",
"655 353 OFFCURVE",
"627 329 CURVE SMOOTH",
"598 304 OFFCURVE",
"647 304 OFFCURVE",
"662 310 CURVE SMOOTH"
);
},
{
closed = 1;
nodes = (
"740 607 OFFCURVE",
"802 652 OFFCURVE",
"810 684 CURVE",
"811 697 OFFCURVE",
"801 695 OFFCURVE",
"795 688 CURVE SMOOTH",
"771 662 OFFCURVE",
"724 634 OFFCURVE",
"693 634 CURVE SMOOTH",
"678 634 OFFCURVE",
"660 635 OFFCURVE",
"649 646 CURVE SMOOTH",
"642 652 OFFCURVE",
"634 661 OFFCURVE",
"633 678 CURVE SMOOTH",
"632 686 OFFCURVE",
"623 692 OFFCURVE",
"620 692 CURVE SMOOTH",
"607 692 OFFCURVE",
"601 682 OFFCURVE",
"601 671 CURVE SMOOTH",
"599 624 OFFCURVE",
"649 607 OFFCURVE",
"685 607 CURVE SMOOTH"
);
}
);
width = 672;
}
);
note = Ebreve;
unicode = 0114;
},
{
color = 4;
glyphname = Ecaron;
lastChange = "2021-04-21 04:42:14 +0000";
layers = (
{
hints = (
{
horizontal = 1;
place = "{-53, 41}";
type = Stem;
},
{
horizontal = 1;
place = "{258, 43}";
type = Stem;
},
{
horizontal = 1;
place = "{506, 40}";
type = Stem;
},
{
place = "{31, 63}";
type = Stem;
},
{
place = "{724, 43}";
type = Stem;
}
);
layerId = "A9A9B55F-A222-44B0-A0B6-968BE501F3F8";
paths = (
{
closed = 1;
nodes = (
"722 333 OFFCURVE",
"781 406 OFFCURVE",
"783 462 CURVE SMOOTH",
"785 537 OFFCURVE",
"706 546 OFFCURVE",
"655 546 CURVE SMOOTH",
"470 546 OFFCURVE",
"256 436 OFFCURVE",
"126 285 CURVE",
"97 281 OFFCURVE",
"36 283 OFFCURVE",
"35 237 CURVE SMOOTH",
"34 203 OFFCURVE",
"67 219 OFFCURVE",
"83 222 CURVE",
"56 179 OFFCURVE",
"35 139 OFFCURVE",
"34 87 CURVE SMOOTH",
"30 -27 OFFCURVE",
"142 -53 OFFCURVE",
"224 -53 CURVE SMOOTH",
"424 -53 OFFCURVE",
"627 81 OFFCURVE",
"656 128 CURVE SMOOTH",
"664 140 OFFCURVE",
"660 142 OFFCURVE",
"648 142 CURVE SMOOTH",
"639 142 OFFCURVE",
"502 -13 OFFCURVE",
"249 -13 CURVE SMOOTH",
"94 -13 OFFCURVE",
"46 87 OFFCURVE",
"176 252 CURVE",
"256 262 OFFCURVE",
"284 262 OFFCURVE",
"364 262 CURVE SMOOTH",
"403 262 OFFCURVE",
"489 263 OFFCURVE",
"529 260 CURVE SMOOTH",
"561 258 OFFCURVE",
"568 272 OFFCURVE",
"551 279 CURVE SMOOTH",
"535 285 OFFCURVE",
"446 294 OFFCURVE",
"361 294 CURVE SMOOTH",
"304 294 OFFCURVE",
"267 296 OFFCURVE",
"211 291 CURVE",
"324 406 OFFCURVE",
"502 507 OFFCURVE",
"654 507 CURVE SMOOTH",
"681 507 OFFCURVE",
"759 506 OFFCURVE",
"758 463 CURVE SMOOTH",
"756 402 OFFCURVE",
"655 353 OFFCURVE",
"627 329 CURVE SMOOTH",
"598 304 OFFCURVE",
"647 304 OFFCURVE",
"662 310 CURVE SMOOTH"
);
},
{
closed = 1;
nodes = (
"803 655 LINE",
"805 663 LINE",
"805 667 OFFCURVE",
"798 671 OFFCURVE",
"795 671 CURVE SMOOTH",
"781 671 OFFCURVE",
"722 634 OFFCURVE",
"705 625 CURVE",
"693 639 OFFCURVE",
"654 673 OFFCURVE",
"635 673 CURVE SMOOTH",
"630 673 OFFCURVE",
"620 670 OFFCURVE",
"620 663 CURVE SMOOTH",
"620 656 OFFCURVE",
"683 590 OFFCURVE",
"689 590 CURVE SMOOTH",
"705 590 OFFCURVE",
"791 643 OFFCURVE",
"803 656 CURVE"
);
}
);
width = 672;
}
);
note = Ecaron;
unicode = 011A;
},
{
color = 4;
glyphname = Ecircumflex;
lastChange = "2021-04-21 04:42:14 +0000";
layers = (
{
hints = (
{
horizontal = 1;
place = "{-53, 41}";
type = Stem;
},
{
horizontal = 1;
place = "{258, 43}";
type = Stem;
},
{
horizontal = 1;
place = "{506, 40}";
type = Stem;
},
{
place = "{31, 63}";
type = Stem;
},
{
place = "{724, 43}";
type = Stem;
}
);
layerId = "A9A9B55F-A222-44B0-A0B6-968BE501F3F8";
paths = (
{
closed = 1;
nodes = (
"722 333 OFFCURVE",
"781 406 OFFCURVE",
"783 462 CURVE SMOOTH",
"785 537 OFFCURVE",
"706 546 OFFCURVE",
"655 546 CURVE SMOOTH",
"470 546 OFFCURVE",
"256 436 OFFCURVE",
"126 285 CURVE",
"97 281 OFFCURVE",
"36 283 OFFCURVE",
"35 237 CURVE SMOOTH",
"34 203 OFFCURVE",
"67 219 OFFCURVE",
"83 222 CURVE",
"56 179 OFFCURVE",
"35 139 OFFCURVE",
"34 87 CURVE SMOOTH",
"30 -27 OFFCURVE",
"142 -53 OFFCURVE",
"224 -53 CURVE SMOOTH",
"424 -53 OFFCURVE",
"627 81 OFFCURVE",
"656 128 CURVE SMOOTH",
"664 140 OFFCURVE",
"660 142 OFFCURVE",
"648 142 CURVE SMOOTH",
"639 142 OFFCURVE",
"502 -13 OFFCURVE",
"249 -13 CURVE SMOOTH",
"94 -13 OFFCURVE",
"46 87 OFFCURVE",
"176 252 CURVE",
"256 262 OFFCURVE",
"284 262 OFFCURVE",
"364 262 CURVE SMOOTH",
"403 262 OFFCURVE",
"489 263 OFFCURVE",
"529 260 CURVE SMOOTH",
"561 258 OFFCURVE",
"568 272 OFFCURVE",
"551 279 CURVE SMOOTH",
"535 285 OFFCURVE",
"446 294 OFFCURVE",
"361 294 CURVE SMOOTH",
"304 294 OFFCURVE",
"267 296 OFFCURVE",
"211 291 CURVE",
"324 406 OFFCURVE",
"502 507 OFFCURVE",
"654 507 CURVE SMOOTH",
"681 507 OFFCURVE",
"759 506 OFFCURVE",
"758 463 CURVE SMOOTH",
"756 402 OFFCURVE",
"655 353 OFFCURVE",
"627 329 CURVE SMOOTH",
"598 304 OFFCURVE",
"647 304 OFFCURVE",
"662 310 CURVE SMOOTH"
);
},
{
closed = 1;
nodes = (
"750 612 OFFCURVE",
"722 641 OFFCURVE",
"714 656 CURVE SMOOTH",
"703 675 OFFCURVE",
"681 656 OFFCURVE",
"627 624 CURVE SMOOTH",
"584 597 OFFCURVE",
"555 575 OFFCURVE",
"554 570 CURVE SMOOTH",
"552 565 OFFCURVE",
"554 563 OFFCURVE",
"559 563 CURVE SMOOTH",
"565 563 OFFCURVE",
"602 582 OFFCURVE",
"674 626 CURVE",
"680 616 OFFCURVE",
"694 602 OFFCURVE",
"717 585 CURVE SMOOTH",
"719 584 OFFCURVE",
"740 566 OFFCURVE",
"756 560 CURVE",
"770 551 OFFCURVE",
"793 566 OFFCURVE",
"783 579 CURVE"
);
}
);
width = 649;
}
);
note = Ecircumflex;
unicode = 00CA;
},
{
color = 4;
glyphname = Edieresis;
lastChange = "2021-04-21 04:42:14 +0000";
layers = (
{
hints = (
{
horizontal = 1;
place = "{-53, 41}";
type = Stem;
},
{
horizontal = 1;
place = "{258, 43}";
type = Stem;
},
{
horizontal = 1;
place = "{506, 40}";
type = Stem;
},
{
horizontal = 1;
place = "{575, 74}";
type = Stem;
},
{
place = "{31, 63}";
type = Stem;
},
{
place = "{552, 73}";
type = Stem;
},
{
place = "{724, 43}";
type = Stem;
},
{
horizontal = 1;
place = "{257, 43}";
type = Stem;
}
);
layerId = "A9A9B55F-A222-44B0-A0B6-968BE501F3F8";
paths = (
{
closed = 1;
nodes = (
"722 333 OFFCURVE",
"781 406 OFFCURVE",
"783 462 CURVE SMOOTH",
"785 537 OFFCURVE",
"706 546 OFFCURVE",
"655 546 CURVE SMOOTH",
"470 546 OFFCURVE",
"256 436 OFFCURVE",
"126 285 CURVE",
"97 281 OFFCURVE",
"36 283 OFFCURVE",
"35 237 CURVE SMOOTH",
"34 203 OFFCURVE",
"67 219 OFFCURVE",
"83 222 CURVE",
"56 179 OFFCURVE",
"35 139 OFFCURVE",
"34 87 CURVE SMOOTH",
"30 -27 OFFCURVE",
"142 -53 OFFCURVE",
"224 -53 CURVE SMOOTH",
"424 -53 OFFCURVE",
"627 81 OFFCURVE",
"656 128 CURVE SMOOTH",
"664 140 OFFCURVE",
"660 142 OFFCURVE",
"648 142 CURVE SMOOTH",
"639 142 OFFCURVE",
"502 -13 OFFCURVE",
"249 -13 CURVE SMOOTH",
"94 -13 OFFCURVE",
"46 87 OFFCURVE",
"176 252 CURVE",
"256 262 OFFCURVE",
"284 262 OFFCURVE",
"364 262 CURVE SMOOTH",
"403 262 OFFCURVE",
"489 263 OFFCURVE",
"529 260 CURVE SMOOTH",
"561 258 OFFCURVE",
"568 272 OFFCURVE",
"551 279 CURVE SMOOTH",
"535 285 OFFCURVE",
"446 294 OFFCURVE",
"361 294 CURVE SMOOTH",
"304 294 OFFCURVE",
"267 296 OFFCURVE",
"211 291 CURVE",
"324 406 OFFCURVE",
"502 507 OFFCURVE",
"654 507 CURVE SMOOTH",
"681 507 OFFCURVE",
"759 506 OFFCURVE",
"758 463 CURVE SMOOTH",
"756 402 OFFCURVE",
"655 353 OFFCURVE",
"627 329 CURVE SMOOTH",
"598 304 OFFCURVE",
"647 304 OFFCURVE",
"662 310 CURVE SMOOTH"
);
},
{
closed = 1;
nodes = (
"572 598 OFFCURVE",
"583 584 OFFCURVE",
"600 584 CURVE SMOOTH",
"617 584 OFFCURVE",
"633 598 OFFCURVE",
"636 616 CURVE SMOOTH",
"639 634 OFFCURVE",
"628 648 OFFCURVE",
"611 648 CURVE SMOOTH",
"593 648 OFFCURVE",
"577 634 OFFCURVE",
"575 616 CURVE SMOOTH"
);
},
{
closed = 1;
nodes = (
"709 598 OFFCURVE",
"720 584 OFFCURVE",
"737 584 CURVE SMOOTH",
"754 584 OFFCURVE",
"770 598 OFFCURVE",
"773 616 CURVE SMOOTH",
"776 634 OFFCURVE",
"765 648 OFFCURVE",
"748 648 CURVE SMOOTH",
"730 648 OFFCURVE",
"714 634 OFFCURVE",
"712 616 CURVE SMOOTH"
);
}
);
width = 649;
}
);
note = Edieresis;
unicode = 00CB;
},
{
color = 4;
glyphname = Edotaccent;
lastChange = "2021-04-21 04:42:14 +0000";
layers = (
{
hints = (
{
horizontal = 1;
place = "{-53, 41}";
type = Stem;
},
{
horizontal = 1;
place = "{258, 43}";
type = Stem;
},
{
horizontal = 1;
place = "{506, 40}";
type = Stem;
},
{
horizontal = 1;
place = "{600, 67}";
type = Stem;
},
{
place = "{31, 63}";
type = Stem;
},
{
place = "{724, 43}";
type = Stem;
},
{
horizontal = 1;
place = "{257, 43}";
type = Stem;
}
);
layerId = "A9A9B55F-A222-44B0-A0B6-968BE501F3F8";
paths = (
{
closed = 1;
nodes = (
"722 333 OFFCURVE",
"781 406 OFFCURVE",
"783 462 CURVE SMOOTH",
"785 537 OFFCURVE",
"706 546 OFFCURVE",
"655 546 CURVE SMOOTH",
"470 546 OFFCURVE",
"256 436 OFFCURVE",
"126 285 CURVE",
"97 281 OFFCURVE",
"36 283 OFFCURVE",
"35 237 CURVE SMOOTH",
"34 203 OFFCURVE",
"67 219 OFFCURVE",
"83 222 CURVE",
"56 179 OFFCURVE",
"35 139 OFFCURVE",
"34 87 CURVE SMOOTH",
"30 -27 OFFCURVE",
"142 -53 OFFCURVE",
"224 -53 CURVE SMOOTH",
"424 -53 OFFCURVE",
"627 81 OFFCURVE",
"656 128 CURVE SMOOTH",
"664 140 OFFCURVE",
"660 142 OFFCURVE",
"648 142 CURVE SMOOTH",
"639 142 OFFCURVE",
"502 -13 OFFCURVE",
"249 -13 CURVE SMOOTH",
"94 -13 OFFCURVE",
"46 87 OFFCURVE",
"176 252 CURVE",
"256 262 OFFCURVE",
"284 262 OFFCURVE",
"364 262 CURVE SMOOTH",
"403 262 OFFCURVE",
"489 263 OFFCURVE",
"529 260 CURVE SMOOTH",
"561 258 OFFCURVE",
"568 272 OFFCURVE",
"551 279 CURVE SMOOTH",
"535 285 OFFCURVE",
"446 294 OFFCURVE",
"361 294 CURVE SMOOTH",
"304 294 OFFCURVE",
"267 296 OFFCURVE",
"211 291 CURVE",
"324 406 OFFCURVE",
"502 507 OFFCURVE",
"654 507 CURVE SMOOTH",
"681 507 OFFCURVE",
"759 506 OFFCURVE",
"758 463 CURVE SMOOTH",
"756 402 OFFCURVE",
"655 353 OFFCURVE",
"627 329 CURVE SMOOTH",
"598 304 OFFCURVE",
"647 304 OFFCURVE",
"662 310 CURVE SMOOTH"
);
},
{
closed = 1;
nodes = (
"680 608 OFFCURVE",
"691 594 OFFCURVE",
"708 594 CURVE SMOOTH",
"725 594 OFFCURVE",
"741 608 OFFCURVE",
"744 626 CURVE SMOOTH",
"747 644 OFFCURVE",
"736 658 OFFCURVE",
"718 658 CURVE SMOOTH",
"700 658 OFFCURVE",
"685 644 OFFCURVE",
"682 626 CURVE SMOOTH"
);
}
);
width = 672;
}
);
note = Edotaccent;
unicode = 0116;
},
{
color = 4;
glyphname = Egrave;
lastChange = "2021-04-21 04:42:14 +0000";
layers = (
{
hints = (
{
horizontal = 1;
place = "{-53, 41}";
type = Stem;
},
{
horizontal = 1;
place = "{258, 43}";
type = Stem;
},
{
horizontal = 1;
place = "{506, 40}";
type = Stem;
},
{
place = "{31, 63}";
type = Stem;
},
{
place = "{724, 43}";
type = Stem;
}
);
layerId = "A9A9B55F-A222-44B0-A0B6-968BE501F3F8";
paths = (
{
closed = 1;
nodes = (
"722 333 OFFCURVE",
"781 406 OFFCURVE",
"783 462 CURVE SMOOTH",
"785 537 OFFCURVE",
"706 546 OFFCURVE",
"655 546 CURVE SMOOTH",
"470 546 OFFCURVE",
"256 436 OFFCURVE",
"126 285 CURVE",
"97 281 OFFCURVE",
"36 283 OFFCURVE",
"35 237 CURVE SMOOTH",
"34 203 OFFCURVE",
"67 219 OFFCURVE",
"83 222 CURVE",
"56 179 OFFCURVE",
"35 139 OFFCURVE",
"34 87 CURVE SMOOTH",
"30 -27 OFFCURVE",
"142 -53 OFFCURVE",
"224 -53 CURVE SMOOTH",
"424 -53 OFFCURVE",
"627 81 OFFCURVE",
"656 128 CURVE SMOOTH",
"664 140 OFFCURVE",
"660 142 OFFCURVE",
"648 142 CURVE SMOOTH",
"639 142 OFFCURVE",
"502 -13 OFFCURVE",
"249 -13 CURVE SMOOTH",
"94 -13 OFFCURVE",
"46 87 OFFCURVE",
"176 252 CURVE",
"256 262 OFFCURVE",
"284 262 OFFCURVE",
"364 262 CURVE SMOOTH",
"403 262 OFFCURVE",
"489 263 OFFCURVE",
"529 260 CURVE SMOOTH",
"561 258 OFFCURVE",
"568 272 OFFCURVE",
"551 279 CURVE SMOOTH",
"535 285 OFFCURVE",
"446 294 OFFCURVE",
"361 294 CURVE SMOOTH",
"304 294 OFFCURVE",
"267 296 OFFCURVE",
"211 291 CURVE",
"324 406 OFFCURVE",
"502 507 OFFCURVE",
"654 507 CURVE SMOOTH",
"681 507 OFFCURVE",
"759 506 OFFCURVE",
"758 463 CURVE SMOOTH",
"756 402 OFFCURVE",
"655 353 OFFCURVE",
"627 329 CURVE SMOOTH",
"598 304 OFFCURVE",
"647 304 OFFCURVE",
"662 310 CURVE SMOOTH"
);
},
{
closed = 1;
nodes = (
"694 572 OFFCURVE",
"702 575 OFFCURVE",
"702 583 CURVE SMOOTH",
"703 595 OFFCURVE",
"576 686 OFFCURVE",
"559 686 CURVE SMOOTH",
"548 686 OFFCURVE",
"542 679 OFFCURVE",
"541 667 CURVE SMOOTH",
"540 638 OFFCURVE",
"677 572 OFFCURVE",
"687 572 CURVE SMOOTH"
);
}
);
width = 649;
}
);
note = Egrave;
unicode = 00C8;
},
{
color = 4;
glyphname = Emacron;
lastChange = "2021-04-21 04:42:14 +0000";
layers = (
{
hints = (
{
horizontal = 1;
place = "{-53, 41}";
type = Stem;
},
{
horizontal = 1;
place = "{258, 43}";
type = Stem;
},
{
horizontal = 1;
place = "{506, 40}";
type = Stem;
},
{
place = "{31, 63}";
type = Stem;
},
{
place = "{724, 43}";
type = Stem;
},
{
horizontal = 1;
place = "{257, 43}";
type = Stem;
}
);
layerId = "A9A9B55F-A222-44B0-A0B6-968BE501F3F8";
paths = (
{
closed = 1;
nodes = (
"722 333 OFFCURVE",
"781 406 OFFCURVE",
"783 462 CURVE SMOOTH",
"785 537 OFFCURVE",
"706 546 OFFCURVE",
"655 546 CURVE SMOOTH",
"470 546 OFFCURVE",
"256 436 OFFCURVE",
"126 285 CURVE",
"97 281 OFFCURVE",
"36 283 OFFCURVE",
"35 237 CURVE SMOOTH",
"34 203 OFFCURVE",
"67 219 OFFCURVE",
"83 222 CURVE",
"56 179 OFFCURVE",
"35 139 OFFCURVE",
"34 87 CURVE SMOOTH",
"30 -27 OFFCURVE",
"142 -53 OFFCURVE",
"224 -53 CURVE SMOOTH",
"424 -53 OFFCURVE",
"627 81 OFFCURVE",
"656 128 CURVE SMOOTH",
"664 140 OFFCURVE",
"660 142 OFFCURVE",
"648 142 CURVE SMOOTH",
"639 142 OFFCURVE",
"502 -13 OFFCURVE",
"249 -13 CURVE SMOOTH",
"94 -13 OFFCURVE",
"46 87 OFFCURVE",
"176 252 CURVE",
"256 262 OFFCURVE",
"284 262 OFFCURVE",
"364 262 CURVE SMOOTH",
"403 262 OFFCURVE",
"489 263 OFFCURVE",
"529 260 CURVE SMOOTH",
"561 258 OFFCURVE",
"568 272 OFFCURVE",
"551 279 CURVE SMOOTH",
"535 285 OFFCURVE",
"446 294 OFFCURVE",
"361 294 CURVE SMOOTH",
"304 294 OFFCURVE",
"267 296 OFFCURVE",
"211 291 CURVE",
"324 406 OFFCURVE",
"502 507 OFFCURVE",
"654 507 CURVE SMOOTH",
"681 507 OFFCURVE",
"759 506 OFFCURVE",
"758 463 CURVE SMOOTH",
"756 402 OFFCURVE",
"655 353 OFFCURVE",
"627 329 CURVE SMOOTH",
"598 304 OFFCURVE",
"647 304 OFFCURVE",
"662 310 CURVE SMOOTH"
);
},
{
closed = 1;
nodes = (
"648 597 OFFCURVE",
"698 608 OFFCURVE",
"750 608 CURVE SMOOTH",
"758 608 OFFCURVE",
"797 608 OFFCURVE",
"798 623 CURVE SMOOTH",
"798 644 OFFCURVE",
"678 647 OFFCURVE",
"660 647 CURVE SMOOTH",
"641 647 OFFCURVE",
"564 640 OFFCURVE",
"563 610 CURVE SMOOTH",
"563 596 OFFCURVE",
"588 597 OFFCURVE",
"597 597 CURVE SMOOTH"
);
}
);
width = 672;
}
);
note = Emacron;
unicode = 0112;
},
{
color = 4;
glyphname = Eogonek;
lastChange = "2021-04-21 04:42:14 +0000";
layers = (
{
hints = (
{
horizontal = 1;
place = "{-156, 45}";
type = Stem;
},
{
horizontal = 1;
place = "{-53, 41}";
type = Stem;
},
{
horizontal = 1;
place = "{257, 43}";
type = Stem;
},
{
horizontal = 1;
place = "{506, 40}";
type = Stem;
},
{
place = "{31, 63}";
type = Stem;
},
{
place = "{438, 56}";
type = Stem;
},
{
place = "{724, 43}";
type = Stem;
}
);
layerId = "A9A9B55F-A222-44B0-A0B6-968BE501F3F8";
paths = (
{
closed = 1;
nodes = (
"722 333 OFFCURVE",
"781 406 OFFCURVE",
"783 462 CURVE SMOOTH",
"785 537 OFFCURVE",
"706 546 OFFCURVE",
"655 546 CURVE SMOOTH",
"470 546 OFFCURVE",
"256 436 OFFCURVE",
"126 285 CURVE",
"97 281 OFFCURVE",
"36 283 OFFCURVE",
"35 237 CURVE SMOOTH",
"34 203 OFFCURVE",
"67 219 OFFCURVE",
"83 222 CURVE",
"56 179 OFFCURVE",
"35 139 OFFCURVE",
"34 87 CURVE SMOOTH",
"30 -27 OFFCURVE",
"142 -53 OFFCURVE",
"224 -53 CURVE SMOOTH",
"424 -53 OFFCURVE",
"627 81 OFFCURVE",
"656 128 CURVE SMOOTH",
"664 140 OFFCURVE",
"660 142 OFFCURVE",
"648 142 CURVE SMOOTH",
"639 142 OFFCURVE",
"502 -13 OFFCURVE",
"249 -13 CURVE SMOOTH",
"94 -13 OFFCURVE",
"46 87 OFFCURVE",
"176 252 CURVE",
"256 262 OFFCURVE",
"284 262 OFFCURVE",
"364 262 CURVE SMOOTH",
"403 262 OFFCURVE",
"489 263 OFFCURVE",
"529 260 CURVE SMOOTH",
"561 258 OFFCURVE",
"568 272 OFFCURVE",
"551 279 CURVE SMOOTH",
"535 285 OFFCURVE",
"446 294 OFFCURVE",
"361 294 CURVE SMOOTH",
"304 294 OFFCURVE",
"267 296 OFFCURVE",
"211 291 CURVE",
"324 406 OFFCURVE",
"502 507 OFFCURVE",
"654 507 CURVE SMOOTH",
"681 507 OFFCURVE",
"759 506 OFFCURVE",
"758 463 CURVE SMOOTH",
"756 402 OFFCURVE",
"655 353 OFFCURVE",
"627 329 CURVE SMOOTH",
"598 304 OFFCURVE",
"647 304 OFFCURVE",
"662 310 CURVE SMOOTH"
);
},
{
closed = 1;
nodes = (
"609 95 OFFCURVE",
"605 92 OFFCURVE",
"601 92 CURVE",
"552 71 OFFCURVE",
"440 -37 OFFCURVE",
"438 -99 CURVE SMOOTH",
"437 -129 OFFCURVE",
"458 -144 OFFCURVE",
"483 -144 CURVE SMOOTH",
"534 -144 OFFCURVE",
"574 -108 OFFCURVE",
"578 -88 CURVE SMOOTH",
"580 -79 OFFCURVE",
"571 -82 OFFCURVE",
"568 -84 CURVE",
"555 -97 OFFCURVE",
"535 -114 OFFCURVE",
"517 -114 CURVE SMOOTH",
"494 -114 OFFCURVE",
"488 -99 OFFCURVE",
"488 -81 CURVE SMOOTH",
"490 -35 OFFCURVE",
"554 40 OFFCURVE",
"607 82 CURVE"
);
}
);
width = 672;
}
);
note = Eogonek;
unicode = 0118;
},
{
color = 4;
glyphname = F;
lastChange = "2021-04-21 04:42:14 +0000";
layers = (
{
hints = (
{
horizontal = 1;
place = "{-59, 33}";
type = Stem;
},
{
horizontal = 1;
place = "{424, 42}";
type = Stem;
},
{
horizontal = 1;
place = "{541, -20}";
target = down;
type = TopGhost;
},
{
place = "{3, 62}";
type = Stem;
},
{
place = "{397, 41}";
type = Stem;
}
);
layerId = "A9A9B55F-A222-44B0-A0B6-968BE501F3F8";
paths = (
{
closed = 1;
nodes = (
"874 440 OFFCURVE",
"984 440 OFFCURVE",
"983 465 CURVE SMOOTH",
"982 486 OFFCURVE",
"963 481 OFFCURVE",
"951 477 CURVE SMOOTH",
"925 466 OFFCURVE",
"886 466 OFFCURVE",
"857 466 CURVE SMOOTH",
"803 466 OFFCURVE",
"759 468 OFFCURVE",
"705 472 CURVE",
"721 490 OFFCURVE",
"733 509 OFFCURVE",
"750 526 CURVE",
"749 538 OFFCURVE",
"737 539 OFFCURVE",
"728 539 CURVE SMOOTH",
"676 539 OFFCURVE",
"659 525 OFFCURVE",
"625 481 CURVE",
"555 487 OFFCURVE",
"484 494 OFFCURVE",
"413 494 CURVE SMOOTH",
"212 494 OFFCURVE",
"19 464 OFFCURVE",
"14 336 CURVE SMOOTH",
"14 315 OFFCURVE",
"28 298 OFFCURVE",
"41 286 CURVE SMOOTH",
"138 207 OFFCURVE",
"318 200 OFFCURVE",
"438 202 CURVE SMOOTH",
"461 202 LINE",
"435 149 OFFCURVE",
"399 68 OFFCURVE",
"397 8 CURVE SMOOTH",
"395 -34 OFFCURVE",
"412 -59 OFFCURVE",
"451 -59 CURVE SMOOTH",
"466 -59 OFFCURVE",
"506 -41 OFFCURVE",
"518 -19 CURVE SMOOTH",
"523 -10 OFFCURVE",
"516 -4 OFFCURVE",
"510 -10 CURVE SMOOTH",
"483 -34 OFFCURVE",
"436 -51 OFFCURVE",
"438 3 CURVE SMOOTH",
"440 62 OFFCURVE",
"486 152 OFFCURVE",
"513 204 CURVE",
"572 207 OFFCURVE",
"632 213 OFFCURVE",
"690 222 CURVE SMOOTH",
"709 225 OFFCURVE",
"759 232 OFFCURVE",
"777 244 CURVE SMOOTH",
"785 249 OFFCURVE",
"768 257 OFFCURVE",
"761 256 CURVE SMOOTH",
"682 245 OFFCURVE",
"605 237 OFFCURVE",
"526 232 CURVE",
"563 299 OFFCURVE",
"655 419 OFFCURVE",
"685 446 CURVE",
"743 441 OFFCURVE",
"791 440 OFFCURVE",
"847 440 CURVE SMOOTH"
);
},
{
closed = 1;
nodes = (
"499 461 OFFCURVE",
"556 459 OFFCURVE",
"611 455 CURVE",
"568 392 OFFCURVE",
"508 298 OFFCURVE",
"473 230 CURVE",
"454 229 LINE SMOOTH",
"390 227 OFFCURVE",
"73 241 OFFCURVE",
"76 331 CURVE SMOOTH",
"80 447 OFFCURVE",
"371 461 OFFCURVE",
"443 461 CURVE SMOOTH"
);
}
);
width = 742;
}
);
note = F;
unicode = 0046;
},
{
color = 4;
glyphname = G;
lastChange = "2021-04-21 04:42:14 +0000";
layers = (
{
hints = (
{
horizontal = 1;
place = "{-277, 47}";
type = Stem;
},
{
horizontal = 1;
place = "{227, 38}";
type = Stem;
},
{
place = "{-197, 57}";
type = Stem;
},
{
place = "{144, 58}";
type = Stem;
},
{
place = "{677, 49}";
type = Stem;
}
);
layerId = "A9A9B55F-A222-44B0-A0B6-968BE501F3F8";
paths = (
{
closed = 1;
nodes = (
"783 418 OFFCURVE",
"813 451 OFFCURVE",
"814 475 CURVE SMOOTH",
"816 517 OFFCURVE",
"755 528 OFFCURVE",
"727 531 CURVE",
"720 545 OFFCURVE",
"707 553 OFFCURVE",
"692 553 CURVE SMOOTH",
"681 553 OFFCURVE",
"672 545 OFFCURVE",
"669 534 CURVE",
"534 497 OFFCURVE",
"228 367 OFFCURVE",
"222 181 CURVE SMOOTH",
"221 170 OFFCURVE",
"225 158 OFFCURVE",
"231 149 CURVE",
"117 108 OFFCURVE",
"-124 10 OFFCURVE",
"-130 -149 CURVE SMOOTH",
"-133 -257 OFFCURVE",
"-41 -277 OFFCURVE",
"36 -277 CURVE SMOOTH",
"319 -277 OFFCURVE",
"566 -62 OFFCURVE",
"663 236 CURVE",
"674 237 OFFCURVE",
"685 238 OFFCURVE",
"696 238 CURVE SMOOTH",
"726 239 OFFCURVE",
"747 228 OFFCURVE",
"750 242 CURVE SMOOTH",
"755 263 OFFCURVE",
"706 265 OFFCURVE",
"681 265 CURVE SMOOTH",
"671 265 LINE",
"692 338 OFFCURVE",
"718 434 OFFCURVE",
"728 510 CURVE",
"732 510 LINE SMOOTH",
"746 510 OFFCURVE",
"772 494 OFFCURVE",
"775 474 CURVE SMOOTH",
"779 446 OFFCURVE",
"765 439 OFFCURVE",
"758 432 CURVE SMOOTH",
"753 427 OFFCURVE",
"755 418 OFFCURVE",
"762 418 CURVE SMOOTH"
);
},
{
closed = 1;
nodes = (
"556 244 LINE",
"580 268 OFFCURVE",
"602 294 OFFCURVE",
"623 322 CURVE",
"606 254 LINE"
);
},
{
closed = 1;
nodes = (
"397 392 OFFCURVE",
"539 474 OFFCURVE",
"670 509 CURVE",
"637 349 OFFCURVE",
"557 289 OFFCURVE",
"481 226 CURVE",
"414 209 OFFCURVE",
"368 192 OFFCURVE",
"301 170 CURVE",
"255 175 OFFCURVE",
"300 242 OFFCURVE",
"315 266 CURVE SMOOTH"
);
},
{
closed = 1;
nodes = (
"600 227 LINE",
"515 -48 OFFCURVE",
"327 -248 OFFCURVE",
"59 -248 CURVE SMOOTH",
"1 -248 OFFCURVE",
"-75 -221 OFFCURVE",
"-72 -136 CURVE SMOOTH",
"-68 -2 OFFCURVE",
"145 90 OFFCURVE",
"241 124 CURVE",
"255 112 OFFCURVE",
"274 107 OFFCURVE",
"293 107 CURVE SMOOTH",
"364 107 OFFCURVE",
"454 157 OFFCURVE",
"510 204 CURVE"
);
}
);
width = 695;
}
);
note = G;
unicode = 0047;
},
{
color = 4;
glyphname = Gbreve;
lastChange = "2021-04-21 04:42:14 +0000";
layers = (
{
hints = (
{
horizontal = 1;
place = "{-277, 47}";
type = Stem;
},
{
horizontal = 1;
place = "{227, 38}";
type = Stem;
},
{
horizontal = 1;
place = "{624, 31}";
type = Stem;
},
{
place = "{-152, 57}";
type = Stem;
},
{
place = "{189, 58}";
type = Stem;
},
{
place = "{722, 49}";
type = Stem;
},
{
place = "{-197, 57}";
type = Stem;
},
{
place = "{144, 58}";
type = Stem;
},
{
place = "{677, 49}";
type = Stem;
}
);
layerId = "A9A9B55F-A222-44B0-A0B6-968BE501F3F8";
paths = (
{
closed = 1;
nodes = (
"783 418 OFFCURVE",
"813 451 OFFCURVE",
"814 475 CURVE SMOOTH",
"816 517 OFFCURVE",
"755 528 OFFCURVE",
"727 531 CURVE",
"720 545 OFFCURVE",
"707 553 OFFCURVE",
"692 553 CURVE SMOOTH",
"681 553 OFFCURVE",
"672 545 OFFCURVE",
"669 534 CURVE",
"534 497 OFFCURVE",
"228 367 OFFCURVE",
"222 181 CURVE SMOOTH",
"221 170 OFFCURVE",
"225 158 OFFCURVE",
"231 149 CURVE",
"117 108 OFFCURVE",
"-124 10 OFFCURVE",
"-130 -149 CURVE SMOOTH",
"-133 -257 OFFCURVE",
"-41 -277 OFFCURVE",
"36 -277 CURVE SMOOTH",
"319 -277 OFFCURVE",
"566 -62 OFFCURVE",
"663 236 CURVE",
"674 237 OFFCURVE",
"685 238 OFFCURVE",
"696 238 CURVE SMOOTH",
"726 239 OFFCURVE",
"747 228 OFFCURVE",
"750 242 CURVE SMOOTH",
"755 263 OFFCURVE",
"706 265 OFFCURVE",
"681 265 CURVE SMOOTH",
"671 265 LINE",
"692 338 OFFCURVE",
"718 434 OFFCURVE",
"728 510 CURVE",
"732 510 LINE SMOOTH",
"746 510 OFFCURVE",
"772 494 OFFCURVE",
"775 474 CURVE SMOOTH",
"779 446 OFFCURVE",
"765 439 OFFCURVE",
"758 432 CURVE SMOOTH",
"753 427 OFFCURVE",
"755 418 OFFCURVE",
"762 418 CURVE SMOOTH"
);
},
{
closed = 1;
nodes = (
"556 244 LINE",
"580 268 OFFCURVE",
"602 294 OFFCURVE",
"623 322 CURVE",
"606 254 LINE"
);
},
{
closed = 1;
nodes = (
"397 392 OFFCURVE",
"539 474 OFFCURVE",
"670 509 CURVE",
"637 349 OFFCURVE",
"557 289 OFFCURVE",
"481 226 CURVE",
"414 209 OFFCURVE",
"368 192 OFFCURVE",
"301 170 CURVE",
"255 175 OFFCURVE",
"300 242 OFFCURVE",
"315 266 CURVE SMOOTH"
);
},
{
closed = 1;
nodes = (
"600 227 LINE",
"515 -48 OFFCURVE",
"327 -248 OFFCURVE",
"59 -248 CURVE SMOOTH",
"1 -248 OFFCURVE",
"-75 -221 OFFCURVE",
"-72 -136 CURVE SMOOTH",
"-68 -2 OFFCURVE",
"145 90 OFFCURVE",
"241 124 CURVE",
"255 112 OFFCURVE",
"274 107 OFFCURVE",
"293 107 CURVE SMOOTH",
"364 107 OFFCURVE",
"454 157 OFFCURVE",
"510 204 CURVE"
);
},
{
closed = 1;
nodes = (
"754 622 OFFCURVE",
"816 667 OFFCURVE",
"824 699 CURVE",
"825 712 OFFCURVE",
"815 710 OFFCURVE",
"809 703 CURVE SMOOTH",
"785 677 OFFCURVE",
"738 649 OFFCURVE",
"707 649 CURVE SMOOTH",
"692 649 OFFCURVE",
"674 650 OFFCURVE",
"663 661 CURVE SMOOTH",
"656 667 OFFCURVE",
"648 676 OFFCURVE",
"647 693 CURVE SMOOTH",
"646 701 OFFCURVE",
"637 707 OFFCURVE",
"634 707 CURVE SMOOTH",
"621 707 OFFCURVE",
"615 697 OFFCURVE",
"615 686 CURVE SMOOTH",
"613 639 OFFCURVE",
"663 622 OFFCURVE",
"699 622 CURVE SMOOTH"
);
}
);
width = 695;
}
);
note = Gbreve;
unicode = 011E;
},
{
color = 4;
glyphname = Gcircumflex;
lastChange = "2021-04-21 04:42:14 +0000";
layers = (
{
hints = (
{
horizontal = 1;
place = "{-277, 47}";
type = Stem;
},
{
horizontal = 1;
place = "{227, 38}";
type = Stem;
},
{
horizontal = 1;
place = "{417, 269}";
type = Stem;
},
{
place = "{-152, 57}";
type = Stem;
},
{
place = "{189, 58}";
type = Stem;
},
{
place = "{722, 49}";
type = Stem;
}
);
layerId = "A9A9B55F-A222-44B0-A0B6-968BE501F3F8";
paths = (
{
closed = 1;
nodes = (
"783 418 OFFCURVE",
"813 451 OFFCURVE",
"814 475 CURVE SMOOTH",
"816 517 OFFCURVE",
"755 528 OFFCURVE",
"727 531 CURVE",
"720 545 OFFCURVE",
"707 553 OFFCURVE",
"692 553 CURVE SMOOTH",
"681 553 OFFCURVE",
"672 545 OFFCURVE",
"669 534 CURVE",
"534 497 OFFCURVE",
"228 367 OFFCURVE",
"222 181 CURVE SMOOTH",
"221 170 OFFCURVE",
"225 158 OFFCURVE",
"231 149 CURVE",
"117 108 OFFCURVE",
"-124 10 OFFCURVE",
"-130 -149 CURVE SMOOTH",
"-133 -257 OFFCURVE",
"-41 -277 OFFCURVE",
"36 -277 CURVE SMOOTH",
"319 -277 OFFCURVE",
"566 -62 OFFCURVE",
"663 236 CURVE",
"674 237 OFFCURVE",
"685 238 OFFCURVE",
"696 238 CURVE SMOOTH",
"726 239 OFFCURVE",
"747 228 OFFCURVE",
"750 242 CURVE SMOOTH",
"755 263 OFFCURVE",
"706 265 OFFCURVE",
"681 265 CURVE SMOOTH",
"671 265 LINE",
"692 338 OFFCURVE",
"718 434 OFFCURVE",
"728 510 CURVE",
"732 510 LINE SMOOTH",
"746 510 OFFCURVE",
"772 494 OFFCURVE",
"775 474 CURVE SMOOTH",
"779 446 OFFCURVE",
"765 439 OFFCURVE",
"758 432 CURVE SMOOTH",
"753 427 OFFCURVE",
"755 418 OFFCURVE",
"762 418 CURVE SMOOTH"
);
},
{
closed = 1;
nodes = (
"556 244 LINE",
"580 268 OFFCURVE",
"602 294 OFFCURVE",
"623 322 CURVE",
"606 254 LINE"
);
},
{
closed = 1;
nodes = (
"397 392 OFFCURVE",
"539 474 OFFCURVE",
"670 509 CURVE",
"637 349 OFFCURVE",
"557 289 OFFCURVE",
"481 226 CURVE",
"414 209 OFFCURVE",
"368 192 OFFCURVE",
"301 170 CURVE",
"255 175 OFFCURVE",
"300 242 OFFCURVE",
"315 266 CURVE SMOOTH"
);
},
{
closed = 1;
nodes = (
"600 227 LINE",
"515 -48 OFFCURVE",
"327 -248 OFFCURVE",
"59 -248 CURVE SMOOTH",
"1 -248 OFFCURVE",
"-75 -221 OFFCURVE",
"-72 -136 CURVE SMOOTH",
"-68 -2 OFFCURVE",
"145 90 OFFCURVE",
"241 124 CURVE",
"255 112 OFFCURVE",
"274 107 OFFCURVE",
"293 107 CURVE SMOOTH",
"364 107 OFFCURVE",
"454 157 OFFCURVE",
"510 204 CURVE"
);
},
{
closed = 1;
nodes = (
"789 634 OFFCURVE",
"761 663 OFFCURVE",
"753 678 CURVE SMOOTH",
"742 697 OFFCURVE",
"720 678 OFFCURVE",
"666 646 CURVE SMOOTH",
"623 619 OFFCURVE",
"594 597 OFFCURVE",
"593 592 CURVE SMOOTH",
"591 587 OFFCURVE",
"593 585 OFFCURVE",
"598 585 CURVE SMOOTH",
"604 585 OFFCURVE",
"641 604 OFFCURVE",
"713 648 CURVE",
"719 638 OFFCURVE",
"733 624 OFFCURVE",
"756 607 CURVE SMOOTH",
"758 606 OFFCURVE",
"779 588 OFFCURVE",
"795 582 CURVE",
"809 573 OFFCURVE",
"832 588 OFFCURVE",
"822 601 CURVE"
);
}
);
width = 695;
}
);
note = Gcircumflex;
unicode = 011C;
},
{
color = 4;
glyphname = Gcommaaccent;
lastChange = "2021-04-21 04:42:14 +0000";
layers = (
{
hints = (
{
horizontal = 1;
place = "{-277, 47}";
type = Stem;
},
{
horizontal = 1;
place = "{227, 38}";
type = Stem;
},
{
place = "{-152, 57}";
type = Stem;
},
{
place = "{163, 44}";
type = Stem;
},
{
place = "{722, 49}";
type = Stem;
},
{
place = "{-197, 57}";
type = Stem;
},
{
place = "{144, 58}";
type = Stem;
},
{
place = "{677, 49}";
type = Stem;
}
);
layerId = "A9A9B55F-A222-44B0-A0B6-968BE501F3F8";
paths = (
{
closed = 1;
nodes = (
"783 418 OFFCURVE",
"813 451 OFFCURVE",
"814 475 CURVE SMOOTH",
"816 517 OFFCURVE",
"755 528 OFFCURVE",
"727 531 CURVE",
"720 545 OFFCURVE",
"707 553 OFFCURVE",
"692 553 CURVE SMOOTH",
"681 553 OFFCURVE",
"672 545 OFFCURVE",
"669 534 CURVE",
"534 497 OFFCURVE",
"228 367 OFFCURVE",
"222 181 CURVE SMOOTH",
"221 170 OFFCURVE",
"225 158 OFFCURVE",
"231 149 CURVE",
"117 108 OFFCURVE",
"-124 10 OFFCURVE",
"-130 -149 CURVE SMOOTH",
"-133 -257 OFFCURVE",
"-41 -277 OFFCURVE",
"36 -277 CURVE SMOOTH",
"319 -277 OFFCURVE",
"566 -62 OFFCURVE",
"663 236 CURVE",
"674 237 OFFCURVE",
"685 238 OFFCURVE",
"696 238 CURVE SMOOTH",
"726 239 OFFCURVE",
"747 228 OFFCURVE",
"750 242 CURVE SMOOTH",
"755 263 OFFCURVE",
"706 265 OFFCURVE",
"681 265 CURVE SMOOTH",
"671 265 LINE",
"692 338 OFFCURVE",
"718 434 OFFCURVE",
"728 510 CURVE",
"732 510 LINE SMOOTH",
"746 510 OFFCURVE",
"772 494 OFFCURVE",
"775 474 CURVE SMOOTH",
"779 446 OFFCURVE",
"765 439 OFFCURVE",
"758 432 CURVE SMOOTH",
"753 427 OFFCURVE",
"755 418 OFFCURVE",
"762 418 CURVE SMOOTH"
);
},
{
closed = 1;
nodes = (
"556 244 LINE",
"580 268 OFFCURVE",
"602 294 OFFCURVE",
"623 322 CURVE",
"606 254 LINE"
);
},
{
closed = 1;
nodes = (
"397 392 OFFCURVE",
"539 474 OFFCURVE",
"670 509 CURVE",
"637 349 OFFCURVE",
"557 289 OFFCURVE",
"481 226 CURVE",
"414 209 OFFCURVE",
"368 192 OFFCURVE",
"301 170 CURVE",
"255 175 OFFCURVE",
"300 242 OFFCURVE",
"315 266 CURVE SMOOTH"
);
},
{
closed = 1;
nodes = (
"600 227 LINE",
"515 -48 OFFCURVE",
"327 -248 OFFCURVE",
"59 -248 CURVE SMOOTH",
"1 -248 OFFCURVE",
"-75 -221 OFFCURVE",
"-72 -136 CURVE SMOOTH",
"-68 -2 OFFCURVE",
"145 90 OFFCURVE",
"241 124 CURVE",
"255 112 OFFCURVE",
"274 107 OFFCURVE",
"293 107 CURVE SMOOTH",
"364 107 OFFCURVE",
"454 157 OFFCURVE",
"510 204 CURVE"
);
},
{
closed = 1;
nodes = (
"223 9 OFFCURVE",
"237 25 OFFCURVE",
"255 25 CURVE SMOOTH",
"270 25 OFFCURVE",
"278 15 OFFCURVE",
"277 2 CURVE SMOOTH",
"276 -13 OFFCURVE",
"269 -30 OFFCURVE",
"243 -56 CURVE SMOOTH",
"226 -73 OFFCURVE",
"210 -87 OFFCURVE",
"201 -93 CURVE",
"190 -96 OFFCURVE",
"179 -91 OFFCURVE",
"196 -82 CURVE",
"197 -81 OFFCURVE",
"230 -52 OFFCURVE",
"238 -25 CURVE",
"228 -21 OFFCURVE",
"223 -14 OFFCURVE",
"223 -6 CURVE SMOOTH"
);
}
);
width = 695;
}
);
note = Gcommaaccent;
unicode = 0122;
},
{
color = 4;
glyphname = Gdotaccent;
lastChange = "2021-04-21 04:42:14 +0000";
layers = (
{
hints = (
{
horizontal = 1;
place = "{-277, 47}";
type = Stem;
},
{
horizontal = 1;
place = "{227, 38}";
type = Stem;
},
{
horizontal = 1;
place = "{605, 67}";
type = Stem;
},
{
place = "{-152, 57}";
type = Stem;
},
{
place = "{189, 58}";
type = Stem;
},
{
place = "{638, 74}";
type = Stem;
},
{
place = "{722, 49}";
type = Stem;
},
{
place = "{-197, 57}";
type = Stem;
},
{
place = "{144, 58}";
type = Stem;
},
{
place = "{677, 49}";
type = Stem;
}
);
layerId = "A9A9B55F-A222-44B0-A0B6-968BE501F3F8";
paths = (
{
closed = 1;
nodes = (
"783 418 OFFCURVE",
"813 451 OFFCURVE",
"814 475 CURVE SMOOTH",
"816 517 OFFCURVE",
"755 528 OFFCURVE",
"727 531 CURVE",
"720 545 OFFCURVE",
"707 553 OFFCURVE",
"692 553 CURVE SMOOTH",
"681 553 OFFCURVE",
"672 545 OFFCURVE",
"669 534 CURVE",
"534 497 OFFCURVE",
"228 367 OFFCURVE",
"222 181 CURVE SMOOTH",
"221 170 OFFCURVE",
"225 158 OFFCURVE",
"231 149 CURVE",
"117 108 OFFCURVE",
"-124 10 OFFCURVE",
"-130 -149 CURVE SMOOTH",
"-133 -257 OFFCURVE",
"-41 -277 OFFCURVE",
"36 -277 CURVE SMOOTH",
"319 -277 OFFCURVE",
"566 -62 OFFCURVE",
"663 236 CURVE",
"674 237 OFFCURVE",
"685 238 OFFCURVE",
"696 238 CURVE SMOOTH",
"726 239 OFFCURVE",
"747 228 OFFCURVE",
"750 242 CURVE SMOOTH",
"755 263 OFFCURVE",
"706 265 OFFCURVE",
"681 265 CURVE SMOOTH",
"671 265 LINE",
"692 338 OFFCURVE",
"718 434 OFFCURVE",
"728 510 CURVE",
"732 510 LINE SMOOTH",
"746 510 OFFCURVE",
"772 494 OFFCURVE",
"775 474 CURVE SMOOTH",
"779 446 OFFCURVE",
"765 439 OFFCURVE",
"758 432 CURVE SMOOTH",
"753 427 OFFCURVE",
"755 418 OFFCURVE",
"762 418 CURVE SMOOTH"
);
},
{
closed = 1;
nodes = (
"556 244 LINE",
"580 268 OFFCURVE",
"602 294 OFFCURVE",
"623 322 CURVE",
"606 254 LINE"
);
},
{
closed = 1;
nodes = (
"397 392 OFFCURVE",
"539 474 OFFCURVE",
"670 509 CURVE",
"637 349 OFFCURVE",
"557 289 OFFCURVE",
"481 226 CURVE",
"414 209 OFFCURVE",
"368 192 OFFCURVE",
"301 170 CURVE",
"255 175 OFFCURVE",
"300 242 OFFCURVE",
"315 266 CURVE SMOOTH"
);
},
{
closed = 1;
nodes = (
"600 227 LINE",
"515 -48 OFFCURVE",
"327 -248 OFFCURVE",
"59 -248 CURVE SMOOTH",
"1 -248 OFFCURVE",
"-75 -221 OFFCURVE",
"-72 -136 CURVE SMOOTH",
"-68 -2 OFFCURVE",
"145 90 OFFCURVE",
"241 124 CURVE",
"255 112 OFFCURVE",
"274 107 OFFCURVE",
"293 107 CURVE SMOOTH",
"364 107 OFFCURVE",
"454 157 OFFCURVE",
"510 204 CURVE"
);
},
{
closed = 1;
nodes = (
"667 609 OFFCURVE",
"678 595 OFFCURVE",
"695 595 CURVE SMOOTH",
"712 595 OFFCURVE",
"728 609 OFFCURVE",
"731 627 CURVE SMOOTH",
"734 645 OFFCURVE",
"723 659 OFFCURVE",
"705 659 CURVE SMOOTH",
"687 659 OFFCURVE",
"672 645 OFFCURVE",
"669 627 CURVE SMOOTH"
);
}
);
width = 695;
}
);
note = Gdotaccent;
unicode = 0120;
},
{
color = 4;
glyphname = H;
lastChange = "2021-04-21 04:42:14 +0000";
layers = (
{
hints = (
{
horizontal = 1;
place = "{-102, 37}";
type = Stem;
},
{
horizontal = 1;
place = "{-59, 33}";
type = Stem;
},
{
horizontal = 1;
place = "{226, 37}";
type = Stem;
},
{
horizontal = 1;
place = "{480, 38}";
type = Stem;
},
{
horizontal = 1;
place = "{541, -20}";
target = down;
type = TopGhost;
},
{
place = "{-26, 51}";
type = Stem;
},
{
place = "{667, 57}";
type = Stem;
},
{
place = "{742, 42}";
type = Stem;
},
{
place = "{880, 46}";
type = Stem;
}
);
layerId = "A9A9B55F-A222-44B0-A0B6-968BE501F3F8";
paths = (
{
closed = 1;
nodes = (
"953 315 OFFCURVE",
"1019 405 OFFCURVE",
"1091 489 CURVE SMOOTH",
"1099 499 OFFCURVE",
"1119 518 OFFCURVE",
"1121 530 CURVE",
"1120 541 OFFCURVE",
"1108 541 OFFCURVE",
"1101 541 CURVE SMOOTH",
"1081 541 OFFCURVE",
"1059 539 OFFCURVE",
"1043 524 CURVE SMOOTH",
"983 472 OFFCURVE",
"896 309 OFFCURVE",
"858 233 CURVE",
"812 246 OFFCURVE",
"765 253 OFFCURVE",
"719 258 CURVE",
"743 313 OFFCURVE",
"773 386 OFFCURVE",
"775 447 CURVE SMOOTH",
"777 489 OFFCURVE",
"762 518 OFFCURVE",
"721 518 CURVE SMOOTH",
"704 518 OFFCURVE",
"624 497 OFFCURVE",
"623 474 CURVE SMOOTH",
"623 466 OFFCURVE",
"629 464 OFFCURVE",
"636 468 CURVE SMOOTH",
"655 479 OFFCURVE",
"669 488 OFFCURVE",
"692 488 CURVE SMOOTH",
"709 488 OFFCURVE",
"719 465 OFFCURVE",
"718 448 CURVE SMOOTH",
"716 392 OFFCURVE",
"680 314 OFFCURVE",
"656 263 CURVE",
"523 271 OFFCURVE",
"18 257 OFFCURVE",
"11 41 CURVE SMOOTH",
"7 -68 OFFCURVE",
"127 -102 OFFCURVE",
"206 -102 CURVE SMOOTH",
"421 -102 OFFCURVE",
"605 75 OFFCURVE",
"708 235 CURVE",
"756 231 OFFCURVE",
"803 224 OFFCURVE",
"849 212 CURVE",
"825 160 OFFCURVE",
"779 65 OFFCURVE",
"777 8 CURVE SMOOTH",
"775 -34 OFFCURVE",
"793 -52 OFFCURVE",
"831 -55 CURVE SMOOTH",
"857 -57 OFFCURVE",
"893 -38 OFFCURVE",
"900 -19 CURVE SMOOTH",
"903 -11 OFFCURVE",
"900 -5 OFFCURVE",
"894 -10 CURVE SMOOTH",
"871 -27 OFFCURVE",
"856 -33 OFFCURVE",
"839 -33 CURVE SMOOTH",
"823 -33 OFFCURVE",
"819 -10 OFFCURVE",
"820 3 CURVE SMOOTH",
"821 56 OFFCURVE",
"868 150 OFFCURVE",
"892 197 CURVE",
"904 192 OFFCURVE",
"936 174 OFFCURVE",
"937 157 CURVE SMOOTH",
"939 141 OFFCURVE",
"935 123 OFFCURVE",
"931 117 CURVE SMOOTH",
"918 101 OFFCURVE",
"940 102 OFFCURVE",
"950 115 CURVE SMOOTH",
"956 124 OFFCURVE",
"960 136 OFFCURVE",
"961 151 CURVE SMOOTH",
"962 185 OFFCURVE",
"924 205 OFFCURVE",
"900 216 CURVE"
);
},
{
closed = 1;
nodes = (
"611 241 OFFCURVE",
"627 240 OFFCURVE",
"643 239 CURVE",
"553 90 OFFCURVE",
"425 -81 OFFCURVE",
"201 -81 CURVE SMOOTH",
"147 -81 OFFCURVE",
"51 -58 OFFCURVE",
"54 24 CURVE SMOOTH",
"61 202 OFFCURVE",
"488 241 OFFCURVE",
"596 241 CURVE SMOOTH"
);
}
);
width = 955;
}
);
note = H;
unicode = 0048;
},
{
color = 4;
glyphname = Hbar;
lastChange = "2021-04-21 04:42:14 +0000";
layers = (
{
hints = (
{
horizontal = 1;
place = "{-102, 37}";
type = Stem;
},
{
horizontal = 1;
place = "{-59, 33}";
type = Stem;
},
{
horizontal = 1;
place = "{227, 37}";
type = Stem;
},
{
horizontal = 1;
place = "{383, 39}";
type = Stem;
},
{
horizontal = 1;
place = "{480, 38}";
type = Stem;
},
{
horizontal = 1;
place = "{541, -20}";
target = down;
type = TopGhost;
},
{
place = "{-26, 51}";
type = Stem;
},
{
place = "{667, 57}";
type = Stem;
},
{
place = "{742, 42}";
type = Stem;
},
{
place = "{880, 46}";
type = Stem;
},
{
horizontal = 1;
place = "{226, 37}";
type = Stem;
},
{
horizontal = 1;
place = "{389, 35}";
type = Stem;
}
);
layerId = "A9A9B55F-A222-44B0-A0B6-968BE501F3F8";
paths = (
{
closed = 1;
nodes = (
"705 383 LINE",
"691 340 OFFCURVE",
"671 296 OFFCURVE",
"656 263 CURVE",
"523 271 OFFCURVE",
"18 257 OFFCURVE",
"11 41 CURVE SMOOTH",
"7 -68 OFFCURVE",
"127 -102 OFFCURVE",
"206 -102 CURVE SMOOTH",
"421 -102 OFFCURVE",
"605 75 OFFCURVE",
"708 235 CURVE",
"756 231 OFFCURVE",
"803 224 OFFCURVE",
"849 212 CURVE",
"825 160 OFFCURVE",
"779 65 OFFCURVE",
"777 8 CURVE SMOOTH",
"775 -34 OFFCURVE",
"793 -52 OFFCURVE",
"831 -55 CURVE SMOOTH",
"857 -57 OFFCURVE",
"893 -38 OFFCURVE",
"900 -19 CURVE SMOOTH",
"903 -11 OFFCURVE",
"900 -5 OFFCURVE",
"894 -10 CURVE SMOOTH",
"871 -27 OFFCURVE",
"856 -33 OFFCURVE",
"839 -33 CURVE SMOOTH",
"823 -33 OFFCURVE",
"819 -10 OFFCURVE",
"820 3 CURVE SMOOTH",
"821 56 OFFCURVE",
"868 150 OFFCURVE",
"892 197 CURVE",
"904 192 OFFCURVE",
"936 174 OFFCURVE",
"937 157 CURVE SMOOTH",
"939 141 OFFCURVE",
"935 123 OFFCURVE",
"931 117 CURVE SMOOTH",
"918 101 OFFCURVE",
"940 102 OFFCURVE",
"950 115 CURVE SMOOTH",
"956 124 OFFCURVE",
"960 136 OFFCURVE",
"961 151 CURVE SMOOTH",
"962 185 OFFCURVE",
"924 205 OFFCURVE",
"900 216 CURVE",
"932 277 OFFCURVE",
"970 336 OFFCURVE",
"1012 391 CURVE",
"1047 394 OFFCURVE",
"1090 399 OFFCURVE",
"1091 406 CURVE SMOOTH",
"1091 413 OFFCURVE",
"1068 417 OFFCURVE",
"1034 420 CURVE",
"1053 444 OFFCURVE",
"1071 466 OFFCURVE",
"1091 489 CURVE SMOOTH",
"1099 499 OFFCURVE",
"1119 518 OFFCURVE",
"1121 530 CURVE",
"1120 541 OFFCURVE",
"1108 541 OFFCURVE",
"1101 541 CURVE SMOOTH",
"1081 541 OFFCURVE",
"1059 539 OFFCURVE",
"1043 524 CURVE SMOOTH",
"1020 503 OFFCURVE",
"992 466 OFFCURVE",
"964 424 CURVE",
"897 425 OFFCURVE",
"823 424 OFFCURVE",
"805 424 CURVE SMOOTH",
"773 424 LINE",
"775 432 OFFCURVE",
"775 439 OFFCURVE",
"775 447 CURVE SMOOTH",
"777 489 OFFCURVE",
"762 518 OFFCURVE",
"721 518 CURVE SMOOTH",
"704 518 OFFCURVE",
"624 497 OFFCURVE",
"623 474 CURVE SMOOTH",
"623 466 OFFCURVE",
"629 464 OFFCURVE",
"636 468 CURVE SMOOTH",
"655 479 OFFCURVE",
"669 488 OFFCURVE",
"692 488 CURVE SMOOTH",
"709 488 OFFCURVE",
"719 465 OFFCURVE",
"718 448 CURVE SMOOTH",
"718 440 OFFCURVE",
"717 431 OFFCURVE",
"715 423 CURVE",
"663 421 OFFCURVE",
"630 415 OFFCURVE",
"629 398 CURVE SMOOTH",
"629 382 OFFCURVE",
"679 383 OFFCURVE",
"695 383 CURVE SMOOTH"
);
},
{
closed = 1;
nodes = (
"611 241 OFFCURVE",
"627 240 OFFCURVE",
"643 239 CURVE",
"553 90 OFFCURVE",
"425 -81 OFFCURVE",
"201 -81 CURVE SMOOTH",
"147 -81 OFFCURVE",
"51 -58 OFFCURVE",
"54 24 CURVE SMOOTH",
"61 202 OFFCURVE",
"488 241 OFFCURVE",
"596 241 CURVE SMOOTH"
);
},
{
closed = 1;
nodes = (
"812 246 OFFCURVE",
"765 253 OFFCURVE",
"719 258 CURVE",
"735 294 OFFCURVE",
"753 339 OFFCURVE",
"765 383 CURVE",
"826 383 OFFCURVE",
"883 385 OFFCURVE",
"943 388 CURVE",
"908 331 OFFCURVE",
"877 271 OFFCURVE",
"858 233 CURVE"
);
}
);
width = 955;
}
);
note = Hbar;
unicode = 0126;
},
{
color = 4;
glyphname = Hcircumflex;
lastChange = "2021-04-21 04:42:14 +0000";
layers = (
{
hints = (
{
horizontal = 1;
place = "{-102, 37}";
type = Stem;
},
{
horizontal = 1;
place = "{-59, 33}";
type = Stem;
},
{
horizontal = 1;
place = "{227, 37}";
type = Stem;
},
{
horizontal = 1;
place = "{480, 38}";
type = Stem;
},
{
place = "{-26, 51}";
type = Stem;
},
{
place = "{667, 57}";
type = Stem;
},
{
place = "{742, 42}";
type = Stem;
},
{
place = "{880, 46}";
type = Stem;
}
);
layerId = "A9A9B55F-A222-44B0-A0B6-968BE501F3F8";
paths = (
{
closed = 1;
nodes = (
"953 315 OFFCURVE",
"1019 405 OFFCURVE",
"1091 489 CURVE SMOOTH",
"1099 499 OFFCURVE",
"1119 518 OFFCURVE",
"1121 530 CURVE",
"1120 541 OFFCURVE",
"1108 541 OFFCURVE",
"1101 541 CURVE SMOOTH",
"1081 541 OFFCURVE",
"1059 539 OFFCURVE",
"1043 524 CURVE SMOOTH",
"983 472 OFFCURVE",
"896 309 OFFCURVE",
"858 233 CURVE",
"812 246 OFFCURVE",
"765 253 OFFCURVE",
"719 258 CURVE",
"743 313 OFFCURVE",
"773 386 OFFCURVE",
"775 447 CURVE SMOOTH",
"777 489 OFFCURVE",
"762 518 OFFCURVE",
"721 518 CURVE SMOOTH",
"704 518 OFFCURVE",
"624 497 OFFCURVE",
"623 474 CURVE SMOOTH",
"623 466 OFFCURVE",
"629 464 OFFCURVE",
"636 468 CURVE SMOOTH",
"655 479 OFFCURVE",
"669 488 OFFCURVE",
"692 488 CURVE SMOOTH",
"709 488 OFFCURVE",
"719 465 OFFCURVE",
"718 448 CURVE SMOOTH",
"716 392 OFFCURVE",
"680 314 OFFCURVE",
"656 263 CURVE",
"523 271 OFFCURVE",
"18 257 OFFCURVE",
"11 41 CURVE SMOOTH",
"7 -68 OFFCURVE",
"127 -102 OFFCURVE",
"206 -102 CURVE SMOOTH",
"421 -102 OFFCURVE",
"605 75 OFFCURVE",
"708 235 CURVE",
"756 231 OFFCURVE",
"803 224 OFFCURVE",
"849 212 CURVE",
"825 160 OFFCURVE",
"779 65 OFFCURVE",
"777 8 CURVE SMOOTH",
"775 -34 OFFCURVE",
"793 -52 OFFCURVE",
"831 -55 CURVE SMOOTH",
"857 -57 OFFCURVE",
"893 -38 OFFCURVE",
"900 -19 CURVE SMOOTH",
"903 -11 OFFCURVE",
"900 -5 OFFCURVE",
"894 -10 CURVE SMOOTH",
"871 -27 OFFCURVE",
"856 -33 OFFCURVE",
"839 -33 CURVE SMOOTH",
"823 -33 OFFCURVE",
"819 -10 OFFCURVE",
"820 3 CURVE SMOOTH",
"821 56 OFFCURVE",
"868 150 OFFCURVE",
"892 197 CURVE",
"904 192 OFFCURVE",
"936 174 OFFCURVE",
"937 157 CURVE SMOOTH",
"939 141 OFFCURVE",
"935 123 OFFCURVE",
"931 117 CURVE SMOOTH",
"918 101 OFFCURVE",
"940 102 OFFCURVE",
"950 115 CURVE SMOOTH",
"956 124 OFFCURVE",
"960 136 OFFCURVE",
"961 151 CURVE SMOOTH",
"962 185 OFFCURVE",
"924 205 OFFCURVE",
"900 216 CURVE"
);
},
{
closed = 1;
nodes = (
"611 241 OFFCURVE",
"627 240 OFFCURVE",
"643 239 CURVE",
"553 90 OFFCURVE",
"425 -81 OFFCURVE",
"201 -81 CURVE SMOOTH",
"147 -81 OFFCURVE",
"51 -58 OFFCURVE",
"54 24 CURVE SMOOTH",
"61 202 OFFCURVE",
"488 241 OFFCURVE",
"596 241 CURVE SMOOTH"
);
},
{
closed = 1;
nodes = (
"944 606 OFFCURVE",
"916 635 OFFCURVE",
"908 650 CURVE SMOOTH",
"897 669 OFFCURVE",
"875 650 OFFCURVE",
"821 618 CURVE SMOOTH",
"778 591 OFFCURVE",
"749 569 OFFCURVE",
"748 564 CURVE SMOOTH",
"746 559 OFFCURVE",
"748 557 OFFCURVE",
"753 557 CURVE SMOOTH",
"759 557 OFFCURVE",
"796 576 OFFCURVE",
"868 620 CURVE",
"874 610 OFFCURVE",
"888 596 OFFCURVE",
"911 579 CURVE SMOOTH",
"913 578 OFFCURVE",
"934 560 OFFCURVE",
"950 554 CURVE",
"964 545 OFFCURVE",
"987 560 OFFCURVE",
"977 573 CURVE"
);
}
);
width = 904;
}
);
note = Hcircumflex;
unicode = 0124;
},
{
color = 4;
glyphname = I;
lastChange = "2021-04-21 04:42:14 +0000";
layers = (
{
hints = (
{
horizontal = 1;
place = "{-46, 33}";
type = Stem;
},
{
horizontal = 1;
place = "{547, -20}";
target = down;
type = TopGhost;
},
{
place = "{171, 58}";
type = Stem;
}
);
layerId = "A9A9B55F-A222-44B0-A0B6-968BE501F3F8";
paths = (
{
closed = 1;
nodes = (
"344 -20 OFFCURVE",
"327 -25 OFFCURVE",
"308 -23 CURVE SMOOTH",
"292 -21 OFFCURVE",
"285 -6 OFFCURVE",
"284 3 CURVE",
"304 5 OFFCURVE",
"339 5 OFFCURVE",
"359 6 CURVE"
);
},
{
closed = 1;
nodes = (
"607 535 LINE",
"608 547 OFFCURVE",
"593 547 OFFCURVE",
"586 547 CURVE SMOOTH",
"567 547 OFFCURVE",
"544 546 OFFCURVE",
"527 530 CURVE",
"474 533 OFFCURVE",
"187 541 OFFCURVE",
"186 456 CURVE SMOOTH",
"186 408 OFFCURVE",
"264 386 OFFCURVE",
"287 382 CURVE SMOOTH",
"313 377 OFFCURVE",
"328 388 OFFCURVE",
"305 396 CURVE SMOOTH",
"251 415 OFFCURVE",
"234 429 OFFCURVE",
"235 449 CURVE SMOOTH",
"237 491 OFFCURVE",
"457 494 OFFCURVE",
"490 494 CURVE SMOOTH",
"497 494 LINE",
"416 395 OFFCURVE",
"276 167 OFFCURVE",
"252 41 CURVE",
"216 35 OFFCURVE",
"-1 0 OFFCURVE",
"-2 -30 CURVE SMOOTH",
"-2 -43 OFFCURVE",
"6 -39 OFFCURVE",
"17 -37 CURVE SMOOTH",
"101 -18 OFFCURVE",
"173 -9 OFFCURVE",
"250 0 CURVE",
"254 -31 OFFCURVE",
"274 -42 OFFCURVE",
"302 -46 CURVE SMOOTH",
"332 -50 OFFCURVE",
"370 -28 OFFCURVE",
"370 -7 CURVE SMOOTH",
"370 -1 OFFCURVE",
"368 4 OFFCURVE",
"363 7 CURVE",
"371 7 LINE SMOOTH",
"417 7 OFFCURVE",
"462 3 OFFCURVE",
"504 -12 CURVE",
"506 -12 OFFCURVE",
"508 -13 OFFCURVE",
"510 -13 CURVE SMOOTH",
"519 -13 OFFCURVE",
"526 2 OFFCURVE",
"526 10 CURVE SMOOTH",
"528 61 OFFCURVE",
"423 55 OFFCURVE",
"391 54 CURVE SMOOTH",
"359 54 OFFCURVE",
"328 51 OFFCURVE",
"296 47 CURVE",
"336 196 OFFCURVE",
"474 384 OFFCURVE",
"573 493 CURVE",
"627 493 OFFCURVE",
"688 488 OFFCURVE",
"756 478 CURVE SMOOTH",
"764 477 OFFCURVE",
"774 481 OFFCURVE",
"775 492 CURVE SMOOTH",
"776 518 OFFCURVE",
"628 524 OFFCURVE",
"603 525 CURVE"
);
}
);
width = 509;
}
);
leftKerningGroup = I;
note = I;
rightKerningGroup = I;
unicode = 0049;
},
{
color = 4;
glyphname = IJ;
lastChange = "2021-04-21 04:42:14 +0000";
layers = (
{
hints = (
{
horizontal = 1;
place = "{-362, 27}";
type = Stem;
},
{
horizontal = 1;
place = "{-46, 33}";
type = Stem;
},
{
horizontal = 1;
place = "{70, 33}";
type = Stem;
},
{
horizontal = 1;
place = "{137, 34}";
type = Stem;
},
{
horizontal = 1;
place = "{493, 37}";
type = Stem;
},
{
place = "{171, 58}";
type = Stem;
},
{
place = "{391, 48}";
type = Stem;
},
{
place = "{524, 41}";
type = Stem;
},
{
place = "{1021, 55}";
type = Stem;
},
{
horizontal = 1;
place = "{508, 32}";
type = Stem;
},
{
place = "{398, 48}";
type = Stem;
},
{
place = "{530, 42}";
type = Stem;
},
{
place = "{1028, 55}";
type = Stem;
}
);
layerId = "A9A9B55F-A222-44B0-A0B6-968BE501F3F8";
paths = (
{
closed = 1;
nodes = (
"1110 61 OFFCURVE",
"1117 68 OFFCURVE",
"1116 77 CURVE SMOOTH",
"1114 94 OFFCURVE",
"1075 103 OFFCURVE",
"1059 103 CURVE SMOOTH",
"1046 103 LINE",
"1075 180 OFFCURVE",
"1097 268 OFFCURVE",
"1100 350 CURVE SMOOTH",
"1104 471 OFFCURVE",
"1054 540 OFFCURVE",
"939 540 CURVE SMOOTH",
"811 540 OFFCURVE",
"544 406 OFFCURVE",
"538 235 CURVE SMOOTH",
"535 166 OFFCURVE",
"593 133 OFFCURVE",
"648 133 CURVE SMOOTH",
"706 133 OFFCURVE",
"800 181 OFFCURVE",
"835 229 CURVE SMOOTH",
"846 243 OFFCURVE",
"836 250 OFFCURVE",
"822 242 CURVE",
"785 210 OFFCURVE",
"710 163 OFFCURVE",
"650 163 CURVE SMOOTH",
"616 163 OFFCURVE",
"578 176 OFFCURVE",
"579 223 CURVE SMOOTH",
"584 359 OFFCURVE",
"801 518 OFFCURVE",
"938 518 CURVE SMOOTH",
"1020 518 OFFCURVE",
"1049 439 OFFCURVE",
"1046 358 CURVE SMOOTH",
"1043 280 OFFCURVE",
"1017 174 OFFCURVE",
"988 102 CURVE",
"835 77 OFFCURVE",
"448 -34 OFFCURVE",
"391 -214 CURVE SMOOTH",
"356 -325 OFFCURVE",
"441 -362 OFFCURVE",
"518 -362 CURVE SMOOTH",
"728 -362 OFFCURVE",
"951 -125 OFFCURVE",
"1037 75 CURVE",
"1060 78 OFFCURVE",
"1084 74 OFFCURVE",
"1101 61 CURVE"
);
},
{
closed = 1;
nodes = (
"466 -72 OFFCURVE",
"837 50 OFFCURVE",
"978 72 CURVE",
"909 -96 OFFCURVE",
"734 -334 OFFCURVE",
"522 -341 CURVE SMOOTH",
"456 -343 OFFCURVE",
"421 -308 OFFCURVE",
"432 -252 CURVE SMOOTH"
);
},
{
closed = 1;
nodes = (
"344 -20 OFFCURVE",
"327 -25 OFFCURVE",
"308 -23 CURVE SMOOTH",
"292 -21 OFFCURVE",
"285 -6 OFFCURVE",
"284 3 CURVE",
"304 5 OFFCURVE",
"339 5 OFFCURVE",
"359 6 CURVE"
);
},
{
closed = 1;
nodes = (
"607 535 LINE",
"608 547 OFFCURVE",
"593 547 OFFCURVE",
"586 547 CURVE SMOOTH",
"567 547 OFFCURVE",
"544 546 OFFCURVE",
"527 530 CURVE",
"474 533 OFFCURVE",
"187 541 OFFCURVE",
"186 456 CURVE SMOOTH",
"186 408 OFFCURVE",
"264 386 OFFCURVE",
"287 382 CURVE SMOOTH",
"313 377 OFFCURVE",
"328 388 OFFCURVE",
"305 396 CURVE SMOOTH",
"251 415 OFFCURVE",
"234 429 OFFCURVE",
"235 449 CURVE SMOOTH",
"237 491 OFFCURVE",
"457 494 OFFCURVE",
"490 494 CURVE SMOOTH",
"497 494 LINE",
"416 395 OFFCURVE",
"276 167 OFFCURVE",
"252 41 CURVE",
"216 35 OFFCURVE",
"-1 0 OFFCURVE",
"-2 -30 CURVE SMOOTH",
"-2 -43 OFFCURVE",
"6 -39 OFFCURVE",
"17 -37 CURVE SMOOTH",
"101 -18 OFFCURVE",
"173 -9 OFFCURVE",
"250 0 CURVE",
"254 -31 OFFCURVE",
"274 -42 OFFCURVE",
"302 -46 CURVE SMOOTH",
"332 -50 OFFCURVE",
"370 -28 OFFCURVE",
"370 -7 CURVE SMOOTH",
"370 -1 OFFCURVE",
"368 4 OFFCURVE",
"363 7 CURVE",
"371 7 LINE SMOOTH",
"417 7 OFFCURVE",
"462 3 OFFCURVE",
"504 -12 CURVE",
"506 -12 OFFCURVE",
"508 -13 OFFCURVE",
"510 -13 CURVE SMOOTH",
"519 -13 OFFCURVE",
"526 2 OFFCURVE",
"526 10 CURVE SMOOTH",
"528 61 OFFCURVE",
"423 55 OFFCURVE",
"391 54 CURVE SMOOTH",
"359 54 OFFCURVE",
"328 51 OFFCURVE",
"296 47 CURVE",
"336 196 OFFCURVE",
"474 384 OFFCURVE",
"573 493 CURVE",
"627 493 OFFCURVE",
"688 488 OFFCURVE",
"756 478 CURVE SMOOTH",
"764 477 OFFCURVE",
"774 481 OFFCURVE",
"775 492 CURVE SMOOTH",
"776 518 OFFCURVE",
"628 524 OFFCURVE",
"603 525 CURVE"
);
}
);
width = 1124;
}
);
note = IJ;
unicode = 0132;
},
{
color = 4;
glyphname = Iacute;
lastChange = "2021-04-21 04:42:14 +0000";
layers = (
{
hints = (
{
horizontal = 1;
place = "{-46, 33}";
type = Stem;
},
{
horizontal = 1;
place = "{493, 37}";
type = Stem;
},
{
place = "{171, 58}";
type = Stem;
}
);
layerId = "A9A9B55F-A222-44B0-A0B6-968BE501F3F8";
paths = (
{
closed = 1;
nodes = (
"344 -20 OFFCURVE",
"327 -25 OFFCURVE",
"308 -23 CURVE SMOOTH",
"292 -21 OFFCURVE",
"285 -6 OFFCURVE",
"284 3 CURVE",
"304 5 OFFCURVE",
"339 5 OFFCURVE",
"359 6 CURVE"
);
},
{
closed = 1;
nodes = (
"607 535 LINE",
"608 547 OFFCURVE",
"593 547 OFFCURVE",
"586 547 CURVE SMOOTH",
"567 547 OFFCURVE",
"544 546 OFFCURVE",
"527 530 CURVE",
"474 533 OFFCURVE",
"187 541 OFFCURVE",
"186 456 CURVE SMOOTH",
"186 408 OFFCURVE",
"264 386 OFFCURVE",
"287 382 CURVE SMOOTH",
"313 377 OFFCURVE",
"328 388 OFFCURVE",
"305 396 CURVE SMOOTH",
"251 415 OFFCURVE",
"234 429 OFFCURVE",
"235 449 CURVE SMOOTH",
"237 491 OFFCURVE",
"457 494 OFFCURVE",
"490 494 CURVE SMOOTH",
"497 494 LINE",
"416 395 OFFCURVE",
"276 167 OFFCURVE",
"252 41 CURVE",
"216 35 OFFCURVE",
"-1 0 OFFCURVE",
"-2 -30 CURVE SMOOTH",
"-2 -43 OFFCURVE",
"6 -39 OFFCURVE",
"17 -37 CURVE SMOOTH",
"101 -18 OFFCURVE",
"173 -9 OFFCURVE",
"250 0 CURVE",
"254 -31 OFFCURVE",
"274 -42 OFFCURVE",
"302 -46 CURVE SMOOTH",
"332 -50 OFFCURVE",
"370 -28 OFFCURVE",
"370 -7 CURVE SMOOTH",
"370 -1 OFFCURVE",
"368 4 OFFCURVE",
"363 7 CURVE",
"371 7 LINE SMOOTH",
"417 7 OFFCURVE",
"462 3 OFFCURVE",
"504 -12 CURVE",
"506 -12 OFFCURVE",
"508 -13 OFFCURVE",
"510 -13 CURVE SMOOTH",
"519 -13 OFFCURVE",
"526 2 OFFCURVE",
"526 10 CURVE SMOOTH",
"528 61 OFFCURVE",
"423 55 OFFCURVE",
"391 54 CURVE SMOOTH",
"359 54 OFFCURVE",
"328 51 OFFCURVE",
"296 47 CURVE",
"336 196 OFFCURVE",
"474 384 OFFCURVE",
"573 493 CURVE",
"627 493 OFFCURVE",
"688 488 OFFCURVE",
"756 478 CURVE SMOOTH",
"764 477 OFFCURVE",
"774 481 OFFCURVE",
"775 492 CURVE SMOOTH",
"776 518 OFFCURVE",
"628 524 OFFCURVE",
"603 525 CURVE"
);
},
{
closed = 1;
nodes = (
"629 599 OFFCURVE",
"721 649 OFFCURVE",
"736 658 CURVE SMOOTH",
"743 662 OFFCURVE",
"747 671 OFFCURVE",
"747 680 CURVE SMOOTH",
"748 689 OFFCURVE",
"743 696 OFFCURVE",
"734 696 CURVE SMOOTH",
"718 696 OFFCURVE",
"619 624 OFFCURVE",
"614 620 CURVE SMOOTH",
"611 618 OFFCURVE",
"608 614 OFFCURVE",
"608 610 CURVE SMOOTH",
"608 603 OFFCURVE",
"614 599 OFFCURVE",
"619 599 CURVE SMOOTH"
);
}
);
width = 509;
}
);
leftKerningGroup = Iacute;
note = Iacute;
rightKerningGroup = Iacute;
unicode = 00CD;
},
{
color = 4;
glyphname = Ibreve;
lastChange = "2021-04-21 04:42:14 +0000";
layers = (
{
hints = (
{
horizontal = 1;
place = "{-46, 33}";
type = Stem;
},
{
horizontal = 1;
place = "{493, 37}";
type = Stem;
},
{
horizontal = 1;
place = "{637, 31}";
type = Stem;
},
{
place = "{171, 58}";
type = Stem;
},
{
horizontal = 1;
place = "{547, -20}";
target = down;
type = TopGhost;
}
);
layerId = "A9A9B55F-A222-44B0-A0B6-968BE501F3F8";
paths = (
{
closed = 1;
nodes = (
"344 -20 OFFCURVE",
"327 -25 OFFCURVE",
"308 -23 CURVE SMOOTH",
"292 -21 OFFCURVE",
"285 -6 OFFCURVE",
"284 3 CURVE",
"304 5 OFFCURVE",
"339 5 OFFCURVE",
"359 6 CURVE"
);
},
{
closed = 1;
nodes = (
"607 535 LINE",
"608 547 OFFCURVE",
"593 547 OFFCURVE",
"586 547 CURVE SMOOTH",
"567 547 OFFCURVE",
"544 546 OFFCURVE",
"527 530 CURVE",
"474 533 OFFCURVE",
"187 541 OFFCURVE",
"186 456 CURVE SMOOTH",
"186 408 OFFCURVE",
"264 386 OFFCURVE",
"287 382 CURVE SMOOTH",
"313 377 OFFCURVE",
"328 388 OFFCURVE",
"305 396 CURVE SMOOTH",
"251 415 OFFCURVE",
"234 429 OFFCURVE",
"235 449 CURVE SMOOTH",
"237 491 OFFCURVE",
"457 494 OFFCURVE",
"490 494 CURVE SMOOTH",
"497 494 LINE",
"416 395 OFFCURVE",
"276 167 OFFCURVE",
"252 41 CURVE",
"216 35 OFFCURVE",
"-1 0 OFFCURVE",
"-2 -30 CURVE SMOOTH",
"-2 -43 OFFCURVE",
"6 -39 OFFCURVE",
"17 -37 CURVE SMOOTH",
"101 -18 OFFCURVE",
"173 -9 OFFCURVE",
"250 0 CURVE",
"254 -31 OFFCURVE",
"274 -42 OFFCURVE",
"302 -46 CURVE SMOOTH",
"332 -50 OFFCURVE",
"370 -28 OFFCURVE",
"370 -7 CURVE SMOOTH",
"370 -1 OFFCURVE",
"368 4 OFFCURVE",
"363 7 CURVE",
"371 7 LINE SMOOTH",
"417 7 OFFCURVE",
"462 3 OFFCURVE",
"504 -12 CURVE",
"506 -12 OFFCURVE",
"508 -13 OFFCURVE",
"510 -13 CURVE SMOOTH",
"519 -13 OFFCURVE",
"526 2 OFFCURVE",
"526 10 CURVE SMOOTH",
"528 61 OFFCURVE",
"423 55 OFFCURVE",
"391 54 CURVE SMOOTH",
"359 54 OFFCURVE",
"328 51 OFFCURVE",
"296 47 CURVE",
"336 196 OFFCURVE",
"474 384 OFFCURVE",
"573 493 CURVE",
"627 493 OFFCURVE",
"688 488 OFFCURVE",
"756 478 CURVE SMOOTH",
"764 477 OFFCURVE",
"774 481 OFFCURVE",
"775 492 CURVE SMOOTH",
"776 518 OFFCURVE",
"628 524 OFFCURVE",
"603 525 CURVE"
);
},
{
closed = 1;
nodes = (
"681 632 OFFCURVE",
"743 677 OFFCURVE",
"751 709 CURVE",
"752 722 OFFCURVE",
"742 720 OFFCURVE",
"736 713 CURVE SMOOTH",
"712 687 OFFCURVE",
"665 659 OFFCURVE",
"634 659 CURVE SMOOTH",
"619 659 OFFCURVE",
"601 660 OFFCURVE",
"590 671 CURVE SMOOTH",
"583 677 OFFCURVE",
"575 686 OFFCURVE",
"574 703 CURVE SMOOTH",
"573 711 OFFCURVE",
"564 717 OFFCURVE",
"561 717 CURVE SMOOTH",
"548 717 OFFCURVE",
"542 707 OFFCURVE",
"542 696 CURVE SMOOTH",
"540 649 OFFCURVE",
"590 632 OFFCURVE",
"626 632 CURVE SMOOTH"
);
}
);
width = 509;
}
);
leftKerningGroup = Iacute;
note = Ibreve;
rightKerningGroup = Iacute;
unicode = 012C;
},
{
color = 4;
glyphname = Icircumflex;
lastChange = "2021-04-21 04:42:14 +0000";
layers = (
{
hints = (
{
horizontal = 1;
place = "{-46, 33}";
type = Stem;
},
{
horizontal = 1;
place = "{493, 37}";
type = Stem;
},
{
place = "{171, 58}";
type = Stem;
},
{
horizontal = 1;
place = "{547, -20}";
target = down;
type = TopGhost;
}
);
layerId = "A9A9B55F-A222-44B0-A0B6-968BE501F3F8";
paths = (
{
closed = 1;
nodes = (
"335 -4 OFFCURVE",
"324 -14 OFFCURVE",
"305 -14 CURVE SMOOTH",
"296 -14 OFFCURVE",
"291 -6 OFFCURVE",
"291 3 CURVE",
"310 5 OFFCURVE",
"330 6 OFFCURVE",
"350 7 CURVE"
);
},
{
closed = 1;
nodes = (
"344 -20 OFFCURVE",
"327 -25 OFFCURVE",
"308 -23 CURVE SMOOTH",
"292 -21 OFFCURVE",
"285 -6 OFFCURVE",
"284 3 CURVE",
"304 5 OFFCURVE",
"339 5 OFFCURVE",
"359 6 CURVE"
);
},
{
closed = 1;
nodes = (
"607 535 LINE",
"608 547 OFFCURVE",
"593 547 OFFCURVE",
"586 547 CURVE SMOOTH",
"567 547 OFFCURVE",
"544 546 OFFCURVE",
"527 530 CURVE",
"474 533 OFFCURVE",
"187 541 OFFCURVE",
"186 456 CURVE SMOOTH",
"186 408 OFFCURVE",
"264 386 OFFCURVE",
"287 382 CURVE SMOOTH",
"313 377 OFFCURVE",
"328 388 OFFCURVE",
"305 396 CURVE SMOOTH",
"251 415 OFFCURVE",
"234 429 OFFCURVE",
"235 449 CURVE SMOOTH",
"237 491 OFFCURVE",
"457 494 OFFCURVE",
"490 494 CURVE SMOOTH",
"497 494 LINE",
"416 395 OFFCURVE",
"276 167 OFFCURVE",
"252 41 CURVE",
"216 35 OFFCURVE",
"-1 0 OFFCURVE",
"-2 -30 CURVE SMOOTH",
"-2 -43 OFFCURVE",
"6 -39 OFFCURVE",
"17 -37 CURVE SMOOTH",
"101 -18 OFFCURVE",
"173 -9 OFFCURVE",
"250 0 CURVE",
"254 -31 OFFCURVE",
"274 -42 OFFCURVE",
"302 -46 CURVE SMOOTH",
"332 -50 OFFCURVE",
"370 -28 OFFCURVE",
"370 -7 CURVE SMOOTH",
"370 -1 OFFCURVE",
"368 4 OFFCURVE",
"363 7 CURVE",
"371 7 LINE SMOOTH",
"417 7 OFFCURVE",
"462 3 OFFCURVE",
"504 -12 CURVE",
"506 -12 OFFCURVE",
"508 -13 OFFCURVE",
"510 -13 CURVE SMOOTH",
"519 -13 OFFCURVE",
"526 2 OFFCURVE",
"526 10 CURVE SMOOTH",
"528 61 OFFCURVE",
"423 55 OFFCURVE",
"391 54 CURVE SMOOTH",
"359 54 OFFCURVE",
"328 51 OFFCURVE",
"296 47 CURVE",
"336 196 OFFCURVE",
"474 384 OFFCURVE",
"573 493 CURVE",
"627 493 OFFCURVE",
"688 488 OFFCURVE",
"756 478 CURVE SMOOTH",
"764 477 OFFCURVE",
"774 481 OFFCURVE",
"775 492 CURVE SMOOTH",
"776 518 OFFCURVE",
"628 524 OFFCURVE",
"603 525 CURVE"
);
},
{
closed = 1;
nodes = (
"674 635 OFFCURVE",
"646 664 OFFCURVE",
"638 679 CURVE SMOOTH",
"627 698 OFFCURVE",
"605 679 OFFCURVE",
"551 647 CURVE SMOOTH",
"508 620 OFFCURVE",
"479 598 OFFCURVE",
"478 593 CURVE SMOOTH",
"476 588 OFFCURVE",
"478 586 OFFCURVE",
"483 586 CURVE SMOOTH",
"489 586 OFFCURVE",
"526 605 OFFCURVE",
"598 649 CURVE",
"604 639 OFFCURVE",
"618 625 OFFCURVE",
"641 608 CURVE SMOOTH",
"643 607 OFFCURVE",
"664 589 OFFCURVE",
"680 583 CURVE",
"694 574 OFFCURVE",
"717 589 OFFCURVE",
"707 602 CURVE"
);
}
);
width = 509;
}
);
leftKerningGroup = Iacute;
note = Icircumflex;
rightKerningGroup = Iacute;
unicode = 00CE;
},
{
color = 4;
glyphname = Idieresis;
lastChange = "2021-04-21 04:42:14 +0000";
layers = (
{
hints = (
{
horizontal = 1;
place = "{-46, 33}";
type = Stem;
},
{
horizontal = 1;
place = "{493, 37}";
type = Stem;
},
{
horizontal = 1;
place = "{574, 74}";
type = Stem;
},
{
place = "{171, 58}";
type = Stem;
},
{
place = "{465, 74}";
type = Stem;
},
{
place = "{601, 74}";
type = Stem;
},
{
horizontal = 1;
place = "{547, -20}";
target = down;
type = TopGhost;
}
);
layerId = "A9A9B55F-A222-44B0-A0B6-968BE501F3F8";
paths = (
{
closed = 1;
nodes = (
"344 -20 OFFCURVE",
"327 -25 OFFCURVE",
"308 -23 CURVE SMOOTH",
"292 -21 OFFCURVE",
"285 -6 OFFCURVE",
"284 3 CURVE",
"304 5 OFFCURVE",
"339 5 OFFCURVE",
"359 6 CURVE"
);
},
{
closed = 1;
nodes = (
"607 535 LINE",
"608 547 OFFCURVE",
"593 547 OFFCURVE",
"586 547 CURVE SMOOTH",
"567 547 OFFCURVE",
"544 546 OFFCURVE",
"527 530 CURVE",
"474 533 OFFCURVE",
"187 541 OFFCURVE",
"186 456 CURVE SMOOTH",
"186 408 OFFCURVE",
"264 386 OFFCURVE",
"287 382 CURVE SMOOTH",
"313 377 OFFCURVE",
"328 388 OFFCURVE",
"305 396 CURVE SMOOTH",
"251 415 OFFCURVE",
"234 429 OFFCURVE",
"235 449 CURVE SMOOTH",
"237 491 OFFCURVE",
"457 494 OFFCURVE",
"490 494 CURVE SMOOTH",
"497 494 LINE",
"416 395 OFFCURVE",
"276 167 OFFCURVE",
"252 41 CURVE",
"216 35 OFFCURVE",
"-1 0 OFFCURVE",
"-2 -30 CURVE SMOOTH",
"-2 -43 OFFCURVE",
"6 -39 OFFCURVE",
"17 -37 CURVE SMOOTH",
"101 -18 OFFCURVE",
"173 -9 OFFCURVE",
"250 0 CURVE",
"254 -31 OFFCURVE",
"274 -42 OFFCURVE",
"302 -46 CURVE SMOOTH",
"332 -50 OFFCURVE",
"370 -28 OFFCURVE",
"370 -7 CURVE SMOOTH",
"370 -1 OFFCURVE",
"368 4 OFFCURVE",
"363 7 CURVE",
"371 7 LINE SMOOTH",
"417 7 OFFCURVE",
"462 3 OFFCURVE",
"504 -12 CURVE",
"506 -12 OFFCURVE",
"508 -13 OFFCURVE",
"510 -13 CURVE SMOOTH",
"519 -13 OFFCURVE",
"526 2 OFFCURVE",
"526 10 CURVE SMOOTH",
"528 61 OFFCURVE",
"423 55 OFFCURVE",
"391 54 CURVE SMOOTH",
"359 54 OFFCURVE",
"328 51 OFFCURVE",
"296 47 CURVE",
"336 196 OFFCURVE",
"474 384 OFFCURVE",
"573 493 CURVE",
"627 493 OFFCURVE",
"688 488 OFFCURVE",
"756 478 CURVE SMOOTH",
"764 477 OFFCURVE",
"774 481 OFFCURVE",
"775 492 CURVE SMOOTH",
"776 518 OFFCURVE",
"628 524 OFFCURVE",
"603 525 CURVE"
);
},
{
closed = 1;
nodes = (
"489 590 OFFCURVE",
"500 576 OFFCURVE",
"517 576 CURVE SMOOTH",
"534 576 OFFCURVE",
"550 590 OFFCURVE",
"553 608 CURVE SMOOTH",
"556 626 OFFCURVE",
"545 640 OFFCURVE",
"528 640 CURVE SMOOTH",
"510 640 OFFCURVE",
"494 626 OFFCURVE",
"492 608 CURVE SMOOTH"
);
},
{
closed = 1;
nodes = (
"626 590 OFFCURVE",
"637 576 OFFCURVE",
"654 576 CURVE SMOOTH",
"671 576 OFFCURVE",
"687 590 OFFCURVE",
"690 608 CURVE SMOOTH",
"693 626 OFFCURVE",
"682 640 OFFCURVE",
"665 640 CURVE SMOOTH",
"647 640 OFFCURVE",
"631 626 OFFCURVE",
"629 608 CURVE SMOOTH"
);
}
);
width = 509;
}
);
leftKerningGroup = Iacute;
note = Idieresis;
rightKerningGroup = Iacute;
unicode = 00CF;
},
{
color = 4;
glyphname = Idotaccent;
lastChange = "2021-04-21 04:42:14 +0000";
layers = (
{
hints = (
{
horizontal = 1;
place = "{-46, 33}";
type = Stem;
},
{
horizontal = 1;
place = "{493, 37}";
type = Stem;
},
{
horizontal = 1;
place = "{600, 67}";
type = Stem;
},
{
place = "{171, 58}";
type = Stem;
},
{
place = "{553, 74}";
type = Stem;
},
{
horizontal = 1;
place = "{547, -20}";
target = down;
type = TopGhost;
}
);
layerId = "A9A9B55F-A222-44B0-A0B6-968BE501F3F8";
paths = (
{
closed = 1;
nodes = (
"344 -20 OFFCURVE",
"327 -25 OFFCURVE",
"308 -23 CURVE SMOOTH",
"292 -21 OFFCURVE",
"285 -6 OFFCURVE",
"284 3 CURVE",
"304 5 OFFCURVE",
"339 5 OFFCURVE",
"359 6 CURVE"
);
},
{
closed = 1;
nodes = (
"607 535 LINE",
"608 547 OFFCURVE",
"593 547 OFFCURVE",
"586 547 CURVE SMOOTH",
"567 547 OFFCURVE",
"544 546 OFFCURVE",
"527 530 CURVE",
"474 533 OFFCURVE",
"187 541 OFFCURVE",
"186 456 CURVE SMOOTH",
"186 408 OFFCURVE",
"264 386 OFFCURVE",
"287 382 CURVE SMOOTH",
"313 377 OFFCURVE",
"328 388 OFFCURVE",
"305 396 CURVE SMOOTH",
"251 415 OFFCURVE",
"234 429 OFFCURVE",
"235 449 CURVE SMOOTH",
"237 491 OFFCURVE",
"457 494 OFFCURVE",
"490 494 CURVE SMOOTH",
"497 494 LINE",
"416 395 OFFCURVE",
"276 167 OFFCURVE",
"252 41 CURVE",
"216 35 OFFCURVE",
"-1 0 OFFCURVE",
"-2 -30 CURVE SMOOTH",
"-2 -43 OFFCURVE",
"6 -39 OFFCURVE",
"17 -37 CURVE SMOOTH",
"101 -18 OFFCURVE",
"173 -9 OFFCURVE",
"250 0 CURVE",
"254 -31 OFFCURVE",
"274 -42 OFFCURVE",
"302 -46 CURVE SMOOTH",
"332 -50 OFFCURVE",
"370 -28 OFFCURVE",
"370 -7 CURVE SMOOTH",
"370 -1 OFFCURVE",
"368 4 OFFCURVE",
"363 7 CURVE",
"371 7 LINE SMOOTH",
"417 7 OFFCURVE",
"462 3 OFFCURVE",
"504 -12 CURVE",
"506 -12 OFFCURVE",
"508 -13 OFFCURVE",
"510 -13 CURVE SMOOTH",
"519 -13 OFFCURVE",
"526 2 OFFCURVE",
"526 10 CURVE SMOOTH",
"528 61 OFFCURVE",
"423 55 OFFCURVE",
"391 54 CURVE SMOOTH",
"359 54 OFFCURVE",
"328 51 OFFCURVE",
"296 47 CURVE",
"336 196 OFFCURVE",
"474 384 OFFCURVE",
"573 493 CURVE",
"627 493 OFFCURVE",
"688 488 OFFCURVE",
"756 478 CURVE SMOOTH",
"764 477 OFFCURVE",
"774 481 OFFCURVE",
"775 492 CURVE SMOOTH",
"776 518 OFFCURVE",
"628 524 OFFCURVE",
"603 525 CURVE"
);
},
{
closed = 1;
nodes = (
"577 620 OFFCURVE",
"588 606 OFFCURVE",
"605 606 CURVE SMOOTH",
"622 606 OFFCURVE",
"638 620 OFFCURVE",
"641 638 CURVE SMOOTH",
"644 656 OFFCURVE",
"633 670 OFFCURVE",
"615 670 CURVE SMOOTH",
"597 670 OFFCURVE",
"582 656 OFFCURVE",
"579 638 CURVE SMOOTH"
);
}
);
width = 509;
}
);
leftKerningGroup = Iacute;
note = Idotaccent;
rightKerningGroup = Iacute;
unicode = 0130;
},
{
color = 4;
glyphname = Igrave;
lastChange = "2021-04-21 04:42:14 +0000";
layers = (
{
hints = (
{
horizontal = 1;
place = "{-46, 33}";
type = Stem;
},
{
horizontal = 1;
place = "{493, 37}";
type = Stem;
},
{
place = "{171, 58}";
type = Stem;
}
);
layerId = "A9A9B55F-A222-44B0-A0B6-968BE501F3F8";
paths = (
{
closed = 1;
nodes = (
"344 -20 OFFCURVE",
"327 -25 OFFCURVE",
"308 -23 CURVE SMOOTH",
"292 -21 OFFCURVE",
"285 -6 OFFCURVE",
"284 3 CURVE",
"304 5 OFFCURVE",
"339 5 OFFCURVE",
"359 6 CURVE"
);
},
{
closed = 1;
nodes = (
"607 535 LINE",
"608 547 OFFCURVE",
"593 547 OFFCURVE",
"586 547 CURVE SMOOTH",
"567 547 OFFCURVE",
"544 546 OFFCURVE",
"527 530 CURVE",
"474 533 OFFCURVE",
"187 541 OFFCURVE",
"186 456 CURVE SMOOTH",
"186 408 OFFCURVE",
"264 386 OFFCURVE",
"287 382 CURVE SMOOTH",
"313 377 OFFCURVE",
"328 388 OFFCURVE",
"305 396 CURVE SMOOTH",
"251 415 OFFCURVE",
"234 429 OFFCURVE",
"235 449 CURVE SMOOTH",
"237 491 OFFCURVE",
"457 494 OFFCURVE",
"490 494 CURVE SMOOTH",
"497 494 LINE",
"416 395 OFFCURVE",
"276 167 OFFCURVE",
"252 41 CURVE",
"216 35 OFFCURVE",
"-1 0 OFFCURVE",
"-2 -30 CURVE SMOOTH",
"-2 -43 OFFCURVE",
"6 -39 OFFCURVE",
"17 -37 CURVE SMOOTH",
"101 -18 OFFCURVE",
"173 -9 OFFCURVE",
"250 0 CURVE",
"254 -31 OFFCURVE",
"274 -42 OFFCURVE",
"302 -46 CURVE SMOOTH",
"332 -50 OFFCURVE",
"370 -28 OFFCURVE",
"370 -7 CURVE SMOOTH",
"370 -1 OFFCURVE",
"368 4 OFFCURVE",
"363 7 CURVE",
"371 7 LINE SMOOTH",
"417 7 OFFCURVE",
"462 3 OFFCURVE",
"504 -12 CURVE",
"506 -12 OFFCURVE",
"508 -13 OFFCURVE",
"510 -13 CURVE SMOOTH",
"519 -13 OFFCURVE",
"526 2 OFFCURVE",
"526 10 CURVE SMOOTH",
"528 61 OFFCURVE",
"423 55 OFFCURVE",
"391 54 CURVE SMOOTH",
"359 54 OFFCURVE",
"328 51 OFFCURVE",
"296 47 CURVE",
"336 196 OFFCURVE",
"474 384 OFFCURVE",
"573 493 CURVE",
"627 493 OFFCURVE",
"688 488 OFFCURVE",
"756 478 CURVE SMOOTH",
"764 477 OFFCURVE",
"774 481 OFFCURVE",
"775 492 CURVE SMOOTH",
"776 518 OFFCURVE",
"628 524 OFFCURVE",
"603 525 CURVE"
);
},
{
closed = 1;
nodes = (
"638 558 OFFCURVE",
"646 561 OFFCURVE",
"646 569 CURVE SMOOTH",
"647 581 OFFCURVE",
"520 672 OFFCURVE",
"503 672 CURVE SMOOTH",
"492 672 OFFCURVE",
"486 665 OFFCURVE",
"485 653 CURVE SMOOTH",
"484 624 OFFCURVE",
"621 558 OFFCURVE",
"631 558 CURVE SMOOTH"
);
}
);
width = 509;
}
);
leftKerningGroup = Iacute;
note = Igrave;
rightKerningGroup = Iacute;
unicode = 00CC;
},
{
color = 4;
glyphname = Imacron;
lastChange = "2021-04-21 04:42:14 +0000";
layers = (
{
hints = (
{
horizontal = 1;
place = "{-46, 33}";
type = Stem;
},
{
horizontal = 1;
place = "{493, 37}";
type = Stem;
},
{
place = "{171, 58}";
type = Stem;
},
{
place = "{454, 234}";
type = Stem;
},
{
horizontal = 1;
place = "{547, -20}";
target = down;
type = TopGhost;
}
);
layerId = "A9A9B55F-A222-44B0-A0B6-968BE501F3F8";
paths = (
{
closed = 1;
nodes = (
"344 -20 OFFCURVE",
"327 -25 OFFCURVE",
"308 -23 CURVE SMOOTH",
"292 -21 OFFCURVE",
"285 -6 OFFCURVE",
"284 3 CURVE",
"304 5 OFFCURVE",
"339 5 OFFCURVE",
"359 6 CURVE"
);
},
{
closed = 1;
nodes = (
"607 535 LINE",
"608 547 OFFCURVE",
"593 547 OFFCURVE",
"586 547 CURVE SMOOTH",
"567 547 OFFCURVE",
"544 546 OFFCURVE",
"527 530 CURVE",
"474 533 OFFCURVE",
"187 541 OFFCURVE",
"186 456 CURVE SMOOTH",
"186 408 OFFCURVE",
"264 386 OFFCURVE",
"287 382 CURVE SMOOTH",
"313 377 OFFCURVE",
"328 388 OFFCURVE",
"305 396 CURVE SMOOTH",
"251 415 OFFCURVE",
"234 429 OFFCURVE",
"235 449 CURVE SMOOTH",
"237 491 OFFCURVE",
"457 494 OFFCURVE",
"490 494 CURVE SMOOTH",
"497 494 LINE",
"416 395 OFFCURVE",
"276 167 OFFCURVE",
"252 41 CURVE",
"216 35 OFFCURVE",
"-1 0 OFFCURVE",
"-2 -30 CURVE SMOOTH",
"-2 -43 OFFCURVE",
"6 -39 OFFCURVE",
"17 -37 CURVE SMOOTH",
"101 -18 OFFCURVE",
"173 -9 OFFCURVE",
"250 0 CURVE",
"254 -31 OFFCURVE",
"274 -42 OFFCURVE",
"302 -46 CURVE SMOOTH",
"332 -50 OFFCURVE",
"370 -28 OFFCURVE",
"370 -7 CURVE SMOOTH",
"370 -1 OFFCURVE",
"368 4 OFFCURVE",
"363 7 CURVE",
"371 7 LINE SMOOTH",
"417 7 OFFCURVE",
"462 3 OFFCURVE",
"504 -12 CURVE",
"506 -12 OFFCURVE",
"508 -13 OFFCURVE",
"510 -13 CURVE SMOOTH",
"519 -13 OFFCURVE",
"526 2 OFFCURVE",
"526 10 CURVE SMOOTH",
"528 61 OFFCURVE",
"423 55 OFFCURVE",
"391 54 CURVE SMOOTH",
"359 54 OFFCURVE",
"328 51 OFFCURVE",
"296 47 CURVE",
"336 196 OFFCURVE",
"474 384 OFFCURVE",
"573 493 CURVE",
"627 493 OFFCURVE",
"688 488 OFFCURVE",
"756 478 CURVE SMOOTH",
"764 477 OFFCURVE",
"774 481 OFFCURVE",
"775 492 CURVE SMOOTH",
"776 518 OFFCURVE",
"628 524 OFFCURVE",
"603 525 CURVE"
);
},
{
closed = 1;
nodes = (
"577 605 OFFCURVE",
"627 616 OFFCURVE",
"679 616 CURVE SMOOTH",
"687 616 OFFCURVE",
"726 616 OFFCURVE",
"727 631 CURVE SMOOTH",
"727 652 OFFCURVE",
"607 655 OFFCURVE",
"589 655 CURVE SMOOTH",
"570 655 OFFCURVE",
"493 648 OFFCURVE",
"492 618 CURVE SMOOTH",
"492 604 OFFCURVE",
"517 605 OFFCURVE",
"526 605 CURVE SMOOTH"
);
}
);
width = 509;
}
);
leftKerningGroup = Iacute;
note = Imacron;
rightKerningGroup = Iacute;
unicode = 012A;
},
{
color = 4;
glyphname = Iogonek;
lastChange = "2021-04-21 04:42:14 +0000";
layers = (
{
hints = (
{
horizontal = 1;
place = "{-247, 45}";
type = Stem;
},
{
horizontal = 1;
place = "{-46, 33}";
type = Stem;
},
{
horizontal = 1;
place = "{7, 52}";
type = Stem;
},
{
horizontal = 1;
place = "{547, -20}";
target = down;
type = TopGhost;
},
{
place = "{99, 56}";
type = Stem;
},
{
place = "{171, 58}";
type = Stem;
},
{
place = "{114, 49}";
type = Stem;
},
{
horizontal = 1;
place = "{-226, 41}";
type = Stem;
}
);
layerId = "A9A9B55F-A222-44B0-A0B6-968BE501F3F8";
paths = (
{
closed = 1;
nodes = (
"283 3 LINE",
"310 5 OFFCURVE",
"346 7 OFFCURVE",
"363 7 CURVE SMOOTH",
"371 7 LINE SMOOTH",
"417 7 OFFCURVE",
"462 3 OFFCURVE",
"504 -12 CURVE",
"506 -12 OFFCURVE",
"508 -13 OFFCURVE",
"510 -13 CURVE SMOOTH",
"519 -13 OFFCURVE",
"526 2 OFFCURVE",
"526 10 CURVE SMOOTH",
"528 61 OFFCURVE",
"423 55 OFFCURVE",
"391 54 CURVE SMOOTH",
"359 54 OFFCURVE",
"328 51 OFFCURVE",
"296 47 CURVE",
"336 196 OFFCURVE",
"474 384 OFFCURVE",
"573 493 CURVE",
"627 493 OFFCURVE",
"688 488 OFFCURVE",
"756 478 CURVE SMOOTH",
"764 477 OFFCURVE",
"774 481 OFFCURVE",
"775 492 CURVE SMOOTH",
"776 518 OFFCURVE",
"628 524 OFFCURVE",
"603 525 CURVE",
"607 535 LINE",
"608 547 OFFCURVE",
"593 547 OFFCURVE",
"586 547 CURVE SMOOTH",
"567 547 OFFCURVE",
"544 546 OFFCURVE",
"527 530 CURVE",
"474 533 OFFCURVE",
"187 541 OFFCURVE",
"186 456 CURVE SMOOTH",
"186 408 OFFCURVE",
"264 386 OFFCURVE",
"287 382 CURVE SMOOTH",
"313 377 OFFCURVE",
"328 388 OFFCURVE",
"305 396 CURVE SMOOTH",
"251 415 OFFCURVE",
"234 429 OFFCURVE",
"235 449 CURVE SMOOTH",
"237 491 OFFCURVE",
"457 494 OFFCURVE",
"490 494 CURVE SMOOTH",
"497 494 LINE",
"416 395 OFFCURVE",
"276 167 OFFCURVE",
"252 41 CURVE",
"216 35 OFFCURVE",
"-1 0 OFFCURVE",
"-2 -30 CURVE SMOOTH",
"-2 -43 OFFCURVE",
"6 -39 OFFCURVE",
"17 -37 CURVE SMOOTH",
"101 -18 OFFCURVE",
"173 -9 OFFCURVE",
"250 0 CURVE SMOOTH",
"253 0 LINE",
"198 -33 OFFCURVE",
"109 -125 OFFCURVE",
"107 -181 CURVE SMOOTH",
"106 -211 OFFCURVE",
"128 -226 OFFCURVE",
"153 -226 CURVE SMOOTH",
"204 -226 OFFCURVE",
"244 -190 OFFCURVE",
"249 -170 CURVE",
"250 -161 OFFCURVE",
"241 -164 OFFCURVE",
"238 -166 CURVE",
"224 -179 OFFCURVE",
"205 -196 OFFCURVE",
"187 -196 CURVE SMOOTH",
"164 -196 OFFCURVE",
"157 -181 OFFCURVE",
"158 -163 CURVE SMOOTH",
"159 -117 OFFCURVE",
"223 -42 OFFCURVE",
"277 0 CURVE"
);
}
);
width = 509;
}
);
leftKerningGroup = I;
note = Iogonek;
rightKerningGroup = I;
unicode = 012E;
},
{
color = 4;
glyphname = Itilde;
lastChange = "2021-04-21 04:42:14 +0000";
layers = (
{
hints = (
{
horizontal = 1;
place = "{-46, 33}";
type = Stem;
},
{
horizontal = 1;
place = "{493, 37}";
type = Stem;
},
{
horizontal = 1;
place = "{629, 40}";
type = Stem;
},
{
place = "{171, 58}";
type = Stem;
},
{
place = "{441, 259}";
type = Stem;
},
{
horizontal = 1;
place = "{547, -20}";
target = down;
type = TopGhost;
}
);
layerId = "A9A9B55F-A222-44B0-A0B6-968BE501F3F8";
paths = (
{
closed = 1;
nodes = (
"344 -20 OFFCURVE",
"327 -25 OFFCURVE",
"308 -23 CURVE SMOOTH",
"292 -21 OFFCURVE",
"285 -6 OFFCURVE",
"284 3 CURVE",
"304 5 OFFCURVE",
"339 5 OFFCURVE",
"359 6 CURVE"
);
},
{
closed = 1;
nodes = (
"607 535 LINE",
"608 547 OFFCURVE",
"593 547 OFFCURVE",
"586 547 CURVE SMOOTH",
"567 547 OFFCURVE",
"544 546 OFFCURVE",
"527 530 CURVE",
"474 533 OFFCURVE",
"187 541 OFFCURVE",
"186 456 CURVE SMOOTH",
"186 408 OFFCURVE",
"264 386 OFFCURVE",
"287 382 CURVE SMOOTH",
"313 377 OFFCURVE",
"328 388 OFFCURVE",
"305 396 CURVE SMOOTH",
"251 415 OFFCURVE",
"234 429 OFFCURVE",
"235 449 CURVE SMOOTH",
"237 491 OFFCURVE",
"457 494 OFFCURVE",
"490 494 CURVE SMOOTH",
"497 494 LINE",
"416 395 OFFCURVE",
"276 167 OFFCURVE",
"252 41 CURVE",
"216 35 OFFCURVE",
"-1 0 OFFCURVE",
"-2 -30 CURVE SMOOTH",
"-2 -43 OFFCURVE",
"6 -39 OFFCURVE",
"17 -37 CURVE SMOOTH",
"101 -18 OFFCURVE",
"173 -9 OFFCURVE",
"250 0 CURVE",
"254 -31 OFFCURVE",
"274 -42 OFFCURVE",
"302 -46 CURVE SMOOTH",
"332 -50 OFFCURVE",
"370 -28 OFFCURVE",
"370 -7 CURVE SMOOTH",
"370 -1 OFFCURVE",
"368 4 OFFCURVE",
"363 7 CURVE",
"371 7 LINE SMOOTH",
"417 7 OFFCURVE",
"462 3 OFFCURVE",
"504 -12 CURVE",
"506 -12 OFFCURVE",
"508 -13 OFFCURVE",
"510 -13 CURVE SMOOTH",
"519 -13 OFFCURVE",
"526 2 OFFCURVE",
"526 10 CURVE SMOOTH",
"528 61 OFFCURVE",
"423 55 OFFCURVE",
"391 54 CURVE SMOOTH",
"359 54 OFFCURVE",
"328 51 OFFCURVE",
"296 47 CURVE",
"336 196 OFFCURVE",
"474 384 OFFCURVE",
"573 493 CURVE",
"627 493 OFFCURVE",
"688 488 OFFCURVE",
"756 478 CURVE SMOOTH",
"764 477 OFFCURVE",
"774 481 OFFCURVE",
"775 492 CURVE SMOOTH",
"776 518 OFFCURVE",
"628 524 OFFCURVE",
"603 525 CURVE"
);
},
{
closed = 1;
nodes = (
"720 659 OFFCURVE",
"718 661 OFFCURVE",
"710 661 CURVE",
"697 646 OFFCURVE",
"682 639 OFFCURVE",
"665 639 CURVE SMOOTH",
"654 639 OFFCURVE",
"638 643 OFFCURVE",
"615 650 CURVE SMOOTH",
"592 656 OFFCURVE",
"575 660 OFFCURVE",
"562 660 CURVE SMOOTH",
"547 660 OFFCURVE",
"532 657 OFFCURVE",
"519 650 CURVE SMOOTH",
"487 632 OFFCURVE",
"470 618 OFFCURVE",
"470 607 CURVE SMOOTH",
"470 605 OFFCURVE",
"470 604 OFFCURVE",
"473 601 CURVE",
"476 601 OFFCURVE",
"486 605 OFFCURVE",
"499 615 CURVE SMOOTH",
"511 623 OFFCURVE",
"523 627 OFFCURVE",
"534 627 CURVE SMOOTH",
"546 627 OFFCURVE",
"563 622 OFFCURVE",
"587 613 CURVE SMOOTH",
"611 604 OFFCURVE",
"629 600 OFFCURVE",
"641 600 CURVE SMOOTH",
"654 600 OFFCURVE",
"665 603 OFFCURVE",
"674 609 CURVE SMOOTH",
"706 627 OFFCURVE",
"719 642 OFFCURVE",
"720 654 CURVE SMOOTH"
);
}
);
width = 509;
}
);
leftKerningGroup = Iacute;
note = Itilde;
rightKerningGroup = Iacute;
unicode = 0128;
},
{
color = 4;
glyphname = J;
lastChange = "2021-04-21 04:42:14 +0000";
layers = (
{
hints = (
{
horizontal = 1;
place = "{-362, 27}";
type = Stem;
},
{
horizontal = 1;
place = "{70, 33}";
type = Stem;
},
{
horizontal = 1;
place = "{137, 34}";
type = Stem;
},
{
horizontal = 1;
place = "{508, 32}";
type = Stem;
},
{
place = "{-119, 48}";
type = Stem;
},
{
place = "{13, 42}";
type = Stem;
},
{
place = "{511, 55}";
type = Stem;
}
);
layerId = "A9A9B55F-A222-44B0-A0B6-968BE501F3F8";
paths = (
{
closed = 1;
nodes = (
"593 61 OFFCURVE",
"600 68 OFFCURVE",
"599 77 CURVE SMOOTH",
"597 94 OFFCURVE",
"558 103 OFFCURVE",
"542 103 CURVE SMOOTH",
"529 103 LINE",
"558 180 OFFCURVE",
"580 268 OFFCURVE",
"583 350 CURVE SMOOTH",
"587 471 OFFCURVE",
"537 540 OFFCURVE",
"422 540 CURVE SMOOTH",
"294 540 OFFCURVE",
"27 406 OFFCURVE",
"21 235 CURVE SMOOTH",
"18 166 OFFCURVE",
"76 133 OFFCURVE",
"131 133 CURVE SMOOTH",
"189 133 OFFCURVE",
"283 181 OFFCURVE",
"318 229 CURVE SMOOTH",
"329 243 OFFCURVE",
"319 250 OFFCURVE",
"305 242 CURVE",
"268 210 OFFCURVE",
"193 163 OFFCURVE",
"133 163 CURVE SMOOTH",
"99 163 OFFCURVE",
"61 176 OFFCURVE",
"62 223 CURVE SMOOTH",
"67 359 OFFCURVE",
"284 518 OFFCURVE",
"421 518 CURVE SMOOTH",
"503 518 OFFCURVE",
"532 439 OFFCURVE",
"529 358 CURVE SMOOTH",
"526 280 OFFCURVE",
"500 174 OFFCURVE",
"471 102 CURVE",
"318 77 OFFCURVE",
"-69 -34 OFFCURVE",
"-126 -214 CURVE SMOOTH",
"-161 -325 OFFCURVE",
"-76 -362 OFFCURVE",
"1 -362 CURVE SMOOTH",
"211 -362 OFFCURVE",
"434 -125 OFFCURVE",
"520 75 CURVE",
"543 78 OFFCURVE",
"567 74 OFFCURVE",
"584 61 CURVE"
);
},
{
closed = 1;
nodes = (
"-51 -72 OFFCURVE",
"320 50 OFFCURVE",
"461 72 CURVE",
"392 -96 OFFCURVE",
"217 -334 OFFCURVE",
"5 -341 CURVE SMOOTH",
"-61 -343 OFFCURVE",
"-96 -308 OFFCURVE",
"-85 -252 CURVE SMOOTH"
);
}
);
width = 602;
}
);
note = J;
unicode = 004A;
},
{
color = 4;
glyphname = Jcircumflex;
lastChange = "2021-04-21 04:42:14 +0000";
layers = (
{
hints = (
{
horizontal = 1;
place = "{-362, 27}";
type = Stem;
},
{
horizontal = 1;
place = "{70, 33}";
type = Stem;
},
{
horizontal = 1;
place = "{138, 34}";
type = Stem;
},
{
horizontal = 1;
place = "{508, 32}";
type = Stem;
},
{
place = "{-119, 48}";
type = Stem;
},
{
place = "{13, 42}";
type = Stem;
},
{
place = "{511, 55}";
type = Stem;
}
);
layerId = "A9A9B55F-A222-44B0-A0B6-968BE501F3F8";
paths = (
{
closed = 1;
nodes = (
"593 61 OFFCURVE",
"600 68 OFFCURVE",
"599 77 CURVE SMOOTH",
"597 94 OFFCURVE",
"558 103 OFFCURVE",
"542 103 CURVE SMOOTH",
"529 103 LINE",
"558 180 OFFCURVE",
"580 268 OFFCURVE",
"583 350 CURVE SMOOTH",
"587 471 OFFCURVE",
"537 540 OFFCURVE",
"422 540 CURVE SMOOTH",
"294 540 OFFCURVE",
"27 406 OFFCURVE",
"21 235 CURVE SMOOTH",
"18 166 OFFCURVE",
"76 133 OFFCURVE",
"131 133 CURVE SMOOTH",
"189 133 OFFCURVE",
"283 181 OFFCURVE",
"318 229 CURVE SMOOTH",
"329 243 OFFCURVE",
"319 250 OFFCURVE",
"305 242 CURVE",
"268 210 OFFCURVE",
"193 163 OFFCURVE",
"133 163 CURVE SMOOTH",
"99 163 OFFCURVE",
"61 176 OFFCURVE",
"62 223 CURVE SMOOTH",
"67 359 OFFCURVE",
"284 518 OFFCURVE",
"421 518 CURVE SMOOTH",
"503 518 OFFCURVE",
"532 439 OFFCURVE",
"529 358 CURVE SMOOTH",
"526 280 OFFCURVE",
"500 174 OFFCURVE",
"471 102 CURVE",
"318 77 OFFCURVE",
"-69 -34 OFFCURVE",
"-126 -214 CURVE SMOOTH",
"-161 -325 OFFCURVE",
"-76 -362 OFFCURVE",
"1 -362 CURVE SMOOTH",
"211 -362 OFFCURVE",
"434 -125 OFFCURVE",
"520 75 CURVE",
"543 78 OFFCURVE",
"567 74 OFFCURVE",
"584 61 CURVE"
);
},
{
closed = 1;
nodes = (
"-51 -72 OFFCURVE",
"320 50 OFFCURVE",
"461 72 CURVE",
"392 -96 OFFCURVE",
"217 -334 OFFCURVE",
"5 -341 CURVE SMOOTH",
"-61 -343 OFFCURVE",
"-96 -308 OFFCURVE",
"-85 -252 CURVE SMOOTH"
);
},
{
closed = 1;
nodes = (
"592 644 OFFCURVE",
"564 673 OFFCURVE",
"556 688 CURVE SMOOTH",
"545 707 OFFCURVE",
"523 688 OFFCURVE",
"469 656 CURVE SMOOTH",
"426 629 OFFCURVE",
"397 607 OFFCURVE",
"396 602 CURVE SMOOTH",
"394 597 OFFCURVE",
"396 595 OFFCURVE",
"401 595 CURVE SMOOTH",
"407 595 OFFCURVE",
"444 614 OFFCURVE",
"516 658 CURVE",
"522 648 OFFCURVE",
"536 634 OFFCURVE",
"559 617 CURVE SMOOTH",
"561 616 OFFCURVE",
"582 598 OFFCURVE",
"598 592 CURVE",
"612 583 OFFCURVE",
"635 598 OFFCURVE",
"625 611 CURVE"
);
}
);
width = 615;
}
);
note = Jcircumflex;
unicode = 0134;
},
{
color = 4;
glyphname = K;
lastChange = "2021-04-21 04:42:14 +0000";
layers = (
{
hints = (
{
horizontal = 1;
place = "{-74, 32}";
type = Stem;
},
{
horizontal = 1;
place = "{-30, 36}";
type = Stem;
},
{
horizontal = 1;
place = "{507, 38}";
type = Stem;
},
{
place = "{-40, 47}";
type = Stem;
},
{
place = "{518, 60}";
type = Stem;
},
{
place = "{784, 35}";
type = Stem;
}
);
layerId = "A9A9B55F-A222-44B0-A0B6-968BE501F3F8";
paths = (
{
closed = 1;
nodes = (
"858 488 OFFCURVE",
"855 498 OFFCURVE",
"844 498 CURVE SMOOTH",
"838 498 OFFCURVE",
"831 490 OFFCURVE",
"829 482 CURVE SMOOTH",
"825 468 OFFCURVE",
"818 457 OFFCURVE",
"814 451 CURVE SMOOTH",
"770 379 OFFCURVE",
"672 314 OFFCURVE",
"525 252 CURVE",
"567 332 OFFCURVE",
"592 408 OFFCURVE",
"594 466 CURVE SMOOTH",
"596 516 OFFCURVE",
"576 542 OFFCURVE",
"534 542 CURVE SMOOTH",
"518 542 OFFCURVE",
"499 539 OFFCURVE",
"479 531 CURVE SMOOTH",
"454 521 OFFCURVE",
"436 510 OFFCURVE",
"436 501 CURVE SMOOTH",
"436 493 OFFCURVE",
"439 489 OFFCURVE",
"448 489 CURVE SMOOTH",
"450 489 OFFCURVE",
"457 493 OFFCURVE",
"472 500 CURVE SMOOTH",
"488 507 OFFCURVE",
"499 511 OFFCURVE",
"509 511 CURVE SMOOTH",
"530 511 OFFCURVE",
"534 491 OFFCURVE",
"533 461 CURVE SMOOTH",
"531 412 OFFCURVE",
"517 364 OFFCURVE",
"479 286 CURVE",
"465 309 OFFCURVE",
"456 329 OFFCURVE",
"444 359 CURVE SMOOTH",
"443 362 OFFCURVE",
"439 366 OFFCURVE",
"435 366 CURVE SMOOTH",
"414 366 OFFCURVE",
"402 327 OFFCURVE",
"401 310 CURVE SMOOTH",
"401 299 OFFCURVE",
"420 267 OFFCURVE",
"452 223 CURVE",
"406 150 OFFCURVE",
"362 98 OFFCURVE",
"308 51 CURVE SMOOTH",
"236 -11 OFFCURVE",
"163 -43 OFFCURVE",
"90 -43 CURVE SMOOTH",
"40 -43 OFFCURVE",
"7 -25 OFFCURVE",
"8 15 CURVE SMOOTH",
"9 46 OFFCURVE",
"19 81 OFFCURVE",
"50 114 CURVE SMOOTH",
"99 168 OFFCURVE",
"182 218 OFFCURVE",
"267 245 CURVE",
"286 249 OFFCURVE",
"287 262 OFFCURVE",
"268 262 CURVE SMOOTH",
"218 262 OFFCURVE",
"149 234 OFFCURVE",
"75 177 CURVE SMOOTH",
"1 119 OFFCURVE",
"-37 67 OFFCURVE",
"-39 19 CURVE SMOOTH",
"-40 -13 OFFCURVE",
"-25 -38 OFFCURVE",
"2 -54 CURVE SMOOTH",
"23 -66 OFFCURVE",
"54 -75 OFFCURVE",
"89 -75 CURVE SMOOTH",
"166 -75 OFFCURVE",
"245 -51 OFFCURVE",
"326 10 CURVE SMOOTH",
"388 57 OFFCURVE",
"440 116 OFFCURVE",
"486 183 CURVE",
"525 134 OFFCURVE",
"564 94 OFFCURVE",
"604 56 CURVE SMOOTH",
"668 -2 OFFCURVE",
"722 -30 OFFCURVE",
"760 -30 CURVE SMOOTH",
"776 -30 OFFCURVE",
"790 -24 OFFCURVE",
"801 -15 CURVE SMOOTH",
"812 -6 OFFCURVE",
"819 14 OFFCURVE",
"820 29 CURVE SMOOTH",
"820 57 OFFCURVE",
"810 71 OFFCURVE",
"801 71 CURVE SMOOTH",
"794 71 OFFCURVE",
"795 66 OFFCURVE",
"795 58 CURVE",
"794 55 OFFCURVE",
"795 50 OFFCURVE",
"797 43 CURVE",
"797 41 OFFCURVE",
"797 40 OFFCURVE",
"797 39 CURVE SMOOTH",
"798 34 OFFCURVE",
"798 30 OFFCURVE",
"797 27 CURVE",
"797 12 OFFCURVE",
"785 6 OFFCURVE",
"771 6 CURVE SMOOTH",
"740 6 OFFCURVE",
"690 36 OFFCURVE",
"629 96 CURVE SMOOTH",
"584 139 OFFCURVE",
"547 183 OFFCURVE",
"518 222 CURVE",
"738 307 OFFCURVE",
"854 390 OFFCURVE",
"857 476 CURVE SMOOTH"
);
}
);
width = 814;
}
);
note = K;
unicode = 004B;
},
{
color = 4;
glyphname = Kcommaaccent;
lastChange = "2021-04-21 04:42:14 +0000";
layers = (
{
hints = (
{
horizontal = 1;
place = "{-74, 32}";
type = Stem;
},
{
horizontal = 1;
place = "{-30, 36}";
type = Stem;
},
{
horizontal = 1;
place = "{507, 38}";
type = Stem;
},
{
place = "{-40, 47}";
type = Stem;
},
{
place = "{407, 44}";
type = Stem;
},
{
place = "{518, 60}";
type = Stem;
},
{
place = "{784, 35}";
type = Stem;
}
);
layerId = "A9A9B55F-A222-44B0-A0B6-968BE501F3F8";
paths = (
{
closed = 1;
nodes = (
"858 488 OFFCURVE",
"855 498 OFFCURVE",
"844 498 CURVE SMOOTH",
"838 498 OFFCURVE",
"831 490 OFFCURVE",
"829 482 CURVE SMOOTH",
"825 468 OFFCURVE",
"818 457 OFFCURVE",
"814 451 CURVE SMOOTH",
"770 379 OFFCURVE",
"672 314 OFFCURVE",
"525 252 CURVE",
"567 332 OFFCURVE",
"592 408 OFFCURVE",
"594 466 CURVE SMOOTH",
"596 516 OFFCURVE",
"576 542 OFFCURVE",
"534 542 CURVE SMOOTH",
"518 542 OFFCURVE",
"499 539 OFFCURVE",
"479 531 CURVE SMOOTH",
"454 521 OFFCURVE",
"436 510 OFFCURVE",
"436 501 CURVE SMOOTH",
"436 493 OFFCURVE",
"439 489 OFFCURVE",
"448 489 CURVE SMOOTH",
"450 489 OFFCURVE",
"457 493 OFFCURVE",
"472 500 CURVE SMOOTH",
"488 507 OFFCURVE",
"499 511 OFFCURVE",
"509 511 CURVE SMOOTH",
"530 511 OFFCURVE",
"534 491 OFFCURVE",
"533 461 CURVE SMOOTH",
"531 412 OFFCURVE",
"517 364 OFFCURVE",
"479 286 CURVE",
"465 309 OFFCURVE",
"456 329 OFFCURVE",
"444 359 CURVE SMOOTH",
"443 362 OFFCURVE",
"439 366 OFFCURVE",
"435 366 CURVE SMOOTH",
"414 366 OFFCURVE",
"402 327 OFFCURVE",
"401 310 CURVE SMOOTH",
"401 299 OFFCURVE",
"420 267 OFFCURVE",
"452 223 CURVE",
"406 150 OFFCURVE",
"362 98 OFFCURVE",
"308 51 CURVE SMOOTH",
"236 -11 OFFCURVE",
"163 -43 OFFCURVE",
"90 -43 CURVE SMOOTH",
"40 -43 OFFCURVE",
"7 -25 OFFCURVE",
"8 15 CURVE SMOOTH",
"9 46 OFFCURVE",
"19 81 OFFCURVE",
"50 114 CURVE SMOOTH",
"99 168 OFFCURVE",
"182 218 OFFCURVE",
"267 245 CURVE",
"286 249 OFFCURVE",
"287 262 OFFCURVE",
"268 262 CURVE SMOOTH",
"218 262 OFFCURVE",
"149 234 OFFCURVE",
"75 177 CURVE SMOOTH",
"1 119 OFFCURVE",
"-37 67 OFFCURVE",
"-39 19 CURVE SMOOTH",
"-40 -13 OFFCURVE",
"-25 -38 OFFCURVE",
"2 -54 CURVE SMOOTH",
"23 -66 OFFCURVE",
"54 -75 OFFCURVE",
"89 -75 CURVE SMOOTH",
"166 -75 OFFCURVE",
"245 -51 OFFCURVE",
"326 10 CURVE SMOOTH",
"388 57 OFFCURVE",
"440 116 OFFCURVE",
"486 183 CURVE",
"525 134 OFFCURVE",
"564 94 OFFCURVE",
"604 56 CURVE SMOOTH",
"668 -2 OFFCURVE",
"722 -30 OFFCURVE",
"760 -30 CURVE SMOOTH",
"776 -30 OFFCURVE",
"790 -24 OFFCURVE",
"801 -15 CURVE SMOOTH",
"812 -6 OFFCURVE",
"819 14 OFFCURVE",
"820 29 CURVE SMOOTH",
"820 57 OFFCURVE",
"810 71 OFFCURVE",
"801 71 CURVE SMOOTH",
"794 71 OFFCURVE",
"795 66 OFFCURVE",
"795 58 CURVE",
"794 55 OFFCURVE",
"795 50 OFFCURVE",
"797 43 CURVE",
"797 41 OFFCURVE",
"797 40 OFFCURVE",
"797 39 CURVE SMOOTH",
"798 34 OFFCURVE",
"798 30 OFFCURVE",
"797 27 CURVE",
"797 12 OFFCURVE",
"785 6 OFFCURVE",
"771 6 CURVE SMOOTH",
"740 6 OFFCURVE",
"690 36 OFFCURVE",
"629 96 CURVE SMOOTH",
"584 139 OFFCURVE",
"547 183 OFFCURVE",
"518 222 CURVE",
"738 307 OFFCURVE",
"854 390 OFFCURVE",
"857 476 CURVE SMOOTH"
);
},
{
closed = 1;
nodes = (
"389 -80 OFFCURVE",
"402 -64 OFFCURVE",
"420 -64 CURVE SMOOTH",
"435 -64 OFFCURVE",
"443 -74 OFFCURVE",
"442 -87 CURVE SMOOTH",
"442 -102 OFFCURVE",
"433 -119 OFFCURVE",
"408 -145 CURVE SMOOTH",
"392 -163 OFFCURVE",
"375 -176 OFFCURVE",
"366 -182 CURVE",
"355 -185 OFFCURVE",
"344 -180 OFFCURVE",
"361 -171 CURVE",
"362 -170 OFFCURVE",
"395 -141 OFFCURVE",
"403 -114 CURVE",
"393 -110 OFFCURVE",
"388 -103 OFFCURVE",
"388 -95 CURVE SMOOTH"
);
}
);
width = 814;
}
);
note = Kcommaaccent;
unicode = 0136;
},
{
color = 4;
glyphname = L;
lastChange = "2021-04-21 04:42:14 +0000";
layers = (
{
hints = (
{
horizontal = 1;
place = "{-37, 38}";
type = Stem;
},
{
horizontal = 1;
place = "{152, 48}";
type = Stem;
},
{
horizontal = 1;
place = "{221, 38}";
type = Stem;
},
{
horizontal = 1;
place = "{517, 41}";
type = Stem;
},
{
place = "{5, 39}";
type = Stem;
},
{
place = "{187, 45}";
type = Stem;
},
{
place = "{260, 83}";
type = Stem;
},
{
place = "{707, 38}";
type = Stem;
}
);
layerId = "A9A9B55F-A222-44B0-A0B6-968BE501F3F8";
paths = (
{
closed = 1;
nodes = (
"742 50 OFFCURVE",
"728 74 OFFCURVE",
"705 90 CURVE",
"698 93 OFFCURVE",
"694 95 OFFCURVE",
"691 95 CURVE SMOOTH",
"682 95 OFFCURVE",
"678 91 OFFCURVE",
"677 84 CURVE SMOOTH",
"677 80 OFFCURVE",
"691 70 OFFCURVE",
"702 61 CURVE",
"732 24 OFFCURVE",
"696 -13 OFFCURVE",
"662 -24 CURVE SMOOTH",
"634 -32 OFFCURVE",
"597 -33 OFFCURVE",
"561 -33 CURVE SMOOTH",
"509 -33 OFFCURVE",
"390 -9 OFFCURVE",
"339 25 CURVE",
"365 48 OFFCURVE",
"391 84 OFFCURVE",
"418 130 CURVE SMOOTH",
"432 156 OFFCURVE",
"451 198 OFFCURVE",
"474 249 CURVE",
"540 279 LINE SMOOTH",
"587 302 OFFCURVE",
"644 338 OFFCURVE",
"681 372 CURVE SMOOTH",
"729 417 OFFCURVE",
"753 462 OFFCURVE",
"754 500 CURVE SMOOTH",
"755 537 OFFCURVE",
"725 560 OFFCURVE",
"677 560 CURVE SMOOTH",
"641 560 OFFCURVE",
"605 543 OFFCURVE",
"562 500 CURVE SMOOTH",
"534 472 OFFCURVE",
"508 427 OFFCURVE",
"485 386 CURVE SMOOTH",
"472 361 OFFCURVE",
"452 323 OFFCURVE",
"431 271 CURVE",
"395 260 OFFCURVE",
"363 256 OFFCURVE",
"332 256 CURVE SMOOTH",
"267 256 OFFCURVE",
"237 271 OFFCURVE",
"238 301 CURVE SMOOTH",
"239 331 OFFCURVE",
"280 365 OFFCURVE",
"369 392 CURVE SMOOTH",
"382 396 OFFCURVE",
"395 398 OFFCURVE",
"403 400 CURVE SMOOTH",
"412 402 LINE SMOOTH",
"431 406 OFFCURVE",
"433 420 OFFCURVE",
"414 420 CURVE SMOOTH",
"379 420 OFFCURVE",
"336 408 OFFCURVE",
"287 384 CURVE SMOOTH",
"236 357 OFFCURVE",
"200 327 OFFCURVE",
"199 299 CURVE SMOOTH",
"198 273 OFFCURVE",
"214 246 OFFCURVE",
"242 233 CURVE SMOOTH",
"263 225 OFFCURVE",
"293 221 OFFCURVE",
"327 221 CURVE SMOOTH",
"356 221 OFFCURVE",
"381 225 OFFCURVE",
"416 232 CURVE",
"376 141 OFFCURVE",
"345 81 OFFCURVE",
"308 40 CURVE",
"301 45 OFFCURVE",
"266 76 OFFCURVE",
"203 125 CURVE SMOOTH",
"146 169 OFFCURVE",
"105 198 OFFCURVE",
"82 198 CURVE SMOOTH",
"19 198 OFFCURVE",
"8 134 OFFCURVE",
"7 107 CURVE SMOOTH",
"6 66 OFFCURVE",
"23 32 OFFCURVE",
"58 3 CURVE SMOOTH",
"92 -25 OFFCURVE",
"131 -39 OFFCURVE",
"178 -39 CURVE SMOOTH",
"216 -39 OFFCURVE",
"264 -26 OFFCURVE",
"307 -2 CURVE",
"404 -59 OFFCURVE",
"499 -80 OFFCURVE",
"574 -80 CURVE SMOOTH",
"648 -80 OFFCURVE",
"750 -57 OFFCURVE",
"743 27 CURVE SMOOTH"
);
},
{
closed = 1;
nodes = (
"279 19 LINE",
"254 6 OFFCURVE",
"205 -3 OFFCURVE",
"176 -3 CURVE SMOOTH",
"144 -3 OFFCURVE",
"112 11 OFFCURVE",
"87 34 CURVE SMOOTH",
"61 56 OFFCURVE",
"48 87 OFFCURVE",
"49 116 CURVE SMOOTH",
"49 140 OFFCURVE",
"56 151 OFFCURVE",
"71 152 CURVE SMOOTH",
"86 153 OFFCURVE",
"107 144 OFFCURVE",
"159 104 CURVE SMOOTH"
);
},
{
closed = 1;
nodes = (
"712 480 OFFCURVE",
"684 430 OFFCURVE",
"634 384 CURVE SMOOTH",
"582 340 OFFCURVE",
"534 314 OFFCURVE",
"501 301 CURVE",
"558 423 OFFCURVE",
"620 496 OFFCURVE",
"681 515 CURVE SMOOTH",
"688 517 OFFCURVE",
"693 518 OFFCURVE",
"697 518 CURVE SMOOTH",
"707 518 OFFCURVE",
"713 512 OFFCURVE",
"713 503 CURVE SMOOTH"
);
}
);
width = 750;
}
);
note = L;
unicode = 004C;
},
{
color = 4;
glyphname = Lacute;
lastChange = "2021-04-21 04:42:14 +0000";
layers = (
{
hints = (
{
horizontal = 1;
place = "{-37, 38}";
type = Stem;
},
{
horizontal = 1;
place = "{152, 48}";
type = Stem;
},
{
horizontal = 1;
place = "{221, 38}";
type = Stem;
},
{
horizontal = 1;
place = "{517, 41}";
type = Stem;
},
{
place = "{5, 39}";
type = Stem;
},
{
place = "{187, 45}";
type = Stem;
},
{
place = "{260, 83}";
type = Stem;
},
{
place = "{707, 38}";
type = Stem;
}
);
layerId = "A9A9B55F-A222-44B0-A0B6-968BE501F3F8";
paths = (
{
closed = 1;
nodes = (
"742 50 OFFCURVE",
"728 74 OFFCURVE",
"705 90 CURVE",
"698 93 OFFCURVE",
"694 95 OFFCURVE",
"691 95 CURVE SMOOTH",
"682 95 OFFCURVE",
"678 91 OFFCURVE",
"677 84 CURVE SMOOTH",
"677 80 OFFCURVE",
"691 70 OFFCURVE",
"702 61 CURVE",
"732 24 OFFCURVE",
"696 -13 OFFCURVE",
"662 -24 CURVE SMOOTH",
"634 -32 OFFCURVE",
"597 -33 OFFCURVE",
"561 -33 CURVE SMOOTH",
"509 -33 OFFCURVE",
"390 -9 OFFCURVE",
"339 25 CURVE",
"365 48 OFFCURVE",
"391 84 OFFCURVE",
"418 130 CURVE SMOOTH",
"432 156 OFFCURVE",
"451 198 OFFCURVE",
"474 249 CURVE",
"540 279 LINE SMOOTH",
"587 302 OFFCURVE",
"644 338 OFFCURVE",
"681 372 CURVE SMOOTH",
"729 417 OFFCURVE",
"753 462 OFFCURVE",
"754 500 CURVE SMOOTH",
"755 537 OFFCURVE",
"725 560 OFFCURVE",
"677 560 CURVE SMOOTH",
"641 560 OFFCURVE",
"605 543 OFFCURVE",
"562 500 CURVE SMOOTH",
"534 472 OFFCURVE",
"508 427 OFFCURVE",
"485 386 CURVE SMOOTH",
"472 361 OFFCURVE",
"452 323 OFFCURVE",
"431 271 CURVE",
"395 260 OFFCURVE",
"363 256 OFFCURVE",
"332 256 CURVE SMOOTH",
"267 256 OFFCURVE",
"237 271 OFFCURVE",
"238 301 CURVE SMOOTH",
"239 331 OFFCURVE",
"280 365 OFFCURVE",
"369 392 CURVE SMOOTH",
"382 396 OFFCURVE",
"395 398 OFFCURVE",
"403 400 CURVE SMOOTH",
"412 402 LINE SMOOTH",
"431 406 OFFCURVE",
"433 420 OFFCURVE",
"414 420 CURVE SMOOTH",
"379 420 OFFCURVE",
"336 408 OFFCURVE",
"287 384 CURVE SMOOTH",
"236 357 OFFCURVE",
"200 327 OFFCURVE",
"199 299 CURVE SMOOTH",
"198 273 OFFCURVE",
"214 246 OFFCURVE",
"242 233 CURVE SMOOTH",
"263 225 OFFCURVE",
"293 221 OFFCURVE",
"327 221 CURVE SMOOTH",
"356 221 OFFCURVE",
"381 225 OFFCURVE",
"416 232 CURVE",
"376 141 OFFCURVE",
"345 81 OFFCURVE",
"308 40 CURVE",
"301 45 OFFCURVE",
"266 76 OFFCURVE",
"203 125 CURVE SMOOTH",
"146 169 OFFCURVE",
"105 198 OFFCURVE",
"82 198 CURVE SMOOTH",
"19 198 OFFCURVE",
"8 134 OFFCURVE",
"7 107 CURVE SMOOTH",
"6 66 OFFCURVE",
"23 32 OFFCURVE",
"58 3 CURVE SMOOTH",
"92 -25 OFFCURVE",
"131 -39 OFFCURVE",
"178 -39 CURVE SMOOTH",
"216 -39 OFFCURVE",
"264 -26 OFFCURVE",
"307 -2 CURVE",
"404 -59 OFFCURVE",
"499 -80 OFFCURVE",
"574 -80 CURVE SMOOTH",
"648 -80 OFFCURVE",
"750 -57 OFFCURVE",
"743 27 CURVE SMOOTH"
);
},
{
closed = 1;
nodes = (
"279 19 LINE",
"254 6 OFFCURVE",
"205 -3 OFFCURVE",
"176 -3 CURVE SMOOTH",
"144 -3 OFFCURVE",
"112 11 OFFCURVE",
"87 34 CURVE SMOOTH",
"61 56 OFFCURVE",
"48 87 OFFCURVE",
"49 116 CURVE SMOOTH",
"49 140 OFFCURVE",
"56 151 OFFCURVE",
"71 152 CURVE SMOOTH",
"86 153 OFFCURVE",
"107 144 OFFCURVE",
"159 104 CURVE SMOOTH"
);
},
{
closed = 1;
nodes = (
"712 480 OFFCURVE",
"684 430 OFFCURVE",
"634 384 CURVE SMOOTH",
"582 340 OFFCURVE",
"534 314 OFFCURVE",
"501 301 CURVE",
"558 423 OFFCURVE",
"620 496 OFFCURVE",
"681 515 CURVE SMOOTH",
"688 517 OFFCURVE",
"693 518 OFFCURVE",
"697 518 CURVE SMOOTH",
"707 518 OFFCURVE",
"713 512 OFFCURVE",
"713 503 CURVE SMOOTH"
);
},
{
closed = 1;
nodes = (
"726 595 OFFCURVE",
"818 645 OFFCURVE",
"833 654 CURVE SMOOTH",
"840 658 OFFCURVE",
"844 667 OFFCURVE",
"844 676 CURVE SMOOTH",
"845 685 OFFCURVE",
"840 692 OFFCURVE",
"831 692 CURVE SMOOTH",
"815 692 OFFCURVE",
"716 620 OFFCURVE",
"711 616 CURVE SMOOTH",
"708 614 OFFCURVE",
"705 610 OFFCURVE",
"705 606 CURVE SMOOTH",
"705 599 OFFCURVE",
"711 595 OFFCURVE",
"716 595 CURVE SMOOTH"
);
}
);
width = 750;
}
);
note = Lacute;
unicode = 0139;
},
{
color = 4;
glyphname = Lcaron;
lastChange = "2021-04-21 04:42:14 +0000";
layers = (
{
hints = (
{
horizontal = 1;
place = "{-37, 38}";
type = Stem;
},
{
horizontal = 1;
place = "{152, 48}";
type = Stem;
},
{
horizontal = 1;
place = "{221, 38}";
type = Stem;
},
{
horizontal = 1;
place = "{517, 41}";
type = Stem;
},
{
place = "{5, 39}";
type = Stem;
},
{
place = "{187, 45}";
type = Stem;
},
{
place = "{260, 83}";
type = Stem;
},
{
place = "{707, 38}";
type = Stem;
},
{
place = "{771, 44}";
type = Stem;
}
);
layerId = "A9A9B55F-A222-44B0-A0B6-968BE501F3F8";
paths = (
{
closed = 1;
nodes = (
"742 50 OFFCURVE",
"728 74 OFFCURVE",
"705 90 CURVE",
"698 93 OFFCURVE",
"694 95 OFFCURVE",
"691 95 CURVE SMOOTH",
"682 95 OFFCURVE",
"678 91 OFFCURVE",
"677 84 CURVE SMOOTH",
"677 80 OFFCURVE",
"691 70 OFFCURVE",
"702 61 CURVE",
"732 24 OFFCURVE",
"696 -13 OFFCURVE",
"662 -24 CURVE SMOOTH",
"634 -32 OFFCURVE",
"597 -33 OFFCURVE",
"561 -33 CURVE SMOOTH",
"509 -33 OFFCURVE",
"390 -9 OFFCURVE",
"339 25 CURVE",
"365 48 OFFCURVE",
"391 84 OFFCURVE",
"418 130 CURVE SMOOTH",
"432 156 OFFCURVE",
"451 198 OFFCURVE",
"474 249 CURVE",
"540 279 LINE SMOOTH",
"587 302 OFFCURVE",
"644 338 OFFCURVE",
"681 372 CURVE SMOOTH",
"729 417 OFFCURVE",
"753 462 OFFCURVE",
"754 500 CURVE SMOOTH",
"755 537 OFFCURVE",
"725 560 OFFCURVE",
"677 560 CURVE SMOOTH",
"641 560 OFFCURVE",
"605 543 OFFCURVE",
"562 500 CURVE SMOOTH",
"534 472 OFFCURVE",
"508 427 OFFCURVE",
"485 386 CURVE SMOOTH",
"472 361 OFFCURVE",
"452 323 OFFCURVE",
"431 271 CURVE",
"395 260 OFFCURVE",
"363 256 OFFCURVE",
"332 256 CURVE SMOOTH",
"267 256 OFFCURVE",
"237 271 OFFCURVE",
"238 301 CURVE SMOOTH",
"239 331 OFFCURVE",
"280 365 OFFCURVE",
"369 392 CURVE SMOOTH",
"382 396 OFFCURVE",
"395 398 OFFCURVE",
"403 400 CURVE SMOOTH",
"412 402 LINE SMOOTH",
"431 406 OFFCURVE",
"433 420 OFFCURVE",
"414 420 CURVE SMOOTH",
"379 420 OFFCURVE",
"336 408 OFFCURVE",
"287 384 CURVE SMOOTH",
"236 357 OFFCURVE",
"200 327 OFFCURVE",
"199 299 CURVE SMOOTH",
"198 273 OFFCURVE",
"214 246 OFFCURVE",
"242 233 CURVE SMOOTH",
"263 225 OFFCURVE",
"293 221 OFFCURVE",
"327 221 CURVE SMOOTH",
"356 221 OFFCURVE",
"381 225 OFFCURVE",
"416 232 CURVE",
"376 141 OFFCURVE",
"345 81 OFFCURVE",
"308 40 CURVE",
"301 45 OFFCURVE",
"266 76 OFFCURVE",
"203 125 CURVE SMOOTH",
"146 169 OFFCURVE",
"105 198 OFFCURVE",
"82 198 CURVE SMOOTH",
"19 198 OFFCURVE",
"8 134 OFFCURVE",
"7 107 CURVE SMOOTH",
"6 66 OFFCURVE",
"23 32 OFFCURVE",
"58 3 CURVE SMOOTH",
"92 -25 OFFCURVE",
"131 -39 OFFCURVE",
"178 -39 CURVE SMOOTH",
"216 -39 OFFCURVE",
"264 -26 OFFCURVE",
"307 -2 CURVE",
"404 -59 OFFCURVE",
"499 -80 OFFCURVE",
"574 -80 CURVE SMOOTH",
"648 -80 OFFCURVE",
"750 -57 OFFCURVE",
"743 27 CURVE SMOOTH"
);
},
{
closed = 1;
nodes = (
"279 19 LINE",
"254 6 OFFCURVE",
"205 -3 OFFCURVE",
"176 -3 CURVE SMOOTH",
"144 -3 OFFCURVE",
"112 11 OFFCURVE",
"87 34 CURVE SMOOTH",
"61 56 OFFCURVE",
"48 87 OFFCURVE",
"49 116 CURVE SMOOTH",
"49 140 OFFCURVE",
"56 151 OFFCURVE",
"71 152 CURVE SMOOTH",
"86 153 OFFCURVE",
"107 144 OFFCURVE",
"159 104 CURVE SMOOTH"
);
},
{
closed = 1;
nodes = (
"712 480 OFFCURVE",
"684 430 OFFCURVE",
"634 384 CURVE SMOOTH",
"582 340 OFFCURVE",
"534 314 OFFCURVE",
"501 301 CURVE",
"558 423 OFFCURVE",
"620 496 OFFCURVE",
"681 515 CURVE SMOOTH",
"688 517 OFFCURVE",
"693 518 OFFCURVE",
"697 518 CURVE SMOOTH",
"707 518 OFFCURVE",
"713 512 OFFCURVE",
"713 503 CURVE SMOOTH"
);
},
{
closed = 1;
nodes = (
"756 691 OFFCURVE",
"761 684 OFFCURVE",
"771 680 CURVE",
"763 653 OFFCURVE",
"730 624 OFFCURVE",
"729 623 CURVE",
"712 614 OFFCURVE",
"723 609 OFFCURVE",
"734 612 CURVE",
"743 618 OFFCURVE",
"760 631 OFFCURVE",
"776 649 CURVE SMOOTH",
"801 675 OFFCURVE",
"810 692 OFFCURVE",
"810 707 CURVE SMOOTH",
"811 720 OFFCURVE",
"803 730 OFFCURVE",
"788 730 CURVE SMOOTH",
"770 730 OFFCURVE",
"757 714 OFFCURVE",
"756 699 CURVE SMOOTH"
);
}
);
width = 750;
}
);
note = Lcaron;
unicode = 013D;
},
{
color = 4;
glyphname = Lcommaaccent;
lastChange = "2021-04-21 04:42:14 +0000";
layers = (
{
hints = (
{
horizontal = 1;
place = "{-37, 38}";
type = Stem;
},
{
horizontal = 1;
place = "{152, 48}";
type = Stem;
},
{
horizontal = 1;
place = "{220, 38}";
type = Stem;
},
{
horizontal = 1;
place = "{517, 41}";
type = Stem;
},
{
place = "{5, 39}";
type = Stem;
},
{
place = "{187, 45}";
type = Stem;
},
{
place = "{318, 56}";
type = Stem;
},
{
place = "{695, 42}";
type = Stem;
},
{
horizontal = 1;
place = "{221, 38}";
type = Stem;
},
{
place = "{260, 83}";
type = Stem;
},
{
place = "{707, 38}";
type = Stem;
}
);
layerId = "A9A9B55F-A222-44B0-A0B6-968BE501F3F8";
paths = (
{
closed = 1;
nodes = (
"742 50 OFFCURVE",
"728 74 OFFCURVE",
"705 90 CURVE",
"698 93 OFFCURVE",
"694 95 OFFCURVE",
"691 95 CURVE SMOOTH",
"682 95 OFFCURVE",
"678 91 OFFCURVE",
"677 84 CURVE SMOOTH",
"677 80 OFFCURVE",
"691 70 OFFCURVE",
"702 61 CURVE",
"732 24 OFFCURVE",
"696 -13 OFFCURVE",
"662 -24 CURVE SMOOTH",
"634 -32 OFFCURVE",
"597 -33 OFFCURVE",
"561 -33 CURVE SMOOTH",
"509 -33 OFFCURVE",
"390 -9 OFFCURVE",
"339 25 CURVE",
"365 48 OFFCURVE",
"391 84 OFFCURVE",
"418 130 CURVE SMOOTH",
"432 156 OFFCURVE",
"451 198 OFFCURVE",
"474 249 CURVE",
"540 279 LINE SMOOTH",
"587 302 OFFCURVE",
"644 338 OFFCURVE",
"681 372 CURVE SMOOTH",
"729 417 OFFCURVE",
"753 462 OFFCURVE",
"754 500 CURVE SMOOTH",
"755 537 OFFCURVE",
"725 560 OFFCURVE",
"677 560 CURVE SMOOTH",
"641 560 OFFCURVE",
"605 543 OFFCURVE",
"562 500 CURVE SMOOTH",
"534 472 OFFCURVE",
"508 427 OFFCURVE",
"485 386 CURVE SMOOTH",
"472 361 OFFCURVE",
"452 323 OFFCURVE",
"431 271 CURVE",
"395 260 OFFCURVE",
"363 256 OFFCURVE",
"332 256 CURVE SMOOTH",
"267 256 OFFCURVE",
"237 271 OFFCURVE",
"238 301 CURVE SMOOTH",
"239 331 OFFCURVE",
"280 365 OFFCURVE",
"369 392 CURVE SMOOTH",
"382 396 OFFCURVE",
"395 398 OFFCURVE",
"403 400 CURVE SMOOTH",
"412 402 LINE SMOOTH",
"431 406 OFFCURVE",
"433 420 OFFCURVE",
"414 420 CURVE SMOOTH",
"379 420 OFFCURVE",
"336 408 OFFCURVE",
"287 384 CURVE SMOOTH",
"236 357 OFFCURVE",
"200 327 OFFCURVE",
"199 299 CURVE SMOOTH",
"198 273 OFFCURVE",
"214 246 OFFCURVE",
"242 233 CURVE SMOOTH",
"263 225 OFFCURVE",
"293 221 OFFCURVE",
"327 221 CURVE SMOOTH",
"356 221 OFFCURVE",
"381 225 OFFCURVE",
"416 232 CURVE",
"376 141 OFFCURVE",
"345 81 OFFCURVE",
"308 40 CURVE",
"301 45 OFFCURVE",
"266 76 OFFCURVE",
"203 125 CURVE SMOOTH",
"146 169 OFFCURVE",
"105 198 OFFCURVE",
"82 198 CURVE SMOOTH",
"19 198 OFFCURVE",
"8 134 OFFCURVE",
"7 107 CURVE SMOOTH",
"6 66 OFFCURVE",
"23 32 OFFCURVE",
"58 3 CURVE SMOOTH",
"92 -25 OFFCURVE",
"131 -39 OFFCURVE",
"178 -39 CURVE SMOOTH",
"216 -39 OFFCURVE",
"264 -26 OFFCURVE",
"307 -2 CURVE",
"404 -59 OFFCURVE",
"499 -80 OFFCURVE",
"574 -80 CURVE SMOOTH",
"648 -80 OFFCURVE",
"750 -57 OFFCURVE",
"743 27 CURVE SMOOTH"
);
},
{
closed = 1;
nodes = (
"279 19 LINE",
"254 6 OFFCURVE",
"205 -3 OFFCURVE",
"176 -3 CURVE SMOOTH",
"144 -3 OFFCURVE",
"112 11 OFFCURVE",
"87 34 CURVE SMOOTH",
"61 56 OFFCURVE",
"48 87 OFFCURVE",
"49 116 CURVE SMOOTH",
"49 140 OFFCURVE",
"56 151 OFFCURVE",
"71 152 CURVE SMOOTH",
"86 153 OFFCURVE",
"107 144 OFFCURVE",
"159 104 CURVE SMOOTH"
);
},
{
closed = 1;
nodes = (
"712 480 OFFCURVE",
"684 430 OFFCURVE",
"634 384 CURVE SMOOTH",
"582 340 OFFCURVE",
"534 314 OFFCURVE",
"501 301 CURVE",
"558 423 OFFCURVE",
"620 496 OFFCURVE",
"681 515 CURVE SMOOTH",
"688 517 OFFCURVE",
"693 518 OFFCURVE",
"697 518 CURVE SMOOTH",
"707 518 OFFCURVE",
"713 512 OFFCURVE",
"713 503 CURVE SMOOTH"
);
},
{
closed = 1;
nodes = (
"312 -83 OFFCURVE",
"325 -67 OFFCURVE",
"343 -67 CURVE SMOOTH",
"358 -67 OFFCURVE",
"366 -77 OFFCURVE",
"365 -90 CURVE SMOOTH",
"365 -105 OFFCURVE",
"356 -122 OFFCURVE",
"331 -148 CURVE SMOOTH",
"315 -166 OFFCURVE",
"298 -179 OFFCURVE",
"289 -185 CURVE",
"278 -188 OFFCURVE",
"267 -183 OFFCURVE",
"284 -174 CURVE",
"285 -173 OFFCURVE",
"318 -144 OFFCURVE",
"326 -117 CURVE",
"316 -113 OFFCURVE",
"311 -106 OFFCURVE",
"311 -98 CURVE SMOOTH"
);
}
);
width = 750;
}
);
note = Lcommaaccent;
unicode = 013B;
},
{
color = 4;
glyphname = Ldot;
lastChange = "2021-04-21 04:42:14 +0000";
layers = (
{
hints = (
{
horizontal = 1;
place = "{-37, 38}";
type = Stem;
},
{
horizontal = 1;
place = "{152, 48}";
type = Stem;
},
{
horizontal = 1;
place = "{221, 38}";
type = Stem;
},
{
horizontal = 1;
place = "{517, 41}";
type = Stem;
},
{
place = "{5, 39}";
type = Stem;
},
{
place = "{187, 45}";
type = Stem;
},
{
place = "{260, 83}";
type = Stem;
},
{
place = "{695, 42}";
type = Stem;
},
{
place = "{707, 38}";
type = Stem;
}
);
layerId = "A9A9B55F-A222-44B0-A0B6-968BE501F3F8";
paths = (
{
closed = 1;
nodes = (
"742 50 OFFCURVE",
"728 74 OFFCURVE",
"705 90 CURVE",
"698 93 OFFCURVE",
"694 95 OFFCURVE",
"691 95 CURVE SMOOTH",
"682 95 OFFCURVE",
"678 91 OFFCURVE",
"677 84 CURVE SMOOTH",
"677 80 OFFCURVE",
"691 70 OFFCURVE",
"702 61 CURVE",
"732 24 OFFCURVE",
"696 -13 OFFCURVE",
"662 -24 CURVE SMOOTH",
"634 -32 OFFCURVE",
"597 -33 OFFCURVE",
"561 -33 CURVE SMOOTH",
"509 -33 OFFCURVE",
"390 -9 OFFCURVE",
"339 25 CURVE",
"365 48 OFFCURVE",
"391 84 OFFCURVE",
"418 130 CURVE SMOOTH",
"432 156 OFFCURVE",
"451 198 OFFCURVE",
"474 249 CURVE",
"540 279 LINE SMOOTH",
"587 302 OFFCURVE",
"644 338 OFFCURVE",
"681 372 CURVE SMOOTH",
"729 417 OFFCURVE",
"753 462 OFFCURVE",
"754 500 CURVE SMOOTH",
"755 537 OFFCURVE",
"725 560 OFFCURVE",
"677 560 CURVE SMOOTH",
"641 560 OFFCURVE",
"605 543 OFFCURVE",
"562 500 CURVE SMOOTH",
"534 472 OFFCURVE",
"508 427 OFFCURVE",
"485 386 CURVE SMOOTH",
"472 361 OFFCURVE",
"452 323 OFFCURVE",
"431 271 CURVE",
"395 260 OFFCURVE",
"363 256 OFFCURVE",
"332 256 CURVE SMOOTH",
"267 256 OFFCURVE",
"237 271 OFFCURVE",
"238 301 CURVE SMOOTH",
"239 331 OFFCURVE",
"280 365 OFFCURVE",
"369 392 CURVE SMOOTH",
"382 396 OFFCURVE",
"395 398 OFFCURVE",
"403 400 CURVE SMOOTH",
"412 402 LINE SMOOTH",
"431 406 OFFCURVE",
"433 420 OFFCURVE",
"414 420 CURVE SMOOTH",
"379 420 OFFCURVE",
"336 408 OFFCURVE",
"287 384 CURVE SMOOTH",
"236 357 OFFCURVE",
"200 327 OFFCURVE",
"199 299 CURVE SMOOTH",
"198 273 OFFCURVE",
"214 246 OFFCURVE",
"242 233 CURVE SMOOTH",
"263 225 OFFCURVE",
"293 221 OFFCURVE",
"327 221 CURVE SMOOTH",
"356 221 OFFCURVE",
"381 225 OFFCURVE",
"416 232 CURVE",
"376 141 OFFCURVE",
"345 81 OFFCURVE",
"308 40 CURVE",
"301 45 OFFCURVE",
"266 76 OFFCURVE",
"203 125 CURVE SMOOTH",
"146 169 OFFCURVE",
"105 198 OFFCURVE",
"82 198 CURVE SMOOTH",
"19 198 OFFCURVE",
"8 134 OFFCURVE",
"7 107 CURVE SMOOTH",
"6 66 OFFCURVE",
"23 32 OFFCURVE",
"58 3 CURVE SMOOTH",
"92 -25 OFFCURVE",
"131 -39 OFFCURVE",
"178 -39 CURVE SMOOTH",
"216 -39 OFFCURVE",
"264 -26 OFFCURVE",
"307 -2 CURVE",
"404 -59 OFFCURVE",
"499 -80 OFFCURVE",
"574 -80 CURVE SMOOTH",
"648 -80 OFFCURVE",
"750 -57 OFFCURVE",
"743 27 CURVE SMOOTH"
);
},
{
closed = 1;
nodes = (
"279 19 LINE",
"254 6 OFFCURVE",
"205 -3 OFFCURVE",
"176 -3 CURVE SMOOTH",
"144 -3 OFFCURVE",
"112 11 OFFCURVE",
"87 34 CURVE SMOOTH",
"61 56 OFFCURVE",
"48 87 OFFCURVE",
"49 116 CURVE SMOOTH",
"49 140 OFFCURVE",
"56 151 OFFCURVE",
"71 152 CURVE SMOOTH",
"86 153 OFFCURVE",
"107 144 OFFCURVE",
"159 104 CURVE SMOOTH"
);
},
{
closed = 1;
nodes = (
"712 480 OFFCURVE",
"684 430 OFFCURVE",
"634 384 CURVE SMOOTH",
"582 340 OFFCURVE",
"534 314 OFFCURVE",
"501 301 CURVE",
"558 423 OFFCURVE",
"620 496 OFFCURVE",
"681 515 CURVE SMOOTH",
"688 517 OFFCURVE",
"693 518 OFFCURVE",
"697 518 CURVE SMOOTH",
"707 518 OFFCURVE",
"713 512 OFFCURVE",
"713 503 CURVE SMOOTH"
);
},
{
closed = 1;
nodes = (
"658 178 OFFCURVE",
"669 164 OFFCURVE",
"686 164 CURVE SMOOTH",
"703 164 OFFCURVE",
"720 178 OFFCURVE",
"721 196 CURVE",
"725 214 OFFCURVE",
"713 228 OFFCURVE",
"696 228 CURVE SMOOTH",
"678 228 OFFCURVE",
"663 214 OFFCURVE",
"660 196 CURVE SMOOTH"
);
}
);
width = 750;
}
);
note = Ldot;
unicode = 013F;
},
{
color = 4;
glyphname = Lslash;
lastChange = "2021-04-21 04:42:14 +0000";
layers = (
{
hints = (
{
horizontal = 1;
place = "{-37, 38}";
type = Stem;
},
{
horizontal = 1;
place = "{152, 48}";
type = Stem;
},
{
horizontal = 1;
place = "{221, 38}";
type = Stem;
},
{
horizontal = 1;
place = "{517, 41}";
type = Stem;
},
{
place = "{5, 39}";
type = Stem;
},
{
place = "{187, 45}";
type = Stem;
},
{
place = "{707, 38}";
type = Stem;
}
);
layerId = "A9A9B55F-A222-44B0-A0B6-968BE501F3F8";
paths = (
{
closed = 1;
nodes = (
"744 50 OFFCURVE",
"731 70 OFFCURVE",
"705 87 CURVE SMOOTH",
"702 89 OFFCURVE",
"700 90 OFFCURVE",
"696 90 CURVE SMOOTH",
"691 90 OFFCURVE",
"687 87 OFFCURVE",
"686 82 CURVE SMOOTH",
"686 79 OFFCURVE",
"692 72 OFFCURVE",
"703 63 CURVE SMOOTH",
"712 54 OFFCURVE",
"718 45 OFFCURVE",
"718 36 CURVE SMOOTH",
"717 11 OFFCURVE",
"698 -3 OFFCURVE",
"660 -14 CURVE SMOOTH",
"633 -22 OFFCURVE",
"601 -26 OFFCURVE",
"565 -26 CURVE SMOOTH",
"533 -26 OFFCURVE",
"491 -21 OFFCURVE",
"444 -10 CURVE SMOOTH",
"398 0 OFFCURVE",
"359 8 OFFCURVE",
"330 22 CURVE",
"357 44 OFFCURVE",
"384 80 OFFCURVE",
"412 129 CURVE",
"418 142 OFFCURVE",
"428 160 OFFCURVE",
"438 181 CURVE",
"490 199 OFFCURVE",
"545 214 OFFCURVE",
"597 225 CURVE SMOOTH",
"602 226 OFFCURVE",
"613 245 OFFCURVE",
"606 244 CURVE SMOOTH",
"559 234 OFFCURVE",
"506 221 OFFCURVE",
"449 204 CURVE",
"456 218 OFFCURVE",
"462 233 OFFCURVE",
"470 250 CURVE",
"539 281 LINE SMOOTH",
"589 305 OFFCURVE",
"635 329 OFFCURVE",
"674 365 CURVE SMOOTH",
"726 411 OFFCURVE",
"751 460 OFFCURVE",
"752 498 CURVE SMOOTH",
"753 534 OFFCURVE",
"730 552 OFFCURVE",
"683 552 CURVE SMOOTH",
"648 552 OFFCURVE",
"612 541 OFFCURVE",
"570 499 CURVE SMOOTH",
"542 471 OFFCURVE",
"513 426 OFFCURVE",
"490 384 CURVE SMOOTH",
"477 359 OFFCURVE",
"464 325 OFFCURVE",
"441 273 CURVE",
"404 262 OFFCURVE",
"367 257 OFFCURVE",
"334 257 CURVE SMOOTH",
"267 257 OFFCURVE",
"231 268 OFFCURVE",
"232 299 CURVE SMOOTH",
"233 332 OFFCURVE",
"279 362 OFFCURVE",
"372 389 CURVE SMOOTH",
"390 394 OFFCURVE",
"404 397 OFFCURVE",
"413 399 CURVE SMOOTH",
"422 401 OFFCURVE",
"426 404 OFFCURVE",
"426 408 CURVE SMOOTH",
"426 414 OFFCURVE",
"422 417 OFFCURVE",
"414 417 CURVE SMOOTH",
"379 417 OFFCURVE",
"338 405 OFFCURVE",
"286 380 CURVE SMOOTH",
"230 353 OFFCURVE",
"195 321 OFFCURVE",
"194 293 CURVE SMOOTH",
"193 268 OFFCURVE",
"207 248 OFFCURVE",
"239 236 CURVE SMOOTH",
"261 227 OFFCURVE",
"290 223 OFFCURVE",
"323 223 CURVE SMOOTH",
"353 223 OFFCURVE",
"385 228 OFFCURVE",
"421 237 CURVE",
"412 218 OFFCURVE",
"410 205 OFFCURVE",
"401 188 CURVE",
"360 174 OFFCURVE",
"317 158 OFFCURVE",
"271 139 CURVE SMOOTH",
"268 138 OFFCURVE",
"268 134 OFFCURVE",
"267 132 CURVE",
"266 127 OFFCURVE",
"259 108 OFFCURVE",
"263 107 CURVE",
"263 107 OFFCURVE",
"266 108 OFFCURVE",
"267 108 CURVE",
"302 127 OFFCURVE",
"344 145 OFFCURVE",
"388 163 CURVE",
"360 107 OFFCURVE",
"332 63 OFFCURVE",
"304 33 CURVE",
"296 38 OFFCURVE",
"258 76 OFFCURVE",
"191 132 CURVE SMOOTH",
"136 178 OFFCURVE",
"98 193 OFFCURVE",
"75 193 CURVE SMOOTH",
"54 193 OFFCURVE",
"38 184 OFFCURVE",
"25 165 CURVE SMOOTH",
"14 150 OFFCURVE",
"8 132 OFFCURVE",
"7 112 CURVE SMOOTH",
"6 72 OFFCURVE",
"23 38 OFFCURVE",
"58 10 CURVE SMOOTH",
"92 -17 OFFCURVE",
"132 -31 OFFCURVE",
"178 -31 CURVE SMOOTH",
"217 -31 OFFCURVE",
"255 -23 OFFCURVE",
"300 2 CURVE",
"400 -53 OFFCURVE",
"484 -65 OFFCURVE",
"559 -65 CURVE SMOOTH",
"601 -65 OFFCURVE",
"638 -60 OFFCURVE",
"671 -46 CURVE SMOOTH",
"713 -29 OFFCURVE",
"742 -4 OFFCURVE",
"744 29 CURVE SMOOTH"
);
},
{
closed = 1;
nodes = (
"262 18 LINE",
"236 3 OFFCURVE",
"207 -5 OFFCURVE",
"176 -5 CURVE SMOOTH",
"143 -5 OFFCURVE",
"114 8 OFFCURVE",
"86 33 CURVE SMOOTH",
"60 58 OFFCURVE",
"47 86 OFFCURVE",
"48 118 CURVE SMOOTH",
"49 145 OFFCURVE",
"56 158 OFFCURVE",
"72 158 CURVE SMOOTH",
"79 158 OFFCURVE",
"108 137 OFFCURVE",
"162 95 CURVE SMOOTH"
);
},
{
closed = 1;
nodes = (
"716 479 OFFCURVE",
"687 440 OFFCURVE",
"630 389 CURVE SMOOTH",
"576 342 OFFCURVE",
"533 312 OFFCURVE",
"500 301 CURVE",
"558 428 OFFCURVE",
"620 501 OFFCURVE",
"683 521 CURVE SMOOTH",
"689 523 OFFCURVE",
"695 524 OFFCURVE",
"700 524 CURVE SMOOTH",
"712 524 OFFCURVE",
"718 517 OFFCURVE",
"717 505 CURVE SMOOTH"
);
}
);
width = 750;
}
);
note = Lslash;
unicode = 0141;
},
{
color = 4;
glyphname = M;
lastChange = "2021-04-21 04:42:14 +0000";
layers = (
{
hints = (
{
horizontal = 1;
place = "{-83, 34}";
type = Stem;
},
{
horizontal = 1;
place = "{203, 35}";
type = Stem;
},
{
horizontal = 1;
place = "{369, 42}";
type = Stem;
},
{
horizontal = 1;
place = "{411, 41}";
type = Stem;
},
{
horizontal = 1;
place = "{527, 35}";
type = Stem;
},
{
place = "{-63, 41}";
type = Stem;
},
{
place = "{575, 65}";
type = Stem;
},
{
place = "{856, 48}";
type = Stem;
},
{
place = "{1043, 52}";
type = Stem;
}
);
layerId = "A9A9B55F-A222-44B0-A0B6-968BE501F3F8";
paths = (
{
closed = 1;
nodes = (
"1245 394 OFFCURVE",
"1235 407 OFFCURVE",
"1213 407 CURVE SMOOTH",
"1206 407 OFFCURVE",
"1188 404 OFFCURVE",
"1179 401 CURVE SMOOTH",
"1143 391 OFFCURVE",
"1084 351 OFFCURVE",
"1000 280 CURVE SMOOTH",
"940 230 OFFCURVE",
"888 172 OFFCURVE",
"837 123 CURVE",
"885 222 OFFCURVE",
"914 301 OFFCURVE",
"916 353 CURVE SMOOTH",
"918 413 OFFCURVE",
"892 446 OFFCURVE",
"847 446 CURVE SMOOTH",
"811 446 OFFCURVE",
"760 416 OFFCURVE",
"697 353 CURVE SMOOTH",
"652 308 OFFCURVE",
"610 261 OFFCURVE",
"567 216 CURVE",
"622 309 OFFCURVE",
"651 385 OFFCURVE",
"653 445 CURVE SMOOTH",
"656 519 OFFCURVE",
"604 556 OFFCURVE",
"497 556 CURVE SMOOTH",
"446 556 OFFCURVE",
"382 548 OFFCURVE",
"314 530 CURVE SMOOTH",
"267 518 OFFCURVE",
"220 502 OFFCURVE",
"174 483 CURVE SMOOTH",
"121 461 OFFCURVE",
"75 435 OFFCURVE",
"35 408 CURVE SMOOTH",
"-23 368 OFFCURVE",
"-51 331 OFFCURVE",
"-52 296 CURVE SMOOTH",
"-53 263 OFFCURVE",
"-33 240 OFFCURVE",
"7 225 CURVE SMOOTH",
"38 214 OFFCURVE",
"74 209 OFFCURVE",
"119 209 CURVE SMOOTH",
"178 209 OFFCURVE",
"224 217 OFFCURVE",
"254 227 CURVE SMOOTH",
"264 230 OFFCURVE",
"266 245 OFFCURVE",
"255 244 CURVE SMOOTH",
"208 239 OFFCURVE",
"161 231 OFFCURVE",
"114 231 CURVE SMOOTH",
"34 231 OFFCURVE",
"-5 250 OFFCURVE",
"-3 287 CURVE SMOOTH",
"-3 312 OFFCURVE",
"25 345 OFFCURVE",
"82 384 CURVE SMOOTH",
"121 410 OFFCURVE",
"162 433 OFFCURVE",
"204 454 CURVE SMOOTH",
"247 475 OFFCURVE",
"289 492 OFFCURVE",
"329 505 CURVE SMOOTH",
"391 525 OFFCURVE",
"436 531 OFFCURVE",
"479 531 CURVE SMOOTH",
"559 531 OFFCURVE",
"589 502 OFFCURVE",
"587 435 CURVE SMOOTH",
"585 386 OFFCURVE",
"556 309 OFFCURVE",
"503 205 CURVE SMOOTH",
"451 108 OFFCURVE",
"407 38 OFFCURVE",
"363 -7 CURVE",
"361 -10 OFFCURVE",
"360 -14 OFFCURVE",
"360 -19 CURVE SMOOTH",
"359 -36 OFFCURVE",
"380 -46 OFFCURVE",
"398 -42 CURVE",
"406 -37 OFFCURVE",
"416 -26 OFFCURVE",
"427 -9 CURVE SMOOTH",
"453 28 LINE SMOOTH",
"527 135 OFFCURVE",
"608 230 OFFCURVE",
"691 311 CURVE SMOOTH",
"765 382 OFFCURVE",
"813 409 OFFCURVE",
"844 413 CURVE SMOOTH",
"867 416 OFFCURVE",
"870 387 OFFCURVE",
"865 359 CURVE SMOOTH",
"856 296 OFFCURVE",
"823 211 OFFCURVE",
"744 71 CURVE SMOOTH",
"717 24 OFFCURVE",
"704 -2 OFFCURVE",
"700 -5 CURVE SMOOTH",
"697 -8 OFFCURVE",
"696 -12 OFFCURVE",
"696 -15 CURVE SMOOTH",
"695 -31 OFFCURVE",
"716 -36 OFFCURVE",
"739 -36 CURVE SMOOTH",
"741 -36 OFFCURVE",
"749 -35 OFFCURVE",
"753 -34 CURVE",
"761 -25 OFFCURVE",
"768 -17 OFFCURVE",
"771 -10 CURVE",
"809 40 LINE SMOOTH",
"858 100 OFFCURVE",
"912 164 OFFCURVE",
"984 233 CURVE SMOOTH",
"1083 328 OFFCURVE",
"1148 373 OFFCURVE",
"1185 373 CURVE SMOOTH",
"1190 373 OFFCURVE",
"1192 369 OFFCURVE",
"1192 362 CURVE SMOOTH",
"1192 353 OFFCURVE",
"1188 340 OFFCURVE",
"1181 322 CURVE SMOOTH",
"1164 285 OFFCURVE",
"1148 258 OFFCURVE",
"1138 240 CURVE SMOOTH",
"1108 186 OFFCURVE",
"1087 140 OFFCURVE",
"1073 104 CURVE SMOOTH",
"1053 55 OFFCURVE",
"1043 16 OFFCURVE",
"1042 -13 CURVE SMOOTH",
"1040 -58 OFFCURVE",
"1066 -77 OFFCURVE",
"1108 -77 CURVE SMOOTH",
"1123 -77 OFFCURVE",
"1141 -72 OFFCURVE",
"1162 -62 CURVE SMOOTH",
"1182 -52 OFFCURVE",
"1202 -38 OFFCURVE",
"1203 -25 CURVE SMOOTH",
"1203 -22 OFFCURVE",
"1201 -20 OFFCURVE",
"1199 -20 CURVE SMOOTH",
"1195 -20 OFFCURVE",
"1185 -26 OFFCURVE",
"1167 -37 CURVE SMOOTH",
"1150 -48 OFFCURVE",
"1136 -54 OFFCURVE",
"1125 -54 CURVE SMOOTH",
"1105 -54 OFFCURVE",
"1095 -42 OFFCURVE",
"1096 -18 CURVE SMOOTH",
"1097 13 OFFCURVE",
"1113 64 OFFCURVE",
"1145 134 CURVE SMOOTH",
"1170 185 OFFCURVE",
"1195 235 OFFCURVE",
"1219 286 CURVE SMOOTH",
"1236 318 OFFCURVE",
"1244 345 OFFCURVE",
"1244 367 CURVE SMOOTH"
);
}
);
width = 1241;
}
);
note = M;
unicode = 004D;
},
{
color = 4;
glyphname = N;
lastChange = "2021-04-21 04:42:14 +0000";
layers = (
{
hints = (
{
horizontal = 1;
place = "{-31, 34}";
type = Stem;
},
{
horizontal = 1;
place = "{204, 36}";
type = Stem;
},
{
horizontal = 1;
place = "{410, 42}";
type = Stem;
},
{
horizontal = 1;
place = "{544, 37}";
type = Stem;
},
{
place = "{2, 41}";
type = Stem;
},
{
place = "{645, 61}";
type = Stem;
},
{
place = "{807, 47}";
type = Stem;
},
{
place = "{931, 52}";
type = Stem;
}
);
layerId = "A9A9B55F-A222-44B0-A0B6-968BE501F3F8";
paths = (
{
closed = 1;
nodes = (
"999 428 OFFCURVE",
"973 451 OFFCURVE",
"918 451 CURVE SMOOTH",
"881 451 OFFCURVE",
"828 421 OFFCURVE",
"764 358 CURVE SMOOTH",
"718 313 OFFCURVE",
"681 265 OFFCURVE",
"637 220 CURVE",
"695 312 OFFCURVE",
"719 380 OFFCURVE",
"721 441 CURVE SMOOTH",
"724 528 OFFCURVE",
"665 581 OFFCURVE",
"542 581 CURVE SMOOTH",
"490 581 OFFCURVE",
"430 574 OFFCURVE",
"367 557 CURVE SMOOTH",
"290 536 OFFCURVE",
"203 496 OFFCURVE",
"137 457 CURVE SMOOTH",
"51 404 OFFCURVE",
"14 353 OFFCURVE",
"12 298 CURVE SMOOTH",
"10 239 OFFCURVE",
"55 210 OFFCURVE",
"138 210 CURVE SMOOTH",
"159 210 OFFCURVE",
"184 214 OFFCURVE",
"215 220 CURVE SMOOTH",
"254 228 OFFCURVE",
"274 238 OFFCURVE",
"274 249 CURVE SMOOTH",
"274 253 OFFCURVE",
"271 255 OFFCURVE",
"265 255 CURVE SMOOTH",
"263 255 OFFCURVE",
"259 254 OFFCURVE",
"254 253 CURVE SMOOTH",
"201 240 OFFCURVE",
"171 234 OFFCURVE",
"140 234 CURVE SMOOTH",
"84 234 OFFCURVE",
"54 253 OFFCURVE",
"56 291 CURVE SMOOTH",
"57 338 OFFCURVE",
"98 383 OFFCURVE",
"182 434 CURVE SMOOTH",
"287 498 OFFCURVE",
"451 554 OFFCURVE",
"564 554 CURVE SMOOTH",
"660 554 OFFCURVE",
"680 494 OFFCURVE",
"667 431 CURVE SMOOTH",
"656 383 OFFCURVE",
"623 300 OFFCURVE",
"565 193 CURVE SMOOTH",
"511 93 OFFCURVE",
"469 35 OFFCURVE",
"426 -10 CURVE SMOOTH",
"423 -13 OFFCURVE",
"422 -17 OFFCURVE",
"422 -22 CURVE SMOOTH",
"421 -37 OFFCURVE",
"441 -49 OFFCURVE",
"457 -49 CURVE",
"476 -46 OFFCURVE",
"502 2 OFFCURVE",
"514 21 CURVE SMOOTH",
"565 95 OFFCURVE",
"621 165 OFFCURVE",
"683 232 CURVE SMOOTH",
"768 323 OFFCURVE",
"827 379 OFFCURVE",
"881 407 CURVE SMOOTH",
"907 421 OFFCURVE",
"949 429 OFFCURVE",
"948 384 CURVE SMOOTH",
"947 369 OFFCURVE",
"943 347 OFFCURVE",
"933 320 CURVE SMOOTH",
"923 293 OFFCURVE",
"903 253 OFFCURVE",
"886 221 CURVE SMOOTH",
"868 186 OFFCURVE",
"851 152 OFFCURVE",
"833 117 CURVE SMOOTH",
"790 40 OFFCURVE",
"789 -30 OFFCURVE",
"875 -30 CURVE SMOOTH",
"893 -30 OFFCURVE",
"911 -24 OFFCURVE",
"932 -14 CURVE SMOOTH",
"952 -4 OFFCURVE",
"961 12 OFFCURVE",
"961 25 CURVE SMOOTH",
"961 28 OFFCURVE",
"961 30 OFFCURVE",
"958 30 CURVE SMOOTH",
"954 30 OFFCURVE",
"948 21 OFFCURVE",
"930 10 CURVE SMOOTH",
"912 -1 OFFCURVE",
"893 -4 OFFCURVE",
"881 -4 CURVE SMOOTH",
"859 -4 OFFCURVE",
"850 6 OFFCURVE",
"850 26 CURVE SMOOTH",
"851 51 OFFCURVE",
"883 114 OFFCURVE",
"929 199 CURVE SMOOTH",
"976 284 OFFCURVE",
"996 342 OFFCURVE",
"998 381 CURVE SMOOTH"
);
}
);
width = 985;
}
);
note = N;
unicode = 004E;
},
{
color = 4;
glyphname = Nacute;
lastChange = "2021-04-21 04:42:14 +0000";
layers = (
{
hints = (
{
horizontal = 1;
place = "{-31, 34}";
type = Stem;
},
{
horizontal = 1;
place = "{204, 36}";
type = Stem;
},
{
horizontal = 1;
place = "{410, 42}";
type = Stem;
},
{
horizontal = 1;
place = "{544, 37}";
type = Stem;
},
{
place = "{2, 41}";
type = Stem;
},
{
place = "{645, 61}";
type = Stem;
},
{
place = "{807, 47}";
type = Stem;
},
{
place = "{931, 52}";
type = Stem;
}
);
layerId = "A9A9B55F-A222-44B0-A0B6-968BE501F3F8";
paths = (
{
closed = 1;
nodes = (
"999 428 OFFCURVE",
"973 451 OFFCURVE",
"918 451 CURVE SMOOTH",
"881 451 OFFCURVE",
"828 421 OFFCURVE",
"764 358 CURVE SMOOTH",
"718 313 OFFCURVE",
"681 265 OFFCURVE",
"637 220 CURVE",
"695 312 OFFCURVE",
"719 380 OFFCURVE",
"721 441 CURVE SMOOTH",
"724 528 OFFCURVE",
"665 581 OFFCURVE",
"542 581 CURVE SMOOTH",
"490 581 OFFCURVE",
"430 574 OFFCURVE",
"367 557 CURVE SMOOTH",
"290 536 OFFCURVE",
"203 496 OFFCURVE",
"137 457 CURVE SMOOTH",
"51 404 OFFCURVE",
"14 353 OFFCURVE",
"12 298 CURVE SMOOTH",
"10 239 OFFCURVE",
"55 210 OFFCURVE",
"138 210 CURVE SMOOTH",
"159 210 OFFCURVE",
"184 214 OFFCURVE",
"215 220 CURVE SMOOTH",
"254 228 OFFCURVE",
"274 238 OFFCURVE",
"274 249 CURVE SMOOTH",
"274 253 OFFCURVE",
"271 255 OFFCURVE",
"265 255 CURVE SMOOTH",
"263 255 OFFCURVE",
"259 254 OFFCURVE",
"254 253 CURVE SMOOTH",
"201 240 OFFCURVE",
"171 234 OFFCURVE",
"140 234 CURVE SMOOTH",
"84 234 OFFCURVE",
"54 253 OFFCURVE",
"56 291 CURVE SMOOTH",
"57 338 OFFCURVE",
"98 383 OFFCURVE",
"182 434 CURVE SMOOTH",
"287 498 OFFCURVE",
"451 554 OFFCURVE",
"564 554 CURVE SMOOTH",
"660 554 OFFCURVE",
"680 494 OFFCURVE",
"667 431 CURVE SMOOTH",
"656 383 OFFCURVE",
"623 300 OFFCURVE",
"565 193 CURVE SMOOTH",
"511 93 OFFCURVE",
"469 35 OFFCURVE",
"426 -10 CURVE SMOOTH",
"423 -13 OFFCURVE",
"422 -17 OFFCURVE",
"422 -22 CURVE SMOOTH",
"421 -37 OFFCURVE",
"441 -49 OFFCURVE",
"457 -49 CURVE",
"476 -46 OFFCURVE",
"502 2 OFFCURVE",
"514 21 CURVE SMOOTH",
"565 95 OFFCURVE",
"621 165 OFFCURVE",
"683 232 CURVE SMOOTH",
"768 323 OFFCURVE",
"827 379 OFFCURVE",
"881 407 CURVE SMOOTH",
"907 421 OFFCURVE",
"949 429 OFFCURVE",
"948 384 CURVE SMOOTH",
"947 369 OFFCURVE",
"943 347 OFFCURVE",
"933 320 CURVE SMOOTH",
"923 293 OFFCURVE",
"903 253 OFFCURVE",
"886 221 CURVE SMOOTH",
"868 186 OFFCURVE",
"851 152 OFFCURVE",
"833 117 CURVE SMOOTH",
"790 40 OFFCURVE",
"789 -30 OFFCURVE",
"875 -30 CURVE SMOOTH",
"893 -30 OFFCURVE",
"911 -24 OFFCURVE",
"932 -14 CURVE SMOOTH",
"952 -4 OFFCURVE",
"961 12 OFFCURVE",
"961 25 CURVE SMOOTH",
"961 28 OFFCURVE",
"961 30 OFFCURVE",
"958 30 CURVE SMOOTH",
"954 30 OFFCURVE",
"948 21 OFFCURVE",
"930 10 CURVE SMOOTH",
"912 -1 OFFCURVE",
"893 -4 OFFCURVE",
"881 -4 CURVE SMOOTH",
"859 -4 OFFCURVE",
"850 6 OFFCURVE",
"850 26 CURVE SMOOTH",
"851 51 OFFCURVE",
"883 114 OFFCURVE",
"929 199 CURVE SMOOTH",
"976 284 OFFCURVE",
"996 342 OFFCURVE",
"998 381 CURVE SMOOTH"
);
},
{
closed = 1;
nodes = (
"905 521 OFFCURVE",
"997 571 OFFCURVE",
"1012 580 CURVE SMOOTH",
"1019 584 OFFCURVE",
"1023 593 OFFCURVE",
"1023 602 CURVE SMOOTH",
"1024 611 OFFCURVE",
"1019 618 OFFCURVE",
"1010 618 CURVE SMOOTH",
"994 618 OFFCURVE",
"895 546 OFFCURVE",
"890 542 CURVE SMOOTH",
"887 540 OFFCURVE",
"884 536 OFFCURVE",
"884 532 CURVE SMOOTH",
"884 525 OFFCURVE",
"890 521 OFFCURVE",
"895 521 CURVE SMOOTH"
);
}
);
width = 985;
}
);
note = Nacute;
unicode = 0143;
},
{
color = 4;
glyphname = Ncaron;
lastChange = "2021-04-21 04:42:14 +0000";
layers = (
{
hints = (
{
horizontal = 1;
place = "{-31, 34}";
type = Stem;
},
{
horizontal = 1;
place = "{204, 36}";
type = Stem;
},
{
horizontal = 1;
place = "{410, 42}";
type = Stem;
},
{
horizontal = 1;
place = "{544, 37}";
type = Stem;
},
{
place = "{2, 41}";
type = Stem;
},
{
place = "{645, 61}";
type = Stem;
},
{
place = "{807, 47}";
type = Stem;
},
{
place = "{931, 52}";
type = Stem;
}
);
layerId = "A9A9B55F-A222-44B0-A0B6-968BE501F3F8";
paths = (
{
closed = 1;
nodes = (
"999 428 OFFCURVE",
"973 451 OFFCURVE",
"918 451 CURVE SMOOTH",
"881 451 OFFCURVE",
"828 421 OFFCURVE",
"764 358 CURVE SMOOTH",
"718 313 OFFCURVE",
"681 265 OFFCURVE",
"637 220 CURVE",
"695 312 OFFCURVE",
"719 380 OFFCURVE",
"721 441 CURVE SMOOTH",
"724 528 OFFCURVE",
"665 581 OFFCURVE",
"542 581 CURVE SMOOTH",
"490 581 OFFCURVE",
"430 574 OFFCURVE",
"367 557 CURVE SMOOTH",
"290 536 OFFCURVE",
"203 496 OFFCURVE",
"137 457 CURVE SMOOTH",
"51 404 OFFCURVE",
"14 353 OFFCURVE",
"12 298 CURVE SMOOTH",
"10 239 OFFCURVE",
"55 210 OFFCURVE",
"138 210 CURVE SMOOTH",
"159 210 OFFCURVE",
"184 214 OFFCURVE",
"215 220 CURVE SMOOTH",
"254 228 OFFCURVE",
"274 238 OFFCURVE",
"274 249 CURVE SMOOTH",
"274 253 OFFCURVE",
"271 255 OFFCURVE",
"265 255 CURVE SMOOTH",
"263 255 OFFCURVE",
"259 254 OFFCURVE",
"254 253 CURVE SMOOTH",
"201 240 OFFCURVE",
"171 234 OFFCURVE",
"140 234 CURVE SMOOTH",
"84 234 OFFCURVE",
"54 253 OFFCURVE",
"56 291 CURVE SMOOTH",
"57 338 OFFCURVE",
"98 383 OFFCURVE",
"182 434 CURVE SMOOTH",
"287 498 OFFCURVE",
"451 554 OFFCURVE",
"564 554 CURVE SMOOTH",
"660 554 OFFCURVE",
"680 494 OFFCURVE",
"667 431 CURVE SMOOTH",
"656 383 OFFCURVE",
"623 300 OFFCURVE",
"565 193 CURVE SMOOTH",
"511 93 OFFCURVE",
"469 35 OFFCURVE",
"426 -10 CURVE SMOOTH",
"423 -13 OFFCURVE",
"422 -17 OFFCURVE",
"422 -22 CURVE SMOOTH",
"421 -37 OFFCURVE",
"441 -49 OFFCURVE",
"457 -49 CURVE",
"476 -46 OFFCURVE",
"502 2 OFFCURVE",
"514 21 CURVE SMOOTH",
"565 95 OFFCURVE",
"621 165 OFFCURVE",
"683 232 CURVE SMOOTH",
"768 323 OFFCURVE",
"827 379 OFFCURVE",
"881 407 CURVE SMOOTH",
"907 421 OFFCURVE",
"949 429 OFFCURVE",
"948 384 CURVE SMOOTH",
"947 369 OFFCURVE",
"943 347 OFFCURVE",
"933 320 CURVE SMOOTH",
"923 293 OFFCURVE",
"903 253 OFFCURVE",
"886 221 CURVE SMOOTH",
"868 186 OFFCURVE",
"851 152 OFFCURVE",
"833 117 CURVE SMOOTH",
"790 40 OFFCURVE",
"789 -30 OFFCURVE",
"875 -30 CURVE SMOOTH",
"893 -30 OFFCURVE",
"911 -24 OFFCURVE",
"932 -14 CURVE SMOOTH",
"952 -4 OFFCURVE",
"961 12 OFFCURVE",
"961 25 CURVE SMOOTH",
"961 28 OFFCURVE",
"961 30 OFFCURVE",
"958 30 CURVE SMOOTH",
"954 30 OFFCURVE",
"948 21 OFFCURVE",
"930 10 CURVE SMOOTH",
"912 -1 OFFCURVE",
"893 -4 OFFCURVE",
"881 -4 CURVE SMOOTH",
"859 -4 OFFCURVE",
"850 6 OFFCURVE",
"850 26 CURVE SMOOTH",
"851 51 OFFCURVE",
"883 114 OFFCURVE",
"929 199 CURVE SMOOTH",
"976 284 OFFCURVE",
"996 342 OFFCURVE",
"998 381 CURVE SMOOTH"
);
},
{
closed = 1;
nodes = (
"1019 595 LINE",
"1021 603 LINE",
"1021 607 OFFCURVE",
"1014 611 OFFCURVE",
"1011 611 CURVE SMOOTH",
"997 611 OFFCURVE",
"938 574 OFFCURVE",
"921 565 CURVE",
"909 579 OFFCURVE",
"870 613 OFFCURVE",
"851 613 CURVE SMOOTH",
"846 613 OFFCURVE",
"836 610 OFFCURVE",
"836 603 CURVE SMOOTH",
"836 596 OFFCURVE",
"899 530 OFFCURVE",
"905 530 CURVE SMOOTH",
"921 530 OFFCURVE",
"1007 583 OFFCURVE",
"1019 596 CURVE"
);
}
);
width = 985;
}
);
note = Ncaron;
unicode = 0147;
},
{
color = 4;
glyphname = Ncommaaccent;
lastChange = "2021-04-21 04:42:14 +0000";
layers = (
{
hints = (
{
horizontal = 1;
place = "{-31, 34}";
type = Stem;
},
{
horizontal = 1;
place = "{203, 36}";
type = Stem;
},
{
horizontal = 1;
place = "{410, 42}";
type = Stem;
},
{
horizontal = 1;
place = "{544, 37}";
type = Stem;
},
{
place = "{2, 41}";
type = Stem;
},
{
place = "{643, 56}";
type = Stem;
},
{
place = "{807, 47}";
type = Stem;
},
{
place = "{931, 52}";
type = Stem;
},
{
horizontal = 1;
place = "{204, 36}";
type = Stem;
},
{
place = "{645, 61}";
type = Stem;
}
);
layerId = "A9A9B55F-A222-44B0-A0B6-968BE501F3F8";
paths = (
{
closed = 1;
nodes = (
"999 428 OFFCURVE",
"973 451 OFFCURVE",
"918 451 CURVE SMOOTH",
"881 451 OFFCURVE",
"828 421 OFFCURVE",
"764 358 CURVE SMOOTH",
"718 313 OFFCURVE",
"681 265 OFFCURVE",
"637 220 CURVE",
"695 312 OFFCURVE",
"719 380 OFFCURVE",
"721 441 CURVE SMOOTH",
"724 528 OFFCURVE",
"665 581 OFFCURVE",
"542 581 CURVE SMOOTH",
"490 581 OFFCURVE",
"430 574 OFFCURVE",
"367 557 CURVE SMOOTH",
"290 536 OFFCURVE",
"203 496 OFFCURVE",
"137 457 CURVE SMOOTH",
"51 404 OFFCURVE",
"14 353 OFFCURVE",
"12 298 CURVE SMOOTH",
"10 239 OFFCURVE",
"55 210 OFFCURVE",
"138 210 CURVE SMOOTH",
"159 210 OFFCURVE",
"184 214 OFFCURVE",
"215 220 CURVE SMOOTH",
"254 228 OFFCURVE",
"274 238 OFFCURVE",
"274 249 CURVE SMOOTH",
"274 253 OFFCURVE",
"271 255 OFFCURVE",
"265 255 CURVE SMOOTH",
"263 255 OFFCURVE",
"259 254 OFFCURVE",
"254 253 CURVE SMOOTH",
"201 240 OFFCURVE",
"171 234 OFFCURVE",
"140 234 CURVE SMOOTH",
"84 234 OFFCURVE",
"54 253 OFFCURVE",
"56 291 CURVE SMOOTH",
"57 338 OFFCURVE",
"98 383 OFFCURVE",
"182 434 CURVE SMOOTH",
"287 498 OFFCURVE",
"451 554 OFFCURVE",
"564 554 CURVE SMOOTH",
"660 554 OFFCURVE",
"680 494 OFFCURVE",
"667 431 CURVE SMOOTH",
"656 383 OFFCURVE",
"623 300 OFFCURVE",
"565 193 CURVE SMOOTH",
"511 93 OFFCURVE",
"469 35 OFFCURVE",
"426 -10 CURVE SMOOTH",
"423 -13 OFFCURVE",
"422 -17 OFFCURVE",
"422 -22 CURVE SMOOTH",
"421 -37 OFFCURVE",
"441 -49 OFFCURVE",
"457 -49 CURVE",
"476 -46 OFFCURVE",
"502 2 OFFCURVE",
"514 21 CURVE SMOOTH",
"565 95 OFFCURVE",
"621 165 OFFCURVE",
"683 232 CURVE SMOOTH",
"768 323 OFFCURVE",
"827 379 OFFCURVE",
"881 407 CURVE SMOOTH",
"907 421 OFFCURVE",
"949 429 OFFCURVE",
"948 384 CURVE SMOOTH",
"947 369 OFFCURVE",
"943 347 OFFCURVE",
"933 320 CURVE SMOOTH",
"923 293 OFFCURVE",
"903 253 OFFCURVE",
"886 221 CURVE SMOOTH",
"868 186 OFFCURVE",
"851 152 OFFCURVE",
"833 117 CURVE SMOOTH",
"790 40 OFFCURVE",
"789 -30 OFFCURVE",
"875 -30 CURVE SMOOTH",
"893 -30 OFFCURVE",
"911 -24 OFFCURVE",
"932 -14 CURVE SMOOTH",
"952 -4 OFFCURVE",
"961 12 OFFCURVE",
"961 25 CURVE SMOOTH",
"961 28 OFFCURVE",
"961 30 OFFCURVE",
"958 30 CURVE SMOOTH",
"954 30 OFFCURVE",
"948 21 OFFCURVE",
"930 10 CURVE SMOOTH",
"912 -1 OFFCURVE",
"893 -4 OFFCURVE",
"881 -4 CURVE SMOOTH",
"859 -4 OFFCURVE",
"850 6 OFFCURVE",
"850 26 CURVE SMOOTH",
"851 51 OFFCURVE",
"883 114 OFFCURVE",
"929 199 CURVE SMOOTH",
"976 284 OFFCURVE",
"996 342 OFFCURVE",
"998 381 CURVE SMOOTH"
);
},
{
closed = 1;
nodes = (
"638 -70 OFFCURVE",
"651 -54 OFFCURVE",
"669 -54 CURVE SMOOTH",
"684 -54 OFFCURVE",
"692 -64 OFFCURVE",
"691 -77 CURVE SMOOTH",
"691 -92 OFFCURVE",
"682 -109 OFFCURVE",
"657 -135 CURVE SMOOTH",
"641 -153 OFFCURVE",
"624 -166 OFFCURVE",
"615 -172 CURVE",
"604 -175 OFFCURVE",
"593 -170 OFFCURVE",
"610 -161 CURVE",
"611 -160 OFFCURVE",
"644 -131 OFFCURVE",
"652 -104 CURVE",
"642 -100 OFFCURVE",
"637 -93 OFFCURVE",
"637 -85 CURVE SMOOTH"
);
}
);
width = 985;
}
);
note = Ncommaaccent;
unicode = 0145;
},
{
color = 4;
glyphname = Eng;
lastChange = "2021-04-21 04:42:14 +0000";
layers = (
{
hints = (
{
horizontal = 1;
place = "{-407, 26}";
type = Stem;
},
{
horizontal = 1;
place = "{203, 36}";
type = Stem;
},
{
horizontal = 1;
place = "{410, 42}";
type = Stem;
},
{
horizontal = 1;
place = "{544, 37}";
type = Stem;
},
{
place = "{2, 41}";
type = Stem;
},
{
place = "{265, 45}";
type = Stem;
},
{
place = "{645, 61}";
type = Stem;
},
{
place = "{931, 52}";
type = Stem;
}
);
layerId = "A9A9B55F-A222-44B0-A0B6-968BE501F3F8";
paths = (
{
closed = 1;
nodes = (
"999 423 OFFCURVE",
"972 446 OFFCURVE",
"917 446 CURVE SMOOTH",
"879 446 OFFCURVE",
"828 425 OFFCURVE",
"763 362 CURVE SMOOTH",
"718 317 OFFCURVE",
"673 261 OFFCURVE",
"629 216 CURVE",
"687 308 OFFCURVE",
"717 384 OFFCURVE",
"719 445 CURVE SMOOTH",
"722 532 OFFCURVE",
"662 575 OFFCURVE",
"538 575 CURVE SMOOTH",
"485 575 OFFCURVE",
"422 567 OFFCURVE",
"359 550 CURVE SMOOTH",
"282 529 OFFCURVE",
"210 498 OFFCURVE",
"145 459 CURVE SMOOTH",
"57 406 OFFCURVE",
"13 353 OFFCURVE",
"11 298 CURVE SMOOTH",
"9 239 OFFCURVE",
"49 210 OFFCURVE",
"134 210 CURVE SMOOTH",
"154 210 OFFCURVE",
"185 214 OFFCURVE",
"216 220 CURVE SMOOTH",
"254 228 OFFCURVE",
"275 238 OFFCURVE",
"275 249 CURVE SMOOTH",
"275 253 OFFCURVE",
"272 255 OFFCURVE",
"266 255 CURVE SMOOTH",
"264 255 OFFCURVE",
"260 254 OFFCURVE",
"255 253 CURVE SMOOTH",
"201 240 OFFCURVE",
"165 233 OFFCURVE",
"137 233 CURVE SMOOTH",
"81 233 OFFCURVE",
"52 252 OFFCURVE",
"54 290 CURVE SMOOTH",
"55 337 OFFCURVE",
"98 385 OFFCURVE",
"181 436 CURVE SMOOTH",
"242 475 OFFCURVE",
"305 504 OFFCURVE",
"373 524 CURVE SMOOTH",
"432 542 OFFCURVE",
"477 551 OFFCURVE",
"523 551 CURVE SMOOTH",
"616 551 OFFCURVE",
"660 515 OFFCURVE",
"658 443 CURVE SMOOTH",
"656 394 OFFCURVE",
"628 316 OFFCURVE",
"571 209 CURVE SMOOTH",
"518 109 OFFCURVE",
"473 37 OFFCURVE",
"430 -8 CURVE",
"428 -11 OFFCURVE",
"426 -15 OFFCURVE",
"426 -20 CURVE SMOOTH",
"425 -35 OFFCURVE",
"440 -42 OFFCURVE",
"457 -42 CURVE",
"482 -15 OFFCURVE",
"501 9 OFFCURVE",
"514 28 CURVE SMOOTH",
"565 102 OFFCURVE",
"624 172 OFFCURVE",
"686 239 CURVE SMOOTH",
"771 330 OFFCURVE",
"835 387 OFFCURVE",
"887 409 CURVE SMOOTH",
"900 415 OFFCURVE",
"911 417 OFFCURVE",
"920 417 CURVE SMOOTH",
"937 417 OFFCURVE",
"946 405 OFFCURVE",
"945 382 CURVE SMOOTH",
"943 330 OFFCURVE",
"923 259 OFFCURVE",
"900 203 CURVE SMOOTH",
"840 54 OFFCURVE",
"819 19 OFFCURVE",
"804 -5 CURVE",
"714 -14 OFFCURVE",
"603 -45 OFFCURVE",
"485 -98 CURVE SMOOTH",
"346 -162 OFFCURVE",
"268 -229 OFFCURVE",
"251 -301 CURVE SMOOTH",
"244 -331 OFFCURVE",
"251 -355 OFFCURVE",
"269 -373 CURVE SMOOTH",
"288 -391 OFFCURVE",
"330 -407 OFFCURVE",
"366 -407 CURVE SMOOTH",
"465 -407 OFFCURVE",
"555 -355 OFFCURVE",
"668 -253 CURVE SMOOTH",
"728 -199 OFFCURVE",
"786 -123 OFFCURVE",
"844 -25 CURVE",
"849 -24 OFFCURVE",
"857 -24 OFFCURVE",
"863 -25 CURVE",
"880 -25 OFFCURVE",
"892 -28 OFFCURVE",
"896 -31 CURVE",
"900 -32 OFFCURVE",
"902 -33 OFFCURVE",
"902 -33 CURVE",
"909 -33 OFFCURVE",
"911 -31 OFFCURVE",
"912 -26 CURVE SMOOTH",
"914 -19 OFFCURVE",
"906 -14 OFFCURVE",
"890 -10 CURVE SMOOTH",
"878 -7 OFFCURVE",
"860 -5 OFFCURVE",
"849 -5 CURVE",
"916 109 OFFCURVE",
"988 249 OFFCURVE",
"997 376 CURVE SMOOTH"
);
},
{
closed = 1;
nodes = (
"756 -108 OFFCURVE",
"707 -181 OFFCURVE",
"653 -239 CURVE SMOOTH",
"592 -303 OFFCURVE",
"469 -382 OFFCURVE",
"393 -378 CURVE SMOOTH",
"340 -376 OFFCURVE",
"281 -372 OFFCURVE",
"295 -305 CURVE SMOOTH",
"306 -256 OFFCURVE",
"348 -207 OFFCURVE",
"423 -158 CURVE SMOOTH",
"471 -129 OFFCURVE",
"531 -101 OFFCURVE",
"609 -72 CURVE SMOOTH",
"686 -44 OFFCURVE",
"750 -27 OFFCURVE",
"799 -22 CURVE"
);
}
);
width = 985;
}
);
note = Eng;
unicode = 014A;
},
{
color = 4;
glyphname = Ntilde;
lastChange = "2021-04-21 04:42:14 +0000";
layers = (
{
hints = (
{
horizontal = 1;
place = "{-31, 34}";
type = Stem;
},
{
horizontal = 1;
place = "{204, 36}";
type = Stem;
},
{
horizontal = 1;
place = "{410, 42}";
type = Stem;
},
{
horizontal = 1;
place = "{544, 37}";
type = Stem;
},
{
place = "{2, 41}";
type = Stem;
},
{
place = "{645, 61}";
type = Stem;
},
{
place = "{807, 47}";
type = Stem;
},
{
place = "{931, 52}";
type = Stem;
},
{
horizontal = 1;
place = "{590, 40}";
type = Stem;
},
{
place = "{789, 259}";
type = Stem;
}
);
layerId = "A9A9B55F-A222-44B0-A0B6-968BE501F3F8";
paths = (
{
closed = 1;
nodes = (
"999 428 OFFCURVE",
"973 451 OFFCURVE",
"918 451 CURVE SMOOTH",
"881 451 OFFCURVE",
"828 421 OFFCURVE",
"764 358 CURVE SMOOTH",
"718 313 OFFCURVE",
"681 265 OFFCURVE",
"637 220 CURVE",
"695 312 OFFCURVE",
"719 380 OFFCURVE",
"721 441 CURVE SMOOTH",
"724 528 OFFCURVE",
"665 581 OFFCURVE",
"542 581 CURVE SMOOTH",
"490 581 OFFCURVE",
"430 574 OFFCURVE",
"367 557 CURVE SMOOTH",
"290 536 OFFCURVE",
"203 496 OFFCURVE",
"137 457 CURVE SMOOTH",
"51 404 OFFCURVE",
"14 353 OFFCURVE",
"12 298 CURVE SMOOTH",
"10 239 OFFCURVE",
"55 210 OFFCURVE",
"138 210 CURVE SMOOTH",
"159 210 OFFCURVE",
"184 214 OFFCURVE",
"215 220 CURVE SMOOTH",
"254 228 OFFCURVE",
"274 238 OFFCURVE",
"274 249 CURVE SMOOTH",
"274 253 OFFCURVE",
"271 255 OFFCURVE",
"265 255 CURVE SMOOTH",
"263 255 OFFCURVE",
"259 254 OFFCURVE",
"254 253 CURVE SMOOTH",
"201 240 OFFCURVE",
"171 234 OFFCURVE",
"140 234 CURVE SMOOTH",
"84 234 OFFCURVE",
"54 253 OFFCURVE",
"56 291 CURVE SMOOTH",
"57 338 OFFCURVE",
"98 383 OFFCURVE",
"182 434 CURVE SMOOTH",
"287 498 OFFCURVE",
"451 554 OFFCURVE",
"564 554 CURVE SMOOTH",
"660 554 OFFCURVE",
"680 494 OFFCURVE",
"667 431 CURVE SMOOTH",
"656 383 OFFCURVE",
"623 300 OFFCURVE",
"565 193 CURVE SMOOTH",
"511 93 OFFCURVE",
"469 35 OFFCURVE",
"426 -10 CURVE SMOOTH",
"423 -13 OFFCURVE",
"422 -17 OFFCURVE",
"422 -22 CURVE SMOOTH",
"421 -37 OFFCURVE",
"441 -49 OFFCURVE",
"457 -49 CURVE",
"476 -46 OFFCURVE",
"502 2 OFFCURVE",
"514 21 CURVE SMOOTH",
"565 95 OFFCURVE",
"621 165 OFFCURVE",
"683 232 CURVE SMOOTH",
"768 323 OFFCURVE",
"827 379 OFFCURVE",
"881 407 CURVE SMOOTH",
"907 421 OFFCURVE",
"949 429 OFFCURVE",
"948 384 CURVE SMOOTH",
"947 369 OFFCURVE",
"943 347 OFFCURVE",
"933 320 CURVE SMOOTH",
"923 293 OFFCURVE",
"903 253 OFFCURVE",
"886 221 CURVE SMOOTH",
"868 186 OFFCURVE",
"851 152 OFFCURVE",
"833 117 CURVE SMOOTH",
"790 40 OFFCURVE",
"789 -30 OFFCURVE",
"875 -30 CURVE SMOOTH",
"893 -30 OFFCURVE",
"911 -24 OFFCURVE",
"932 -14 CURVE SMOOTH",
"952 -4 OFFCURVE",
"961 12 OFFCURVE",
"961 25 CURVE SMOOTH",
"961 28 OFFCURVE",
"961 30 OFFCURVE",
"958 30 CURVE SMOOTH",
"954 30 OFFCURVE",
"948 21 OFFCURVE",
"930 10 CURVE SMOOTH",
"912 -1 OFFCURVE",
"893 -4 OFFCURVE",
"881 -4 CURVE SMOOTH",
"859 -4 OFFCURVE",
"850 6 OFFCURVE",
"850 26 CURVE SMOOTH",
"851 51 OFFCURVE",
"883 114 OFFCURVE",
"929 199 CURVE SMOOTH",
"976 284 OFFCURVE",
"996 342 OFFCURVE",
"998 381 CURVE SMOOTH"
);
},
{
closed = 1;
nodes = (
"1062 627 OFFCURVE",
"1060 629 OFFCURVE",
"1052 629 CURVE",
"1039 614 OFFCURVE",
"1024 607 OFFCURVE",
"1007 607 CURVE SMOOTH",
"996 607 OFFCURVE",
"980 611 OFFCURVE",
"957 618 CURVE SMOOTH",
"934 624 OFFCURVE",
"917 628 OFFCURVE",
"904 628 CURVE SMOOTH",
"889 628 OFFCURVE",
"874 625 OFFCURVE",
"861 618 CURVE SMOOTH",
"829 600 OFFCURVE",
"812 586 OFFCURVE",
"812 575 CURVE SMOOTH",
"812 573 OFFCURVE",
"812 572 OFFCURVE",
"815 569 CURVE",
"818 569 OFFCURVE",
"828 573 OFFCURVE",
"841 583 CURVE SMOOTH",
"853 591 OFFCURVE",
"865 595 OFFCURVE",
"876 595 CURVE SMOOTH",
"888 595 OFFCURVE",
"905 590 OFFCURVE",
"929 581 CURVE SMOOTH",
"953 572 OFFCURVE",
"971 568 OFFCURVE",
"983 568 CURVE SMOOTH",
"996 568 OFFCURVE",
"1007 571 OFFCURVE",
"1016 577 CURVE SMOOTH",
"1048 595 OFFCURVE",
"1061 610 OFFCURVE",
"1062 622 CURVE SMOOTH"
);
}
);
width = 985;
}
);
note = Ntilde;
unicode = 00D1;
},
{
color = 4;
glyphname = O;
lastChange = "2021-04-21 04:42:14 +0000";
layers = (
{
hints = (
{
horizontal = 1;
place = "{-37, 34}";
type = Stem;
},
{
horizontal = 1;
place = "{125, 33}";
type = Stem;
},
{
horizontal = 1;
place = "{500, 36}";
type = Stem;
},
{
place = "{-6, 37}";
type = Stem;
},
{
place = "{50, 57}";
type = Stem;
},
{
place = "{737, 50}";
type = Stem;
}
);
layerId = "A9A9B55F-A222-44B0-A0B6-968BE501F3F8";
paths = (
{
closed = 1;
nodes = (
"805 521 OFFCURVE",
"633 545 OFFCURVE",
"494 535 CURVE SMOOTH",
"385 527 OFFCURVE",
"220 479 OFFCURVE",
"154 441 CURVE SMOOTH",
"73 396 OFFCURVE",
"6 333 OFFCURVE",
"3 241 CURVE SMOOTH",
"1 197 OFFCURVE",
"25 165 OFFCURVE",
"74 144 CURVE",
"62 119 OFFCURVE",
"55 95 OFFCURVE",
"54 74 CURVE SMOOTH",
"52 4 OFFCURVE",
"89 -37 OFFCURVE",
"209 -37 CURVE SMOOTH",
"303 -37 OFFCURVE",
"399 -8 OFFCURVE",
"501 37 CURVE SMOOTH",
"603 82 OFFCURVE",
"681 139 OFFCURVE",
"738 208 CURVE SMOOTH",
"782 261 OFFCURVE",
"797 312 OFFCURVE",
"799 359 CURVE SMOOTH"
);
},
{
closed = 1;
nodes = (
"748 259 OFFCURVE",
"587 125 OFFCURVE",
"483 70 CURVE SMOOTH",
"400 25 OFFCURVE",
"239 -35 OFFCURVE",
"145 12 CURVE SMOOTH",
"99 35 OFFCURVE",
"108 104 OFFCURVE",
"129 136 CURVE",
"142 133 OFFCURVE",
"155 131 OFFCURVE",
"170 131 CURVE SMOOTH",
"219 131 OFFCURVE",
"269 144 OFFCURVE",
"317 169 CURVE SMOOTH",
"363 192 OFFCURVE",
"402 223 OFFCURVE",
"434 260 CURVE",
"434 265 OFFCURVE",
"431 268 OFFCURVE",
"426 268 CURVE SMOOTH",
"427 268 OFFCURVE",
"412 257 OFFCURVE",
"385 235 CURVE SMOOTH",
"315 179 OFFCURVE",
"246 151 OFFCURVE",
"180 151 CURVE SMOOTH",
"166 151 OFFCURVE",
"153 152 OFFCURVE",
"138 155 CURVE",
"225 290 OFFCURVE",
"395 419 OFFCURVE",
"541 440 CURVE SMOOTH",
"550 442 OFFCURVE",
"557 446 OFFCURVE",
"557 453 CURVE SMOOTH",
"558 460 OFFCURVE",
"553 462 OFFCURVE",
"544 462 CURVE SMOOTH",
"542 462 LINE SMOOTH",
"379 462 OFFCURVE",
"172 305 OFFCURVE",
"84 165 CURVE",
"46 177 OFFCURVE",
"34 202 OFFCURVE",
"35 241 CURVE SMOOTH",
"37 301 OFFCURVE",
"101 356 OFFCURVE",
"170 398 CURVE SMOOTH",
"248 445 OFFCURVE",
"510 547 OFFCURVE",
"683 475 CURVE SMOOTH",
"720 460 OFFCURVE",
"753 426 OFFCURVE",
"752 374 CURVE SMOOTH"
);
}
);
width = 719;
}
);
leftKerningGroup = O;
note = O;
rightKerningGroup = O;
unicode = 004F;
},
{
color = 4;
glyphname = Oacute;
lastChange = "2021-04-21 04:42:14 +0000";
layers = (
{
hints = (
{
horizontal = 1;
place = "{-37, 34}";
type = Stem;
},
{
horizontal = 1;
place = "{125, 33}";
type = Stem;
},
{
horizontal = 1;
place = "{500, 36}";
type = Stem;
},
{
place = "{-6, 37}";
type = Stem;
},
{
place = "{50, 57}";
type = Stem;
},
{
place = "{737, 50}";
type = Stem;
}
);
layerId = "A9A9B55F-A222-44B0-A0B6-968BE501F3F8";
paths = (
{
closed = 1;
nodes = (
"805 521 OFFCURVE",
"633 545 OFFCURVE",
"494 535 CURVE SMOOTH",
"385 527 OFFCURVE",
"220 479 OFFCURVE",
"154 441 CURVE SMOOTH",
"73 396 OFFCURVE",
"6 333 OFFCURVE",
"3 241 CURVE SMOOTH",
"1 197 OFFCURVE",
"25 165 OFFCURVE",
"74 144 CURVE",
"62 119 OFFCURVE",
"55 95 OFFCURVE",
"54 74 CURVE SMOOTH",
"52 4 OFFCURVE",
"89 -37 OFFCURVE",
"209 -37 CURVE SMOOTH",
"303 -37 OFFCURVE",
"399 -8 OFFCURVE",
"501 37 CURVE SMOOTH",
"603 82 OFFCURVE",
"681 139 OFFCURVE",
"738 208 CURVE SMOOTH",
"782 261 OFFCURVE",
"797 312 OFFCURVE",
"799 359 CURVE SMOOTH"
);
},
{
closed = 1;
nodes = (
"748 259 OFFCURVE",
"587 125 OFFCURVE",
"483 70 CURVE SMOOTH",
"400 25 OFFCURVE",
"239 -35 OFFCURVE",
"145 12 CURVE SMOOTH",
"99 35 OFFCURVE",
"108 104 OFFCURVE",
"129 136 CURVE",
"142 133 OFFCURVE",
"155 131 OFFCURVE",
"170 131 CURVE SMOOTH",
"219 131 OFFCURVE",
"269 144 OFFCURVE",
"317 169 CURVE SMOOTH",
"363 192 OFFCURVE",
"402 223 OFFCURVE",
"434 260 CURVE",
"434 265 OFFCURVE",
"431 268 OFFCURVE",
"426 268 CURVE SMOOTH",
"427 268 OFFCURVE",
"412 257 OFFCURVE",
"385 235 CURVE SMOOTH",
"315 179 OFFCURVE",
"246 151 OFFCURVE",
"180 151 CURVE SMOOTH",
"166 151 OFFCURVE",
"153 152 OFFCURVE",
"138 155 CURVE",
"225 290 OFFCURVE",
"395 419 OFFCURVE",
"541 440 CURVE SMOOTH",
"550 442 OFFCURVE",
"557 446 OFFCURVE",
"557 453 CURVE SMOOTH",
"558 460 OFFCURVE",
"553 462 OFFCURVE",
"544 462 CURVE SMOOTH",
"542 462 LINE SMOOTH",
"379 462 OFFCURVE",
"172 305 OFFCURVE",
"84 165 CURVE",
"46 177 OFFCURVE",
"34 202 OFFCURVE",
"35 241 CURVE SMOOTH",
"37 301 OFFCURVE",
"101 356 OFFCURVE",
"170 398 CURVE SMOOTH",
"248 445 OFFCURVE",
"510 547 OFFCURVE",
"683 475 CURVE SMOOTH",
"720 460 OFFCURVE",
"753 426 OFFCURVE",
"752 374 CURVE SMOOTH"
);
},
{
closed = 1;
nodes = (
"650 589 OFFCURVE",
"742 639 OFFCURVE",
"757 648 CURVE SMOOTH",
"764 652 OFFCURVE",
"768 661 OFFCURVE",
"768 670 CURVE SMOOTH",
"769 679 OFFCURVE",
"764 686 OFFCURVE",
"755 686 CURVE SMOOTH",
"739 686 OFFCURVE",
"640 614 OFFCURVE",
"635 610 CURVE SMOOTH",
"632 608 OFFCURVE",
"629 604 OFFCURVE",
"629 600 CURVE SMOOTH",
"629 593 OFFCURVE",
"635 589 OFFCURVE",
"640 589 CURVE SMOOTH"
);
}
);
width = 719;
}
);
note = Oacute;
unicode = 00D3;
},
{
color = 4;
glyphname = Obreve;
lastChange = "2021-04-21 04:42:14 +0000";
layers = (
{
hints = (
{
horizontal = 1;
place = "{-37, 34}";
type = Stem;
},
{
horizontal = 1;
place = "{125, 33}";
type = Stem;
},
{
horizontal = 1;
place = "{500, 36}";
type = Stem;
},
{
horizontal = 1;
place = "{593, 31}";
type = Stem;
},
{
place = "{-6, 37}";
type = Stem;
},
{
place = "{50, 57}";
type = Stem;
},
{
place = "{737, 50}";
type = Stem;
}
);
layerId = "A9A9B55F-A222-44B0-A0B6-968BE501F3F8";
paths = (
{
closed = 1;
nodes = (
"805 521 OFFCURVE",
"633 545 OFFCURVE",
"494 535 CURVE SMOOTH",
"385 527 OFFCURVE",
"220 479 OFFCURVE",
"154 441 CURVE SMOOTH",
"73 396 OFFCURVE",
"6 333 OFFCURVE",
"3 241 CURVE SMOOTH",
"1 197 OFFCURVE",
"25 165 OFFCURVE",
"74 144 CURVE",
"62 119 OFFCURVE",
"55 95 OFFCURVE",
"54 74 CURVE SMOOTH",
"52 4 OFFCURVE",
"89 -37 OFFCURVE",
"209 -37 CURVE SMOOTH",
"303 -37 OFFCURVE",
"399 -8 OFFCURVE",
"501 37 CURVE SMOOTH",
"603 82 OFFCURVE",
"681 139 OFFCURVE",
"738 208 CURVE SMOOTH",
"782 261 OFFCURVE",
"797 312 OFFCURVE",
"799 359 CURVE SMOOTH"
);
},
{
closed = 1;
nodes = (
"748 259 OFFCURVE",
"587 125 OFFCURVE",
"483 70 CURVE SMOOTH",
"400 25 OFFCURVE",
"239 -35 OFFCURVE",
"145 12 CURVE SMOOTH",
"99 35 OFFCURVE",
"108 104 OFFCURVE",
"129 136 CURVE",
"142 133 OFFCURVE",
"155 131 OFFCURVE",
"170 131 CURVE SMOOTH",
"219 131 OFFCURVE",
"269 144 OFFCURVE",
"317 169 CURVE SMOOTH",
"363 192 OFFCURVE",
"402 223 OFFCURVE",
"434 260 CURVE",
"434 265 OFFCURVE",
"431 268 OFFCURVE",
"426 268 CURVE SMOOTH",
"427 268 OFFCURVE",
"412 257 OFFCURVE",
"385 235 CURVE SMOOTH",
"315 179 OFFCURVE",
"246 151 OFFCURVE",
"180 151 CURVE SMOOTH",
"166 151 OFFCURVE",
"153 152 OFFCURVE",
"138 155 CURVE",
"225 290 OFFCURVE",
"395 419 OFFCURVE",
"541 440 CURVE SMOOTH",
"550 442 OFFCURVE",
"557 446 OFFCURVE",
"557 453 CURVE SMOOTH",
"558 460 OFFCURVE",
"553 462 OFFCURVE",
"544 462 CURVE SMOOTH",
"542 462 LINE SMOOTH",
"379 462 OFFCURVE",
"172 305 OFFCURVE",
"84 165 CURVE",
"46 177 OFFCURVE",
"34 202 OFFCURVE",
"35 241 CURVE SMOOTH",
"37 301 OFFCURVE",
"101 356 OFFCURVE",
"170 398 CURVE SMOOTH",
"248 445 OFFCURVE",
"510 547 OFFCURVE",
"683 475 CURVE SMOOTH",
"720 460 OFFCURVE",
"753 426 OFFCURVE",
"752 374 CURVE SMOOTH"
);
},
{
closed = 1;
nodes = (
"723 592 OFFCURVE",
"785 637 OFFCURVE",
"793 669 CURVE",
"794 682 OFFCURVE",
"784 680 OFFCURVE",
"778 673 CURVE SMOOTH",
"754 647 OFFCURVE",
"707 619 OFFCURVE",
"676 619 CURVE SMOOTH",
"661 619 OFFCURVE",
"643 620 OFFCURVE",
"632 631 CURVE SMOOTH",
"625 637 OFFCURVE",
"617 646 OFFCURVE",
"616 663 CURVE SMOOTH",
"615 671 OFFCURVE",
"606 677 OFFCURVE",
"603 677 CURVE SMOOTH",
"590 677 OFFCURVE",
"584 667 OFFCURVE",
"584 656 CURVE SMOOTH",
"582 609 OFFCURVE",
"632 592 OFFCURVE",
"668 592 CURVE SMOOTH"
);
}
);
width = 719;
}
);
note = Obreve;
unicode = 014E;
},
